  0
SECTION
  2
HEADER
  9
$ACADVER
  1
AC1014
  9
$HANDSEED
  5
FFFF
  9
$MEASUREMENT
 70
     1
  0
ENDSEC
  0
SECTION
  2
TABLES
  0
TABLE
  2
VPORT
  5
8
330
0
100
AcDbSymbolTable
 70
     4
  0
VPORT
  5
2E
330
8
100
AcDbSymbolTableRecord
100
AcDbViewportTableRecord
  2
*ACTIVE
 70
     0
 10
0.0
 20
0.0
 11
1.0
 21
1.0
 12
210.0
 22
148.5
 13
0.0
 23
0.0
 14
10.0
 24
10.0
 15
10.0
 25
10.0
 16
0.0
 26
0.0
 36
1.0
 17
0.0
 27
0.0
 37
0.0
 40
341.0
 41
1.24
 42
50.0
 43
0.0
 44
0.0
 50
0.0
 51
0.0
 71
     0
 72
   100
 73
     1
 74
     3
 75
     0
 76
     0
 77
     0
 78
     0
  0
ENDTAB
  0
TABLE
  2
LTYPE
  5
5
330
0
100
AcDbSymbolTable
 70
     1
  0
LTYPE
  5
14
330
5
100
AcDbSymbolTableRecord
100
AcDbLinetypeTableRecord
  2
BYBLOCK
 70
     0
  3

 72
    65
 73
     0
 40
0.0
  0
LTYPE
  5
15
330
5
100
AcDbSymbolTableRecord
100
AcDbLinetypeTableRecord
  2
BYLAYER
 70
     0
  3

 72
    65
 73
     0
 40
0.0
  0
LTYPE
  5
16
330
5
100
AcDbSymbolTableRecord
100
AcDbLinetypeTableRecord
  2
CONTINUOUS
 70
     0
  3
Solid line
 72
    65
 73
     0
 40
0.0
  0
ENDTAB
  0
TABLE
  2
LAYER
  5
2
100
AcDbSymbolTable
 70
2
  0
LAYER
  5
50
100
AcDbSymbolTableRecord
100
AcDbLayerTableRecord
  2
0
 70
0
  6
CONTINUOUS
  0
LAYER
  5
51
100
AcDbSymbolTableRecord
100
AcDbLayerTableRecord
  2
Layer_1
 70
0
  6
CONTINUOUS
  0
ENDTAB
  0
TABLE
  2
STYLE
  5
3
330
0
100
AcDbSymbolTable
 70
     1
  0
STYLE
  5
11
330
3
100
AcDbSymbolTableRecord
100
AcDbTextStyleTableRecord
  2
STANDARD
 70
     0
 40
0.0
 41
1.0
 50
0.0
 71
     0
 42
2.5
  3
txt
  4

  0
ENDTAB
  0
TABLE
  2
VIEW
  5
6
330
0
100
AcDbSymbolTable
 70
     0
  0
ENDTAB
  0
TABLE
  2
UCS
  5
7
330
0
100
AcDbSymbolTable
 70
     0
  0
ENDTAB
  0
TABLE
  2
APPID
  5
9
330
0
100
AcDbSymbolTable
 70
     2
  0
APPID
  5
12
330
9
100
AcDbSymbolTableRecord
100
AcDbRegAppTableRecord
  2
ACAD
 70
     0
  0
ENDTAB
  0
TABLE
  2
DIMSTYLE
  5
A
330
0
100
AcDbSymbolTable
 70
     1
  0
DIMSTYLE
105
27
330
A
100
AcDbSymbolTableRecord
100
AcDbDimStyleTableRecord
  2
ISO-25
 70
     0
  3

  4

  5

  6

  7

 40
1.0
 41
2.5
 42
0.625
 43
3.75
 44
1.25
 45
0.0
 46
0.0
 47
0.0
 48
0.0
140
2.5
141
2.5
142
0.0
143
0.03937007874016
144
1.0
145
0.0
146
1.0
147
0.625
 71
     0
 72
     0
 73
     0
 74
     0
 75
     0
 76
     0
 77
     1
 78
     8
170
     0
171
     3
172
     1
173
     0
174
     0
175
     0
176
     0
177
     0
178
     0
270
     2
271
     2
272
     2
273
     2
274
     3
340
11
275
     0
280
     0
281
     0
282
     0
283
     0
284
     8
285
     0
286
     0
287
     3
288
     0
  0
ENDTAB
  0
TABLE
  2
BLOCK_RECORD
  5
1
330
0
100
AcDbSymbolTable
 70
     1
  0
BLOCK_RECORD
  5
1F
330
1
100
AcDbSymbolTableRecord
100
AcDbBlockTableRecord
  2
*MODEL_SPACE
  0
BLOCK_RECORD
  5
1B
330
1
100
AcDbSymbolTableRecord
100
AcDbBlockTableRecord
  2
*PAPER_SPACE
  0
ENDTAB
  0
ENDSEC
  0
SECTION
  2
BLOCKS
  0
BLOCK
  5
20
330
1F
100
AcDbEntity
  8
0
100
AcDbBlockBegin
  2
*MODEL_SPACE
 70
     0
 10
0.0
 20
0.0
 30
0.0
  3
*MODEL_SPACE
  1

  0
ENDBLK
  5
21
330
1F
100
AcDbEntity
  8
0
100
AcDbBlockEnd
  0
BLOCK
  5
1C
330
1B
100
AcDbEntity
 67
     1
  8
0
100
AcDbBlockBegin
  2
*PAPER_SPACE
  1

  0
ENDBLK
  5
1D
330
1B
100
AcDbEntity
 67
     1
  8
0
100
AcDbBlockEnd
  0
ENDSEC
  0
SECTION
  2
ENTITIES
  0
LWPOLYLINE
  5
100
100
AcDbEntity
  8
Layer_1
 62
7
100
AcDbPolyline
 90
17
 70
1
 10
0.126488
 20
41.873515
 30
0.0
 10
25.063243
 20
41.873515
 30
0.0
 10
49.999999
 20
41.873515
 30
0.0
 10
74.936754
 20
41.873515
 30
0.0
 10
99.873508
 20
41.873515
 30
0.0
 10
99.873508
 20
31.436759
 30
0.0
 10
99.873508
 20
21.000001
 30
0.0
 10
99.873508
 20
10.563234
 30
0.0
 10
99.873508
 20
0.126487
 30
0.0
 10
74.936754
 20
0.126487
 30
0.0
 10
49.999999
 20
0.126487
 30
0.0
 10
25.063243
 20
0.126487
 30
0.0
 10
0.126488
 20
0.126487
 30
0.0
 10
0.126488
 20
10.563234
 30
0.0
 10
0.126488
 20
21.000001
 30
0.0
 10
0.126488
 20
31.436759
 30
0.0
 10
0.126488
 20
41.873515
 30
0.0
  0
LWPOLYLINE
  5
101
100
AcDbEntity
  8
Layer_1
 62
7
100
AcDbPolyline
 90
17
 70
1
 10
13.226070
 20
11.499986
 30
0.0
 10
13.090426
 20
10.828128
 30
0.0
 10
12.720514
 20
10.279460
 30
0.0
 10
12.171862
 20
9.909551
 30
0.0
 10
11.499997
 20
9.773915
 30
0.0
 10
10.828132
 20
9.909551
 30
0.0
 10
10.279480
 20
10.279460
 30
0.0
 10
9.909568
 20
10.828128
 30
0.0
 10
9.773924
 20
11.499986
 30
0.0
 10
9.909567
 20
12.171844
 30
0.0
 10
10.279479
 20
12.720512
 30
0.0
 10
10.828132
 20
13.090421
 30
0.0
 10
11.499997
 20
13.226057
 30
0.0
 10
12.171863
 20
13.090421
 30
0.0
 10
12.720515
 20
12.720512
 30
0.0
 10
13.090427
 20
12.171844
 30
0.0
 10
13.226070
 20
11.499986
 30
0.0
  0
LWPOLYLINE
  5
102
100
AcDbEntity
  8
Layer_1
 62
7
100
AcDbPolyline
 90
17
 70
1
 10
13.226070
 20
17.499999
 30
0.0
 10
13.090427
 20
16.828133
 30
0.0
 10
12.720515
 20
16.279481
 30
0.0
 10
12.171863
 20
15.909570
 30
0.0
 10
11.499997
 20
15.773925
 30
0.0
 10
10.828131
 20
15.909570
 30
0.0
 10
10.279479
 20
16.279481
 30
0.0
 10
9.909567
 20
16.828133
 30
0.0
 10
9.773924
 20
17.499999
 30
0.0
 10
9.909568
 20
18.171866
 30
0.0
 10
10.279479
 20
18.720517
 30
0.0
 10
10.828132
 20
19.090429
 30
0.0
 10
11.499997
 20
19.226073
 30
0.0
 10
12.171863
 20
19.090429
 30
0.0
 10
12.720515
 20
18.720517
 30
0.0
 10
13.090426
 20
18.171866
 30
0.0
 10
13.226070
 20
17.499999
 30
0.0
  0
LWPOLYLINE
  5
103
100
AcDbEntity
  8
Layer_1
 62
7
100
AcDbPolyline
 90
17
 70
1
 10
13.226070
 20
24.500002
 30
0.0
 10
13.090426
 20
23.828138
 30
0.0
 10
12.720514
 20
23.279484
 30
0.0
 10
12.171862
 20
22.909576
 30
0.0
 10
11.499997
 20
22.773931
 30
0.0
 10
10.828132
 20
22.909576
 30
0.0
 10
10.279480
 20
23.279484
 30
0.0
 10
9.909568
 20
23.828138
 30
0.0
 10
9.773924
 20
24.500002
 30
0.0
 10
9.909567
 20
25.171869
 30
0.0
 10
10.279479
 20
25.720520
 30
0.0
 10
10.828131
 20
26.090432
 30
0.0
 10
11.499997
 20
26.226076
 30
0.0
 10
12.171863
 20
26.090432
 30
0.0
 10
12.720516
 20
25.720520
 30
0.0
 10
13.090427
 20
25.171869
 30
0.0
 10
13.226070
 20
24.500002
 30
0.0
  0
LWPOLYLINE
  5
104
100
AcDbEntity
  8
Layer_1
 62
7
100
AcDbPolyline
 90
17
 70
1
 10
13.226070
 20
30.499999
 30
0.0
 10
13.090427
 20
29.828132
 30
0.0
 10
12.720515
 20
29.279481
 30
0.0
 10
12.171863
 20
28.909569
 30
0.0
 10
11.499997
 20
28.773925
 30
0.0
 10
10.828131
 20
28.909569
 30
0.0
 10
10.279479
 20
29.279481
 30
0.0
 10
9.909567
 20
29.828132
 30
0.0
 10
9.773924
 20
30.499999
 30
0.0
 10
9.909568
 20
31.171865
 30
0.0
 10
10.279479
 20
31.720517
 30
0.0
 10
10.828132
 20
32.090428
 30
0.0
 10
11.499997
 20
32.226073
 30
0.0
 10
12.171863
 20
32.090428
 30
0.0
 10
12.720515
 20
31.720517
 30
0.0
 10
13.090426
 20
31.171865
 30
0.0
 10
13.226070
 20
30.499999
 30
0.0
  0
LWPOLYLINE
  5
105
100
AcDbEntity
  8
Layer_1
 62
7
100
AcDbPolyline
 90
17
 70
1
 10
13.226070
 20
36.499995
 30
0.0
 10
13.090427
 20
35.828129
 30
0.0
 10
12.720515
 20
35.279477
 30
0.0
 10
12.171863
 20
34.909566
 30
0.0
 10
11.499997
 20
34.773921
 30
0.0
 10
10.828131
 20
34.909566
 30
0.0
 10
10.279479
 20
35.279477
 30
0.0
 10
9.909567
 20
35.828129
 30
0.0
 10
9.773924
 20
36.499995
 30
0.0
 10
9.909568
 20
37.171859
 30
0.0
 10
10.279480
 20
37.720513
 30
0.0
 10
10.828132
 20
38.090422
 30
0.0
 10
11.499997
 20
38.226066
 30
0.0
 10
12.171862
 20
38.090422
 30
0.0
 10
12.720515
 20
37.720513
 30
0.0
 10
13.090426
 20
37.171859
 30
0.0
 10
13.226070
 20
36.499995
 30
0.0
  0
LWPOLYLINE
  5
106
100
AcDbEntity
  8
Layer_1
 62
7
100
AcDbPolyline
 90
17
 70
1
 10
19.226070
 20
11.499986
 30
0.0
 10
19.090426
 20
10.828128
 30
0.0
 10
18.720514
 20
10.279460
 30
0.0
 10
18.171862
 20
9.909551
 30
0.0
 10
17.499997
 20
9.773915
 30
0.0
 10
16.828132
 20
9.909551
 30
0.0
 10
16.279480
 20
10.279460
 30
0.0
 10
15.909568
 20
10.828128
 30
0.0
 10
15.773924
 20
11.499986
 30
0.0
 10
15.909567
 20
12.171844
 30
0.0
 10
16.279479
 20
12.720512
 30
0.0
 10
16.828132
 20
13.090421
 30
0.0
 10
17.499997
 20
13.226057
 30
0.0
 10
18.171862
 20
13.090421
 30
0.0
 10
18.720515
 20
12.720512
 30
0.0
 10
19.090427
 20
12.171844
 30
0.0
 10
19.226070
 20
11.499986
 30
0.0
  0
LWPOLYLINE
  5
107
100
AcDbEntity
  8
Layer_1
 62
7
100
AcDbPolyline
 90
17
 70
1
 10
19.226070
 20
30.499999
 30
0.0
 10
19.090427
 20
29.828132
 30
0.0
 10
18.720515
 20
29.279481
 30
0.0
 10
18.171863
 20
28.909569
 30
0.0
 10
17.499997
 20
28.773925
 30
0.0
 10
16.828131
 20
28.909569
 30
0.0
 10
16.279479
 20
29.279481
 30
0.0
 10
15.909567
 20
29.828132
 30
0.0
 10
15.773924
 20
30.499999
 30
0.0
 10
15.909568
 20
31.171865
 30
0.0
 10
16.279479
 20
31.720517
 30
0.0
 10
16.828132
 20
32.090428
 30
0.0
 10
17.499997
 20
32.226073
 30
0.0
 10
18.171863
 20
32.090428
 30
0.0
 10
18.720515
 20
31.720517
 30
0.0
 10
19.090426
 20
31.171865
 30
0.0
 10
19.226070
 20
30.499999
 30
0.0
  0
LWPOLYLINE
  5
108
100
AcDbEntity
  8
Layer_1
 62
7
100
AcDbPolyline
 90
17
 70
1
 10
7.226070
 20
11.499986
 30
0.0
 10
7.090427
 20
10.828128
 30
0.0
 10
6.720515
 20
10.279460
 30
0.0
 10
6.171862
 20
9.909551
 30
0.0
 10
5.499997
 20
9.773915
 30
0.0
 10
4.828132
 20
9.909551
 30
0.0
 10
4.279480
 20
10.279460
 30
0.0
 10
3.909568
 20
10.828128
 30
0.0
 10
3.773924
 20
11.499986
 30
0.0
 10
3.909567
 20
12.171844
 30
0.0
 10
4.279479
 20
12.720512
 30
0.0
 10
4.828132
 20
13.090421
 30
0.0
 10
5.499997
 20
13.226057
 30
0.0
 10
6.171863
 20
13.090421
 30
0.0
 10
6.720515
 20
12.720512
 30
0.0
 10
7.090427
 20
12.171844
 30
0.0
 10
7.226070
 20
11.499986
 30
0.0
  0
LWPOLYLINE
  5
109
100
AcDbEntity
  8
Layer_1
 62
7
100
AcDbPolyline
 90
17
 70
1
 10
19.226070
 20
17.499999
 30
0.0
 10
19.090427
 20
16.828133
 30
0.0
 10
18.720515
 20
16.279481
 30
0.0
 10
18.171863
 20
15.909570
 30
0.0
 10
17.499997
 20
15.773925
 30
0.0
 10
16.828131
 20
15.909570
 30
0.0
 10
16.279479
 20
16.279481
 30
0.0
 10
15.909567
 20
16.828133
 30
0.0
 10
15.773924
 20
17.499999
 30
0.0
 10
15.909568
 20
18.171866
 30
0.0
 10
16.279479
 20
18.720517
 30
0.0
 10
16.828132
 20
19.090429
 30
0.0
 10
17.499997
 20
19.226073
 30
0.0
 10
18.171863
 20
19.090429
 30
0.0
 10
18.720515
 20
18.720517
 30
0.0
 10
19.090426
 20
18.171866
 30
0.0
 10
19.226070
 20
17.499999
 30
0.0
  0
LWPOLYLINE
  5
10a
100
AcDbEntity
  8
Layer_1
 62
7
100
AcDbPolyline
 90
17
 70
1
 10
7.226070
 20
17.499999
 30
0.0
 10
7.090427
 20
16.828133
 30
0.0
 10
6.720516
 20
16.279481
 30
0.0
 10
6.171863
 20
15.909570
 30
0.0
 10
5.499997
 20
15.773925
 30
0.0
 10
4.828132
 20
15.909570
 30
0.0
 10
4.279479
 20
16.279481
 30
0.0
 10
3.909567
 20
16.828133
 30
0.0
 10
3.773924
 20
17.499999
 30
0.0
 10
3.909568
 20
18.171866
 30
0.0
 10
4.279479
 20
18.720517
 30
0.0
 10
4.828132
 20
19.090429
 30
0.0
 10
5.499997
 20
19.226073
 30
0.0
 10
6.171863
 20
19.090429
 30
0.0
 10
6.720515
 20
18.720517
 30
0.0
 10
7.090427
 20
18.171866
 30
0.0
 10
7.226070
 20
17.499999
 30
0.0
  0
LWPOLYLINE
  5
10b
100
AcDbEntity
  8
Layer_1
 62
7
100
AcDbPolyline
 90
17
 70
1
 10
7.226070
 20
30.499999
 30
0.0
 10
7.090427
 20
29.828132
 30
0.0
 10
6.720516
 20
29.279481
 30
0.0
 10
6.171863
 20
28.909569
 30
0.0
 10
5.499997
 20
28.773925
 30
0.0
 10
4.828132
 20
28.909569
 30
0.0
 10
4.279479
 20
29.279481
 30
0.0
 10
3.909567
 20
29.828132
 30
0.0
 10
3.773924
 20
30.499999
 30
0.0
 10
3.909568
 20
31.171865
 30
0.0
 10
4.279479
 20
31.720517
 30
0.0
 10
4.828132
 20
32.090428
 30
0.0
 10
5.499997
 20
32.226073
 30
0.0
 10
6.171863
 20
32.090428
 30
0.0
 10
6.720515
 20
31.720517
 30
0.0
 10
7.090427
 20
31.171865
 30
0.0
 10
7.226070
 20
30.499999
 30
0.0
  0
LWPOLYLINE
  5
10c
100
AcDbEntity
  8
Layer_1
 62
7
100
AcDbPolyline
 90
17
 70
1
 10
19.226070
 20
24.500002
 30
0.0
 10
19.090426
 20
23.828138
 30
0.0
 10
18.720514
 20
23.279484
 30
0.0
 10
18.171862
 20
22.909576
 30
0.0
 10
17.499997
 20
22.773931
 30
0.0
 10
16.828132
 20
22.909576
 30
0.0
 10
16.279480
 20
23.279484
 30
0.0
 10
15.909568
 20
23.828138
 30
0.0
 10
15.773924
 20
24.500002
 30
0.0
 10
15.909567
 20
25.171869
 30
0.0
 10
16.279479
 20
25.720520
 30
0.0
 10
16.828131
 20
26.090432
 30
0.0
 10
17.499997
 20
26.226076
 30
0.0
 10
18.171863
 20
26.090432
 30
0.0
 10
18.720515
 20
25.720520
 30
0.0
 10
19.090427
 20
25.171869
 30
0.0
 10
19.226070
 20
24.500002
 30
0.0
  0
LWPOLYLINE
  5
10d
100
AcDbEntity
  8
Layer_1
 62
7
100
AcDbPolyline
 90
17
 70
1
 10
7.226070
 20
24.500002
 30
0.0
 10
7.090427
 20
23.828138
 30
0.0
 10
6.720515
 20
23.279484
 30
0.0
 10
6.171862
 20
22.909576
 30
0.0
 10
5.499997
 20
22.773931
 30
0.0
 10
4.828132
 20
22.909576
 30
0.0
 10
4.279480
 20
23.279484
 30
0.0
 10
3.909568
 20
23.828138
 30
0.0
 10
3.773924
 20
24.500002
 30
0.0
 10
3.909567
 20
25.171869
 30
0.0
 10
4.279479
 20
25.720520
 30
0.0
 10
4.828132
 20
26.090432
 30
0.0
 10
5.499997
 20
26.226076
 30
0.0
 10
6.171863
 20
26.090432
 30
0.0
 10
6.720516
 20
25.720520
 30
0.0
 10
7.090428
 20
25.171869
 30
0.0
 10
7.226070
 20
24.500002
 30
0.0
  0
LWPOLYLINE
  5
10e
100
AcDbEntity
  8
Layer_1
 62
7
100
AcDbPolyline
 90
17
 70
1
 10
13.226070
 20
5.499998
 30
0.0
 10
13.090426
 20
4.828140
 30
0.0
 10
12.720514
 20
4.279472
 30
0.0
 10
12.171862
 20
3.909563
 30
0.0
 10
11.499997
 20
3.773927
 30
0.0
 10
10.828132
 20
3.909563
 30
0.0
 10
10.279480
 20
4.279472
 30
0.0
 10
9.909568
 20
4.828140
 30
0.0
 10
9.773924
 20
5.499998
 30
0.0
 10
9.909567
 20
6.171856
 30
0.0
 10
10.279479
 20
6.720524
 30
0.0
 10
10.828132
 20
7.090433
 30
0.0
 10
11.499997
 20
7.226069
 30
0.0
 10
12.171863
 20
7.090433
 30
0.0
 10
12.720515
 20
6.720524
 30
0.0
 10
13.090427
 20
6.171856
 30
0.0
 10
13.226070
 20
5.499998
 30
0.0
  0
LWPOLYLINE
  5
10f
100
AcDbEntity
  8
Layer_1
 62
7
100
AcDbPolyline
 90
17
 70
1
 10
19.226070
 20
5.499998
 30
0.0
 10
19.090426
 20
4.828140
 30
0.0
 10
18.720514
 20
4.279472
 30
0.0
 10
18.171862
 20
3.909563
 30
0.0
 10
17.499997
 20
3.773927
 30
0.0
 10
16.828132
 20
3.909563
 30
0.0
 10
16.279480
 20
4.279472
 30
0.0
 10
15.909568
 20
4.828140
 30
0.0
 10
15.773924
 20
5.499998
 30
0.0
 10
15.909567
 20
6.171856
 30
0.0
 10
16.279479
 20
6.720524
 30
0.0
 10
16.828132
 20
7.090433
 30
0.0
 10
17.499997
 20
7.226069
 30
0.0
 10
18.171862
 20
7.090433
 30
0.0
 10
18.720515
 20
6.720524
 30
0.0
 10
19.090427
 20
6.171856
 30
0.0
 10
19.226070
 20
5.499998
 30
0.0
  0
LWPOLYLINE
  5
110
100
AcDbEntity
  8
Layer_1
 62
7
100
AcDbPolyline
 90
17
 70
1
 10
19.226070
 20
36.499995
 30
0.0
 10
19.090427
 20
35.828129
 30
0.0
 10
18.720515
 20
35.279477
 30
0.0
 10
18.171863
 20
34.909566
 30
0.0
 10
17.499997
 20
34.773921
 30
0.0
 10
16.828131
 20
34.909566
 30
0.0
 10
16.279479
 20
35.279477
 30
0.0
 10
15.909567
 20
35.828129
 30
0.0
 10
15.773924
 20
36.499995
 30
0.0
 10
15.909568
 20
37.171859
 30
0.0
 10
16.279480
 20
37.720513
 30
0.0
 10
16.828132
 20
38.090422
 30
0.0
 10
17.499997
 20
38.226066
 30
0.0
 10
18.171862
 20
38.090422
 30
0.0
 10
18.720515
 20
37.720513
 30
0.0
 10
19.090426
 20
37.171859
 30
0.0
 10
19.226070
 20
36.499995
 30
0.0
  0
LWPOLYLINE
  5
111
100
AcDbEntity
  8
Layer_1
 62
7
100
AcDbPolyline
 90
17
 70
1
 10
25.226070
 20
11.499986
 30
0.0
 10
25.090426
 20
10.828128
 30
0.0
 10
24.720514
 20
10.279460
 30
0.0
 10
24.171862
 20
9.909551
 30
0.0
 10
23.499997
 20
9.773915
 30
0.0
 10
22.828132
 20
9.909551
 30
0.0
 10
22.279480
 20
10.279460
 30
0.0
 10
21.909568
 20
10.828128
 30
0.0
 10
21.773924
 20
11.499986
 30
0.0
 10
21.909567
 20
12.171844
 30
0.0
 10
22.279479
 20
12.720512
 30
0.0
 10
22.828131
 20
13.090421
 30
0.0
 10
23.499997
 20
13.226057
 30
0.0
 10
24.171862
 20
13.090421
 30
0.0
 10
24.720515
 20
12.720512
 30
0.0
 10
25.090427
 20
12.171844
 30
0.0
 10
25.226070
 20
11.499986
 30
0.0
  0
LWPOLYLINE
  5
112
100
AcDbEntity
  8
Layer_1
 62
7
100
AcDbPolyline
 90
17
 70
1
 10
25.226070
 20
30.499999
 30
0.0
 10
25.090427
 20
29.828132
 30
0.0
 10
24.720515
 20
29.279481
 30
0.0
 10
24.171863
 20
28.909569
 30
0.0
 10
23.499997
 20
28.773925
 30
0.0
 10
22.828131
 20
28.909569
 30
0.0
 10
22.279479
 20
29.279481
 30
0.0
 10
21.909567
 20
29.828132
 30
0.0
 10
21.773924
 20
30.499999
 30
0.0
 10
21.909568
 20
31.171865
 30
0.0
 10
22.279479
 20
31.720517
 30
0.0
 10
22.828131
 20
32.090428
 30
0.0
 10
23.499997
 20
32.226073
 30
0.0
 10
24.171862
 20
32.090428
 30
0.0
 10
24.720515
 20
31.720517
 30
0.0
 10
25.090426
 20
31.171865
 30
0.0
 10
25.226070
 20
30.499999
 30
0.0
  0
LWPOLYLINE
  5
113
100
AcDbEntity
  8
Layer_1
 62
7
100
AcDbPolyline
 90
17
 70
1
 10
25.226070
 20
17.499999
 30
0.0
 10
25.090427
 20
16.828133
 30
0.0
 10
24.720515
 20
16.279481
 30
0.0
 10
24.171863
 20
15.909570
 30
0.0
 10
23.499997
 20
15.773925
 30
0.0
 10
22.828131
 20
15.909570
 30
0.0
 10
22.279479
 20
16.279481
 30
0.0
 10
21.909567
 20
16.828133
 30
0.0
 10
21.773924
 20
17.499999
 30
0.0
 10
21.909568
 20
18.171866
 30
0.0
 10
22.279479
 20
18.720517
 30
0.0
 10
22.828131
 20
19.090429
 30
0.0
 10
23.499997
 20
19.226073
 30
0.0
 10
24.171862
 20
19.090429
 30
0.0
 10
24.720515
 20
18.720517
 30
0.0
 10
25.090426
 20
18.171866
 30
0.0
 10
25.226070
 20
17.499999
 30
0.0
  0
LWPOLYLINE
  5
114
100
AcDbEntity
  8
Layer_1
 62
7
100
AcDbPolyline
 90
17
 70
1
 10
25.226070
 20
24.499985
 30
0.0
 10
25.090427
 20
23.828119
 30
0.0
 10
24.720515
 20
23.279467
 30
0.0
 10
24.171863
 20
22.909556
 30
0.0
 10
23.499997
 20
22.773911
 30
0.0
 10
22.828131
 20
22.909556
 30
0.0
 10
22.279479
 20
23.279467
 30
0.0
 10
21.909567
 20
23.828119
 30
0.0
 10
21.773924
 20
24.499985
 30
0.0
 10
21.909568
 20
25.171852
 30
0.0
 10
22.279479
 20
25.720503
 30
0.0
 10
22.828131
 20
26.090415
 30
0.0
 10
23.499997
 20
26.226059
 30
0.0
 10
24.171862
 20
26.090415
 30
0.0
 10
24.720515
 20
25.720503
 30
0.0
 10
25.090426
 20
25.171852
 30
0.0
 10
25.226070
 20
24.499985
 30
0.0
  0
LWPOLYLINE
  5
115
100
AcDbEntity
  8
Layer_1
 62
7
100
AcDbPolyline
 90
17
 70
1
 10
25.226070
 20
5.499998
 30
0.0
 10
25.090426
 20
4.828140
 30
0.0
 10
24.720514
 20
4.279472
 30
0.0
 10
24.171862
 20
3.909563
 30
0.0
 10
23.499997
 20
3.773927
 30
0.0
 10
22.828132
 20
3.909563
 30
0.0
 10
22.279480
 20
4.279472
 30
0.0
 10
21.909568
 20
4.828140
 30
0.0
 10
21.773924
 20
5.499998
 30
0.0
 10
21.909567
 20
6.171856
 30
0.0
 10
22.279479
 20
6.720524
 30
0.0
 10
22.828131
 20
7.090433
 30
0.0
 10
23.499997
 20
7.226069
 30
0.0
 10
24.171862
 20
7.090433
 30
0.0
 10
24.720515
 20
6.720524
 30
0.0
 10
25.090427
 20
6.171856
 30
0.0
 10
25.226070
 20
5.499998
 30
0.0
  0
LWPOLYLINE
  5
116
100
AcDbEntity
  8
Layer_1
 62
7
100
AcDbPolyline
 90
17
 70
1
 10
25.226070
 20
36.499995
 30
0.0
 10
25.090427
 20
35.828129
 30
0.0
 10
24.720515
 20
35.279477
 30
0.0
 10
24.171863
 20
34.909566
 30
0.0
 10
23.499997
 20
34.773921
 30
0.0
 10
22.828131
 20
34.909566
 30
0.0
 10
22.279479
 20
35.279477
 30
0.0
 10
21.909567
 20
35.828129
 30
0.0
 10
21.773924
 20
36.499995
 30
0.0
 10
21.909568
 20
37.171859
 30
0.0
 10
22.279479
 20
37.720513
 30
0.0
 10
22.828132
 20
38.090422
 30
0.0
 10
23.499997
 20
38.226066
 30
0.0
 10
24.171862
 20
38.090422
 30
0.0
 10
24.720514
 20
37.720513
 30
0.0
 10
25.090426
 20
37.171859
 30
0.0
 10
25.226070
 20
36.499995
 30
0.0
  0
LWPOLYLINE
  5
117
100
AcDbEntity
  8
Layer_1
 62
7
100
AcDbPolyline
 90
17
 70
1
 10
31.226069
 20
11.499986
 30
0.0
 10
31.090424
 20
10.828128
 30
0.0
 10
30.720513
 20
10.279460
 30
0.0
 10
30.171861
 20
9.909551
 30
0.0
 10
29.499995
 20
9.773915
 30
0.0
 10
28.828131
 20
9.909551
 30
0.0
 10
28.279477
 20
10.279460
 30
0.0
 10
27.909565
 20
10.828128
 30
0.0
 10
27.773921
 20
11.499986
 30
0.0
 10
27.909565
 20
12.171844
 30
0.0
 10
28.279477
 20
12.720512
 30
0.0
 10
28.828128
 20
13.090421
 30
0.0
 10
29.499995
 20
13.226057
 30
0.0
 10
30.171861
 20
13.090421
 30
0.0
 10
30.720513
 20
12.720512
 30
0.0
 10
31.090424
 20
12.171844
 30
0.0
 10
31.226069
 20
11.499986
 30
0.0
  0
LWPOLYLINE
  5
118
100
AcDbEntity
  8
Layer_1
 62
7
100
AcDbPolyline
 90
17
 70
1
 10
31.226069
 20
30.499999
 30
0.0
 10
31.090424
 20
29.828132
 30
0.0
 10
30.720513
 20
29.279481
 30
0.0
 10
30.171861
 20
28.909569
 30
0.0
 10
29.499995
 20
28.773925
 30
0.0
 10
28.828128
 20
28.909569
 30
0.0
 10
28.279477
 20
29.279481
 30
0.0
 10
27.909565
 20
29.828132
 30
0.0
 10
27.773921
 20
30.499999
 30
0.0
 10
27.909565
 20
31.171865
 30
0.0
 10
28.279477
 20
31.720517
 30
0.0
 10
28.828128
 20
32.090428
 30
0.0
 10
29.499995
 20
32.226073
 30
0.0
 10
30.171861
 20
32.090428
 30
0.0
 10
30.720513
 20
31.720517
 30
0.0
 10
31.090424
 20
31.171865
 30
0.0
 10
31.226069
 20
30.499999
 30
0.0
  0
LWPOLYLINE
  5
119
100
AcDbEntity
  8
Layer_1
 62
7
100
AcDbPolyline
 90
17
 70
1
 10
31.226069
 20
17.499999
 30
0.0
 10
31.090424
 20
16.828133
 30
0.0
 10
30.720513
 20
16.279481
 30
0.0
 10
30.171861
 20
15.909570
 30
0.0
 10
29.499995
 20
15.773925
 30
0.0
 10
28.828128
 20
15.909570
 30
0.0
 10
28.279477
 20
16.279481
 30
0.0
 10
27.909565
 20
16.828133
 30
0.0
 10
27.773921
 20
17.499999
 30
0.0
 10
27.909565
 20
18.171866
 30
0.0
 10
28.279477
 20
18.720517
 30
0.0
 10
28.828128
 20
19.090429
 30
0.0
 10
29.499995
 20
19.226073
 30
0.0
 10
30.171861
 20
19.090429
 30
0.0
 10
30.720513
 20
18.720517
 30
0.0
 10
31.090424
 20
18.171866
 30
0.0
 10
31.226069
 20
17.499999
 30
0.0
  0
LWPOLYLINE
  5
11a
100
AcDbEntity
  8
Layer_1
 62
7
100
AcDbPolyline
 90
17
 70
1
 10
31.226069
 20
24.500002
 30
0.0
 10
31.090424
 20
23.828138
 30
0.0
 10
30.720513
 20
23.279484
 30
0.0
 10
30.171861
 20
22.909573
 30
0.0
 10
29.499995
 20
22.773931
 30
0.0
 10
28.828131
 20
22.909576
 30
0.0
 10
28.279477
 20
23.279487
 30
0.0
 10
27.909565
 20
23.828138
 30
0.0
 10
27.773921
 20
24.500002
 30
0.0
 10
27.909564
 20
25.171869
 30
0.0
 10
28.279477
 20
25.720520
 30
0.0
 10
28.828128
 20
26.090432
 30
0.0
 10
29.499995
 20
26.226076
 30
0.0
 10
30.171861
 20
26.090432
 30
0.0
 10
30.720513
 20
25.720520
 30
0.0
 10
31.090427
 20
25.171869
 30
0.0
 10
31.226069
 20
24.500002
 30
0.0
  0
LWPOLYLINE
  5
11b
100
AcDbEntity
  8
Layer_1
 62
7
100
AcDbPolyline
 90
17
 70
1
 10
31.226069
 20
5.499998
 30
0.0
 10
31.090424
 20
4.828140
 30
0.0
 10
30.720513
 20
4.279472
 30
0.0
 10
30.171861
 20
3.909563
 30
0.0
 10
29.499995
 20
3.773927
 30
0.0
 10
28.828131
 20
3.909563
 30
0.0
 10
28.279477
 20
4.279472
 30
0.0
 10
27.909565
 20
4.828140
 30
0.0
 10
27.773921
 20
5.499998
 30
0.0
 10
27.909565
 20
6.171856
 30
0.0
 10
28.279477
 20
6.720524
 30
0.0
 10
28.828128
 20
7.090433
 30
0.0
 10
29.499995
 20
7.226069
 30
0.0
 10
30.171861
 20
7.090433
 30
0.0
 10
30.720513
 20
6.720524
 30
0.0
 10
31.090424
 20
6.171856
 30
0.0
 10
31.226069
 20
5.499998
 30
0.0
  0
LWPOLYLINE
  5
11c
100
AcDbEntity
  8
Layer_1
 62
7
100
AcDbPolyline
 90
17
 70
1
 10
31.226069
 20
36.499995
 30
0.0
 10
31.090424
 20
35.828129
 30
0.0
 10
30.720513
 20
35.279477
 30
0.0
 10
30.171861
 20
34.909566
 30
0.0
 10
29.499995
 20
34.773921
 30
0.0
 10
28.828128
 20
34.909566
 30
0.0
 10
28.279477
 20
35.279477
 30
0.0
 10
27.909565
 20
35.828129
 30
0.0
 10
27.773921
 20
36.499995
 30
0.0
 10
27.909565
 20
37.171859
 30
0.0
 10
28.279477
 20
37.720513
 30
0.0
 10
28.828131
 20
38.090422
 30
0.0
 10
29.499995
 20
38.226066
 30
0.0
 10
30.171861
 20
38.090422
 30
0.0
 10
30.720513
 20
37.720513
 30
0.0
 10
31.090424
 20
37.171859
 30
0.0
 10
31.226069
 20
36.499995
 30
0.0
  0
LWPOLYLINE
  5
11d
100
AcDbEntity
  8
Layer_1
 62
7
100
AcDbPolyline
 90
17
 70
1
 10
37.226071
 20
11.499986
 30
0.0
 10
37.090426
 20
10.828128
 30
0.0
 10
36.720515
 20
10.279460
 30
0.0
 10
36.171863
 20
9.909551
 30
0.0
 10
35.500000
 20
9.773915
 30
0.0
 10
34.828133
 20
9.909551
 30
0.0
 10
34.279482
 20
10.279460
 30
0.0
 10
33.909570
 20
10.828128
 30
0.0
 10
33.773926
 20
11.499986
 30
0.0
 10
33.909570
 20
12.171844
 30
0.0
 10
34.279482
 20
12.720512
 30
0.0
 10
34.828133
 20
13.090421
 30
0.0
 10
35.500000
 20
13.226057
 30
0.0
 10
36.171863
 20
13.090421
 30
0.0
 10
36.720517
 20
12.720512
 30
0.0
 10
37.090429
 20
12.171844
 30
0.0
 10
37.226071
 20
11.499986
 30
0.0
  0
LWPOLYLINE
  5
11e
100
AcDbEntity
  8
Layer_1
 62
7
100
AcDbPolyline
 90
17
 70
1
 10
37.226071
 20
30.499999
 30
0.0
 10
37.090429
 20
29.828132
 30
0.0
 10
36.720517
 20
29.279481
 30
0.0
 10
36.171863
 20
28.909569
 30
0.0
 10
35.500000
 20
28.773925
 30
0.0
 10
34.828133
 20
28.909566
 30
0.0
 10
34.279482
 20
29.279481
 30
0.0
 10
33.909570
 20
29.828132
 30
0.0
 10
33.773926
 20
30.499999
 30
0.0
 10
33.909570
 20
31.171865
 30
0.0
 10
34.279482
 20
31.720517
 30
0.0
 10
34.828133
 20
32.090428
 30
0.0
 10
35.500000
 20
32.226073
 30
0.0
 10
36.171863
 20
32.090428
 30
0.0
 10
36.720517
 20
31.720517
 30
0.0
 10
37.090426
 20
31.171865
 30
0.0
 10
37.226071
 20
30.499999
 30
0.0
  0
LWPOLYLINE
  5
11f
100
AcDbEntity
  8
Layer_1
 62
7
100
AcDbPolyline
 90
17
 70
1
 10
37.226071
 20
17.499999
 30
0.0
 10
37.090429
 20
16.828133
 30
0.0
 10
36.720517
 20
16.279481
 30
0.0
 10
36.171863
 20
15.909570
 30
0.0
 10
35.500000
 20
15.773925
 30
0.0
 10
34.828133
 20
15.909567
 30
0.0
 10
34.279482
 20
16.279481
 30
0.0
 10
33.909570
 20
16.828133
 30
0.0
 10
33.773926
 20
17.499999
 30
0.0
 10
33.909570
 20
18.171866
 30
0.0
 10
34.279482
 20
18.720517
 30
0.0
 10
34.828133
 20
19.090429
 30
0.0
 10
35.500000
 20
19.226073
 30
0.0
 10
36.171863
 20
19.090429
 30
0.0
 10
36.720517
 20
18.720517
 30
0.0
 10
37.090426
 20
18.171866
 30
0.0
 10
37.226071
 20
17.499999
 30
0.0
  0
LWPOLYLINE
  5
120
100
AcDbEntity
  8
Layer_1
 62
7
100
AcDbPolyline
 90
17
 70
1
 10
37.226071
 20
24.500002
 30
0.0
 10
37.090426
 20
23.828138
 30
0.0
 10
36.720515
 20
23.279487
 30
0.0
 10
36.171863
 20
22.909576
 30
0.0
 10
35.500000
 20
22.773931
 30
0.0
 10
34.828133
 20
22.909573
 30
0.0
 10
34.279482
 20
23.279484
 30
0.0
 10
33.909570
 20
23.828138
 30
0.0
 10
33.773926
 20
24.500002
 30
0.0
 10
33.909567
 20
25.171869
 30
0.0
 10
34.279482
 20
25.720520
 30
0.0
 10
34.828133
 20
26.090432
 30
0.0
 10
35.500000
 20
26.226076
 30
0.0
 10
36.171863
 20
26.090432
 30
0.0
 10
36.720517
 20
25.720520
 30
0.0
 10
37.090429
 20
25.171869
 30
0.0
 10
37.226071
 20
24.500002
 30
0.0
  0
LWPOLYLINE
  5
121
100
AcDbEntity
  8
Layer_1
 62
7
100
AcDbPolyline
 90
17
 70
1
 10
37.226071
 20
5.499998
 30
0.0
 10
37.090426
 20
4.828140
 30
0.0
 10
36.720515
 20
4.279472
 30
0.0
 10
36.171863
 20
3.909563
 30
0.0
 10
35.500000
 20
3.773927
 30
0.0
 10
34.828133
 20
3.909563
 30
0.0
 10
34.279482
 20
4.279472
 30
0.0
 10
33.909570
 20
4.828140
 30
0.0
 10
33.773926
 20
5.499998
 30
0.0
 10
33.909570
 20
6.171856
 30
0.0
 10
34.279482
 20
6.720524
 30
0.0
 10
34.828133
 20
7.090433
 30
0.0
 10
35.500000
 20
7.226069
 30
0.0
 10
36.171863
 20
7.090433
 30
0.0
 10
36.720517
 20
6.720524
 30
0.0
 10
37.090429
 20
6.171856
 30
0.0
 10
37.226071
 20
5.499998
 30
0.0
  0
LWPOLYLINE
  5
122
100
AcDbEntity
  8
Layer_1
 62
7
100
AcDbPolyline
 90
17
 70
1
 10
37.226071
 20
36.499995
 30
0.0
 10
37.090429
 20
35.828129
 30
0.0
 10
36.720517
 20
35.279477
 30
0.0
 10
36.171863
 20
34.909566
 30
0.0
 10
35.500000
 20
34.773921
 30
0.0
 10
34.828133
 20
34.909563
 30
0.0
 10
34.279482
 20
35.279477
 30
0.0
 10
33.909570
 20
35.828129
 30
0.0
 10
33.773926
 20
36.499995
 30
0.0
 10
33.909570
 20
37.171859
 30
0.0
 10
34.279482
 20
37.720513
 30
0.0
 10
34.828133
 20
38.090425
 30
0.0
 10
35.500000
 20
38.226066
 30
0.0
 10
36.171863
 20
38.090422
 30
0.0
 10
36.720515
 20
37.720510
 30
0.0
 10
37.090426
 20
37.171859
 30
0.0
 10
37.226071
 20
36.499995
 30
0.0
  0
LWPOLYLINE
  5
123
100
AcDbEntity
  8
Layer_1
 62
7
100
AcDbPolyline
 90
17
 70
1
 10
43.226073
 20
11.499986
 30
0.0
 10
43.090428
 20
10.828128
 30
0.0
 10
42.720517
 20
10.279460
 30
0.0
 10
42.171865
 20
9.909551
 30
0.0
 10
41.500002
 20
9.773915
 30
0.0
 10
40.828135
 20
9.909551
 30
0.0
 10
40.279484
 20
10.279460
 30
0.0
 10
39.909572
 20
10.828128
 30
0.0
 10
39.773928
 20
11.499986
 30
0.0
 10
39.909572
 20
12.171844
 30
0.0
 10
40.279484
 20
12.720512
 30
0.0
 10
40.828135
 20
13.090421
 30
0.0
 10
41.500002
 20
13.226057
 30
0.0
 10
42.171865
 20
13.090421
 30
0.0
 10
42.720520
 20
12.720512
 30
0.0
 10
43.090431
 20
12.171844
 30
0.0
 10
43.226073
 20
11.499986
 30
0.0
  0
LWPOLYLINE
  5
124
100
AcDbEntity
  8
Layer_1
 62
7
100
AcDbPolyline
 90
17
 70
1
 10
43.226073
 20
30.499999
 30
0.0
 10
43.090431
 20
29.828132
 30
0.0
 10
42.720520
 20
29.279481
 30
0.0
 10
42.171865
 20
28.909569
 30
0.0
 10
41.500002
 20
28.773925
 30
0.0
 10
40.828135
 20
28.909566
 30
0.0
 10
40.279484
 20
29.279481
 30
0.0
 10
39.909572
 20
29.828132
 30
0.0
 10
39.773928
 20
30.499999
 30
0.0
 10
39.909572
 20
31.171865
 30
0.0
 10
40.279484
 20
31.720517
 30
0.0
 10
40.828135
 20
32.090428
 30
0.0
 10
41.500002
 20
32.226073
 30
0.0
 10
42.171865
 20
32.090428
 30
0.0
 10
42.720520
 20
31.720517
 30
0.0
 10
43.090428
 20
31.171865
 30
0.0
 10
43.226073
 20
30.499999
 30
0.0
  0
LWPOLYLINE
  5
125
100
AcDbEntity
  8
Layer_1
 62
7
100
AcDbPolyline
 90
17
 70
1
 10
43.226073
 20
17.499999
 30
0.0
 10
43.090431
 20
16.828133
 30
0.0
 10
42.720520
 20
16.279481
 30
0.0
 10
42.171865
 20
15.909570
 30
0.0
 10
41.500002
 20
15.773925
 30
0.0
 10
40.828135
 20
15.909567
 30
0.0
 10
40.279484
 20
16.279481
 30
0.0
 10
39.909572
 20
16.828133
 30
0.0
 10
39.773928
 20
17.499999
 30
0.0
 10
39.909572
 20
18.171866
 30
0.0
 10
40.279484
 20
18.720517
 30
0.0
 10
40.828135
 20
19.090429
 30
0.0
 10
41.500002
 20
19.226073
 30
0.0
 10
42.171865
 20
19.090429
 30
0.0
 10
42.720520
 20
18.720517
 30
0.0
 10
43.090428
 20
18.171866
 30
0.0
 10
43.226073
 20
17.499999
 30
0.0
  0
LWPOLYLINE
  5
126
100
AcDbEntity
  8
Layer_1
 62
7
100
AcDbPolyline
 90
17
 70
1
 10
43.226073
 20
24.500002
 30
0.0
 10
43.090428
 20
23.828138
 30
0.0
 10
42.720517
 20
23.279487
 30
0.0
 10
42.171865
 20
22.909576
 30
0.0
 10
41.500002
 20
22.773931
 30
0.0
 10
40.828135
 20
22.909573
 30
0.0
 10
40.279484
 20
23.279484
 30
0.0
 10
39.909572
 20
23.828138
 30
0.0
 10
39.773928
 20
24.500002
 30
0.0
 10
39.909569
 20
25.171869
 30
0.0
 10
40.279484
 20
25.720520
 30
0.0
 10
40.828135
 20
26.090432
 30
0.0
 10
41.500002
 20
26.226076
 30
0.0
 10
42.171865
 20
26.090432
 30
0.0
 10
42.720520
 20
25.720520
 30
0.0
 10
43.090431
 20
25.171869
 30
0.0
 10
43.226073
 20
24.500002
 30
0.0
  0
LWPOLYLINE
  5
127
100
AcDbEntity
  8
Layer_1
 62
7
100
AcDbPolyline
 90
17
 70
1
 10
43.226073
 20
5.499998
 30
0.0
 10
43.090428
 20
4.828140
 30
0.0
 10
42.720517
 20
4.279472
 30
0.0
 10
42.171865
 20
3.909563
 30
0.0
 10
41.500002
 20
3.773927
 30
0.0
 10
40.828135
 20
3.909563
 30
0.0
 10
40.279484
 20
4.279472
 30
0.0
 10
39.909572
 20
4.828140
 30
0.0
 10
39.773928
 20
5.499998
 30
0.0
 10
39.909572
 20
6.171856
 30
0.0
 10
40.279484
 20
6.720524
 30
0.0
 10
40.828135
 20
7.090433
 30
0.0
 10
41.500002
 20
7.226069
 30
0.0
 10
42.171865
 20
7.090433
 30
0.0
 10
42.720520
 20
6.720524
 30
0.0
 10
43.090431
 20
6.171856
 30
0.0
 10
43.226073
 20
5.499998
 30
0.0
  0
LWPOLYLINE
  5
128
100
AcDbEntity
  8
Layer_1
 62
7
100
AcDbPolyline
 90
17
 70
1
 10
43.226073
 20
36.499995
 30
0.0
 10
43.090431
 20
35.828129
 30
0.0
 10
42.720520
 20
35.279477
 30
0.0
 10
42.171865
 20
34.909566
 30
0.0
 10
41.500002
 20
34.773921
 30
0.0
 10
40.828135
 20
34.909563
 30
0.0
 10
40.279484
 20
35.279477
 30
0.0
 10
39.909572
 20
35.828129
 30
0.0
 10
39.773928
 20
36.499995
 30
0.0
 10
39.909572
 20
37.171859
 30
0.0
 10
40.279484
 20
37.720513
 30
0.0
 10
40.828135
 20
38.090425
 30
0.0
 10
41.500002
 20
38.226066
 30
0.0
 10
42.171865
 20
38.090422
 30
0.0
 10
42.720517
 20
37.720510
 30
0.0
 10
43.090428
 20
37.171859
 30
0.0
 10
43.226073
 20
36.499995
 30
0.0
  0
LWPOLYLINE
  5
129
100
AcDbEntity
  8
Layer_1
 62
7
100
AcDbPolyline
 90
17
 70
1
 10
48.726073
 20
11.499986
 30
0.0
 10
48.590429
 20
10.828128
 30
0.0
 10
48.220517
 20
10.279460
 30
0.0
 10
47.671866
 20
9.909551
 30
0.0
 10
47.000002
 20
9.773915
 30
0.0
 10
46.328135
 20
9.909551
 30
0.0
 10
45.779484
 20
10.279460
 30
0.0
 10
45.409572
 20
10.828128
 30
0.0
 10
45.273928
 20
11.499986
 30
0.0
 10
45.409572
 20
12.171844
 30
0.0
 10
45.779484
 20
12.720512
 30
0.0
 10
46.328135
 20
13.090421
 30
0.0
 10
47.000002
 20
13.226057
 30
0.0
 10
47.671866
 20
13.090421
 30
0.0
 10
48.220520
 20
12.720512
 30
0.0
 10
48.590431
 20
12.171844
 30
0.0
 10
48.726073
 20
11.499986
 30
0.0
  0
LWPOLYLINE
  5
12a
100
AcDbEntity
  8
Layer_1
 62
7
100
AcDbPolyline
 90
17
 70
1
 10
48.726073
 20
30.499999
 30
0.0
 10
48.590431
 20
29.828132
 30
0.0
 10
48.220520
 20
29.279481
 30
0.0
 10
47.671866
 20
28.909569
 30
0.0
 10
47.000002
 20
28.773925
 30
0.0
 10
46.328135
 20
28.909566
 30
0.0
 10
45.779484
 20
29.279481
 30
0.0
 10
45.409572
 20
29.828132
 30
0.0
 10
45.273928
 20
30.499999
 30
0.0
 10
45.409572
 20
31.171865
 30
0.0
 10
45.779484
 20
31.720517
 30
0.0
 10
46.328135
 20
32.090428
 30
0.0
 10
47.000002
 20
32.226073
 30
0.0
 10
47.671866
 20
32.090428
 30
0.0
 10
48.220520
 20
31.720517
 30
0.0
 10
48.590429
 20
31.171865
 30
0.0
 10
48.726073
 20
30.499999
 30
0.0
  0
LWPOLYLINE
  5
12b
100
AcDbEntity
  8
Layer_1
 62
7
100
AcDbPolyline
 90
17
 70
1
 10
48.726073
 20
17.499999
 30
0.0
 10
48.590431
 20
16.828133
 30
0.0
 10
48.220520
 20
16.279481
 30
0.0
 10
47.671866
 20
15.909570
 30
0.0
 10
47.000002
 20
15.773925
 30
0.0
 10
46.328135
 20
15.909567
 30
0.0
 10
45.779484
 20
16.279481
 30
0.0
 10
45.409572
 20
16.828133
 30
0.0
 10
45.273928
 20
17.499999
 30
0.0
 10
45.409572
 20
18.171866
 30
0.0
 10
45.779484
 20
18.720517
 30
0.0
 10
46.328135
 20
19.090429
 30
0.0
 10
47.000002
 20
19.226073
 30
0.0
 10
47.671866
 20
19.090429
 30
0.0
 10
48.220520
 20
18.720517
 30
0.0
 10
48.590429
 20
18.171866
 30
0.0
 10
48.726073
 20
17.499999
 30
0.0
  0
LWPOLYLINE
  5
12c
100
AcDbEntity
  8
Layer_1
 62
7
100
AcDbPolyline
 90
17
 70
1
 10
48.726073
 20
24.500002
 30
0.0
 10
48.590429
 20
23.828138
 30
0.0
 10
48.220517
 20
23.279487
 30
0.0
 10
47.671866
 20
22.909576
 30
0.0
 10
47.000002
 20
22.773931
 30
0.0
 10
46.328135
 20
22.909573
 30
0.0
 10
45.779484
 20
23.279484
 30
0.0
 10
45.409572
 20
23.828138
 30
0.0
 10
45.273928
 20
24.500002
 30
0.0
 10
45.409570
 20
25.171869
 30
0.0
 10
45.779484
 20
25.720520
 30
0.0
 10
46.328135
 20
26.090432
 30
0.0
 10
47.000002
 20
26.226076
 30
0.0
 10
47.671866
 20
26.090432
 30
0.0
 10
48.220520
 20
25.720520
 30
0.0
 10
48.590431
 20
25.171869
 30
0.0
 10
48.726073
 20
24.500002
 30
0.0
  0
LWPOLYLINE
  5
12d
100
AcDbEntity
  8
Layer_1
 62
7
100
AcDbPolyline
 90
17
 70
1
 10
48.726073
 20
5.499998
 30
0.0
 10
48.590429
 20
4.828140
 30
0.0
 10
48.220517
 20
4.279472
 30
0.0
 10
47.671866
 20
3.909563
 30
0.0
 10
47.000002
 20
3.773927
 30
0.0
 10
46.328135
 20
3.909563
 30
0.0
 10
45.779484
 20
4.279472
 30
0.0
 10
45.409572
 20
4.828140
 30
0.0
 10
45.273928
 20
5.499998
 30
0.0
 10
45.409572
 20
6.171856
 30
0.0
 10
45.779484
 20
6.720524
 30
0.0
 10
46.328135
 20
7.090433
 30
0.0
 10
47.000002
 20
7.226069
 30
0.0
 10
47.671866
 20
7.090433
 30
0.0
 10
48.220520
 20
6.720524
 30
0.0
 10
48.590431
 20
6.171856
 30
0.0
 10
48.726073
 20
5.499998
 30
0.0
  0
LWPOLYLINE
  5
12e
100
AcDbEntity
  8
Layer_1
 62
7
100
AcDbPolyline
 90
17
 70
1
 10
48.726073
 20
36.499995
 30
0.0
 10
48.590431
 20
35.828129
 30
0.0
 10
48.220520
 20
35.279477
 30
0.0
 10
47.671866
 20
34.909566
 30
0.0
 10
47.000002
 20
34.773921
 30
0.0
 10
46.328135
 20
34.909563
 30
0.0
 10
45.779484
 20
35.279477
 30
0.0
 10
45.409572
 20
35.828129
 30
0.0
 10
45.273928
 20
36.499995
 30
0.0
 10
45.409572
 20
37.171859
 30
0.0
 10
45.779484
 20
37.720513
 30
0.0
 10
46.328135
 20
38.090425
 30
0.0
 10
47.000002
 20
38.226066
 30
0.0
 10
47.671866
 20
38.090422
 30
0.0
 10
48.220517
 20
37.720510
 30
0.0
 10
48.590429
 20
37.171859
 30
0.0
 10
48.726073
 20
36.499995
 30
0.0
  0
LWPOLYLINE
  5
12f
100
AcDbEntity
  8
Layer_1
 62
7
100
AcDbPolyline
 90
17
 70
1
 10
54.226073
 20
11.499986
 30
0.0
 10
54.090429
 20
10.828128
 30
0.0
 10
53.720517
 20
10.279460
 30
0.0
 10
53.171866
 20
9.909551
 30
0.0
 10
52.500002
 20
9.773915
 30
0.0
 10
51.828136
 20
9.909551
 30
0.0
 10
51.279484
 20
10.279460
 30
0.0
 10
50.909573
 20
10.828128
 30
0.0
 10
50.773928
 20
11.499986
 30
0.0
 10
50.909573
 20
12.171844
 30
0.0
 10
51.279484
 20
12.720512
 30
0.0
 10
51.828136
 20
13.090421
 30
0.0
 10
52.500002
 20
13.226057
 30
0.0
 10
53.171866
 20
13.090421
 30
0.0
 10
53.720520
 20
12.720512
 30
0.0
 10
54.090432
 20
12.171844
 30
0.0
 10
54.226073
 20
11.499986
 30
0.0
  0
LWPOLYLINE
  5
130
100
AcDbEntity
  8
Layer_1
 62
7
100
AcDbPolyline
 90
17
 70
1
 10
54.226073
 20
30.499999
 30
0.0
 10
54.090432
 20
29.828132
 30
0.0
 10
53.720520
 20
29.279481
 30
0.0
 10
53.171866
 20
28.909569
 30
0.0
 10
52.500002
 20
28.773925
 30
0.0
 10
51.828136
 20
28.909566
 30
0.0
 10
51.279484
 20
29.279481
 30
0.0
 10
50.909573
 20
29.828132
 30
0.0
 10
50.773928
 20
30.499999
 30
0.0
 10
50.909573
 20
31.171865
 30
0.0
 10
51.279484
 20
31.720517
 30
0.0
 10
51.828136
 20
32.090428
 30
0.0
 10
52.500002
 20
32.226073
 30
0.0
 10
53.171866
 20
32.090428
 30
0.0
 10
53.720520
 20
31.720517
 30
0.0
 10
54.090429
 20
31.171865
 30
0.0
 10
54.226073
 20
30.499999
 30
0.0
  0
LWPOLYLINE
  5
131
100
AcDbEntity
  8
Layer_1
 62
7
100
AcDbPolyline
 90
17
 70
1
 10
54.226073
 20
17.499999
 30
0.0
 10
54.090432
 20
16.828133
 30
0.0
 10
53.720520
 20
16.279481
 30
0.0
 10
53.171866
 20
15.909570
 30
0.0
 10
52.500002
 20
15.773925
 30
0.0
 10
51.828136
 20
15.909567
 30
0.0
 10
51.279484
 20
16.279481
 30
0.0
 10
50.909573
 20
16.828133
 30
0.0
 10
50.773928
 20
17.499999
 30
0.0
 10
50.909573
 20
18.171866
 30
0.0
 10
51.279484
 20
18.720517
 30
0.0
 10
51.828136
 20
19.090429
 30
0.0
 10
52.500002
 20
19.226073
 30
0.0
 10
53.171866
 20
19.090429
 30
0.0
 10
53.720520
 20
18.720517
 30
0.0
 10
54.090429
 20
18.171866
 30
0.0
 10
54.226073
 20
17.499999
 30
0.0
  0
LWPOLYLINE
  5
132
100
AcDbEntity
  8
Layer_1
 62
7
100
AcDbPolyline
 90
17
 70
1
 10
54.226073
 20
24.500002
 30
0.0
 10
54.090429
 20
23.828138
 30
0.0
 10
53.720517
 20
23.279487
 30
0.0
 10
53.171866
 20
22.909576
 30
0.0
 10
52.500002
 20
22.773931
 30
0.0
 10
51.828136
 20
22.909573
 30
0.0
 10
51.279484
 20
23.279484
 30
0.0
 10
50.909573
 20
23.828138
 30
0.0
 10
50.773928
 20
24.500002
 30
0.0
 10
50.909570
 20
25.171869
 30
0.0
 10
51.279484
 20
25.720520
 30
0.0
 10
51.828136
 20
26.090432
 30
0.0
 10
52.500002
 20
26.226076
 30
0.0
 10
53.171866
 20
26.090432
 30
0.0
 10
53.720520
 20
25.720520
 30
0.0
 10
54.090432
 20
25.171869
 30
0.0
 10
54.226073
 20
24.500002
 30
0.0
  0
LWPOLYLINE
  5
133
100
AcDbEntity
  8
Layer_1
 62
7
100
AcDbPolyline
 90
17
 70
1
 10
54.226073
 20
5.499998
 30
0.0
 10
54.090429
 20
4.828140
 30
0.0
 10
53.720517
 20
4.279472
 30
0.0
 10
53.171866
 20
3.909563
 30
0.0
 10
52.500002
 20
3.773927
 30
0.0
 10
51.828136
 20
3.909563
 30
0.0
 10
51.279484
 20
4.279472
 30
0.0
 10
50.909573
 20
4.828140
 30
0.0
 10
50.773928
 20
5.499998
 30
0.0
 10
50.909573
 20
6.171856
 30
0.0
 10
51.279484
 20
6.720524
 30
0.0
 10
51.828136
 20
7.090433
 30
0.0
 10
52.500002
 20
7.226069
 30
0.0
 10
53.171866
 20
7.090433
 30
0.0
 10
53.720520
 20
6.720524
 30
0.0
 10
54.090432
 20
6.171856
 30
0.0
 10
54.226073
 20
5.499998
 30
0.0
  0
LWPOLYLINE
  5
134
100
AcDbEntity
  8
Layer_1
 62
7
100
AcDbPolyline
 90
17
 70
1
 10
54.226073
 20
36.499995
 30
0.0
 10
54.090432
 20
35.828129
 30
0.0
 10
53.720520
 20
35.279477
 30
0.0
 10
53.171866
 20
34.909566
 30
0.0
 10
52.500002
 20
34.773921
 30
0.0
 10
51.828136
 20
34.909563
 30
0.0
 10
51.279484
 20
35.279477
 30
0.0
 10
50.909573
 20
35.828129
 30
0.0
 10
50.773928
 20
36.499995
 30
0.0
 10
50.909573
 20
37.171859
 30
0.0
 10
51.279484
 20
37.720513
 30
0.0
 10
51.828136
 20
38.090425
 30
0.0
 10
52.500002
 20
38.226066
 30
0.0
 10
53.171866
 20
38.090422
 30
0.0
 10
53.720517
 20
37.720510
 30
0.0
 10
54.090429
 20
37.171859
 30
0.0
 10
54.226073
 20
36.499995
 30
0.0
  0
LWPOLYLINE
  5
135
100
AcDbEntity
  8
Layer_1
 62
7
100
AcDbPolyline
 90
17
 70
1
 10
59.726074
 20
11.499986
 30
0.0
 10
59.590429
 20
10.828128
 30
0.0
 10
59.220518
 20
10.279460
 30
0.0
 10
58.671866
 20
9.909551
 30
0.0
 10
58.000002
 20
9.773915
 30
0.0
 10
57.328136
 20
9.909551
 30
0.0
 10
56.779485
 20
10.279460
 30
0.0
 10
56.409573
 20
10.828128
 30
0.0
 10
56.273929
 20
11.499986
 30
0.0
 10
56.409573
 20
12.171844
 30
0.0
 10
56.779485
 20
12.720512
 30
0.0
 10
57.328136
 20
13.090421
 30
0.0
 10
58.000002
 20
13.226057
 30
0.0
 10
58.671866
 20
13.090421
 30
0.0
 10
59.220520
 20
12.720512
 30
0.0
 10
59.590432
 20
12.171844
 30
0.0
 10
59.726074
 20
11.499986
 30
0.0
  0
LWPOLYLINE
  5
136
100
AcDbEntity
  8
Layer_1
 62
7
100
AcDbPolyline
 90
17
 70
1
 10
59.726074
 20
30.499999
 30
0.0
 10
59.590432
 20
29.828132
 30
0.0
 10
59.220520
 20
29.279481
 30
0.0
 10
58.671866
 20
28.909569
 30
0.0
 10
58.000002
 20
28.773925
 30
0.0
 10
57.328136
 20
28.909566
 30
0.0
 10
56.779485
 20
29.279481
 30
0.0
 10
56.409573
 20
29.828132
 30
0.0
 10
56.273929
 20
30.499999
 30
0.0
 10
56.409573
 20
31.171865
 30
0.0
 10
56.779485
 20
31.720517
 30
0.0
 10
57.328136
 20
32.090428
 30
0.0
 10
58.000002
 20
32.226073
 30
0.0
 10
58.671866
 20
32.090428
 30
0.0
 10
59.220520
 20
31.720517
 30
0.0
 10
59.590429
 20
31.171865
 30
0.0
 10
59.726074
 20
30.499999
 30
0.0
  0
LWPOLYLINE
  5
137
100
AcDbEntity
  8
Layer_1
 62
7
100
AcDbPolyline
 90
17
 70
1
 10
59.726074
 20
17.499999
 30
0.0
 10
59.590432
 20
16.828133
 30
0.0
 10
59.220520
 20
16.279481
 30
0.0
 10
58.671866
 20
15.909570
 30
0.0
 10
58.000002
 20
15.773925
 30
0.0
 10
57.328136
 20
15.909567
 30
0.0
 10
56.779485
 20
16.279481
 30
0.0
 10
56.409573
 20
16.828133
 30
0.0
 10
56.273929
 20
17.499999
 30
0.0
 10
56.409573
 20
18.171866
 30
0.0
 10
56.779485
 20
18.720517
 30
0.0
 10
57.328136
 20
19.090429
 30
0.0
 10
58.000002
 20
19.226073
 30
0.0
 10
58.671866
 20
19.090429
 30
0.0
 10
59.220520
 20
18.720517
 30
0.0
 10
59.590429
 20
18.171866
 30
0.0
 10
59.726074
 20
17.499999
 30
0.0
  0
LWPOLYLINE
  5
138
100
AcDbEntity
  8
Layer_1
 62
7
100
AcDbPolyline
 90
17
 70
1
 10
59.726074
 20
24.500002
 30
0.0
 10
59.590429
 20
23.828138
 30
0.0
 10
59.220518
 20
23.279487
 30
0.0
 10
58.671866
 20
22.909576
 30
0.0
 10
58.000002
 20
22.773931
 30
0.0
 10
57.328136
 20
22.909573
 30
0.0
 10
56.779485
 20
23.279484
 30
0.0
 10
56.409573
 20
23.828138
 30
0.0
 10
56.273929
 20
24.500002
 30
0.0
 10
56.409570
 20
25.171869
 30
0.0
 10
56.779485
 20
25.720520
 30
0.0
 10
57.328136
 20
26.090432
 30
0.0
 10
58.000002
 20
26.226076
 30
0.0
 10
58.671866
 20
26.090432
 30
0.0
 10
59.220520
 20
25.720520
 30
0.0
 10
59.590432
 20
25.171869
 30
0.0
 10
59.726074
 20
24.500002
 30
0.0
  0
LWPOLYLINE
  5
139
100
AcDbEntity
  8
Layer_1
 62
7
100
AcDbPolyline
 90
17
 70
1
 10
59.726074
 20
5.499998
 30
0.0
 10
59.590429
 20
4.828140
 30
0.0
 10
59.220518
 20
4.279472
 30
0.0
 10
58.671866
 20
3.909563
 30
0.0
 10
58.000002
 20
3.773927
 30
0.0
 10
57.328136
 20
3.909563
 30
0.0
 10
56.779485
 20
4.279472
 30
0.0
 10
56.409573
 20
4.828140
 30
0.0
 10
56.273929
 20
5.499998
 30
0.0
 10
56.409573
 20
6.171856
 30
0.0
 10
56.779485
 20
6.720524
 30
0.0
 10
57.328136
 20
7.090433
 30
0.0
 10
58.000002
 20
7.226069
 30
0.0
 10
58.671866
 20
7.090433
 30
0.0
 10
59.220520
 20
6.720524
 30
0.0
 10
59.590432
 20
6.171856
 30
0.0
 10
59.726074
 20
5.499998
 30
0.0
  0
LWPOLYLINE
  5
13a
100
AcDbEntity
  8
Layer_1
 62
7
100
AcDbPolyline
 90
17
 70
1
 10
59.726074
 20
36.499995
 30
0.0
 10
59.590432
 20
35.828129
 30
0.0
 10
59.220520
 20
35.279477
 30
0.0
 10
58.671866
 20
34.909566
 30
0.0
 10
58.000002
 20
34.773921
 30
0.0
 10
57.328136
 20
34.909563
 30
0.0
 10
56.779485
 20
35.279477
 30
0.0
 10
56.409573
 20
35.828129
 30
0.0
 10
56.273929
 20
36.499995
 30
0.0
 10
56.409573
 20
37.171859
 30
0.0
 10
56.779485
 20
37.720513
 30
0.0
 10
57.328136
 20
38.090425
 30
0.0
 10
58.000002
 20
38.226066
 30
0.0
 10
58.671866
 20
38.090422
 30
0.0
 10
59.220518
 20
37.720510
 30
0.0
 10
59.590429
 20
37.171859
 30
0.0
 10
59.726074
 20
36.499995
 30
0.0
  0
LWPOLYLINE
  5
13b
100
AcDbEntity
  8
Layer_1
 62
7
100
AcDbPolyline
 90
17
 70
1
 10
65.726073
 20
11.499986
 30
0.0
 10
65.590428
 20
10.828128
 30
0.0
 10
65.220517
 20
10.279460
 30
0.0
 10
64.671866
 20
9.909551
 30
0.0
 10
64.000002
 20
9.773915
 30
0.0
 10
63.328135
 20
9.909551
 30
0.0
 10
62.779484
 20
10.279460
 30
0.0
 10
62.409572
 20
10.828128
 30
0.0
 10
62.273928
 20
11.499986
 30
0.0
 10
62.409572
 20
12.171844
 30
0.0
 10
62.779484
 20
12.720512
 30
0.0
 10
63.328135
 20
13.090421
 30
0.0
 10
64.000002
 20
13.226057
 30
0.0
 10
64.671866
 20
13.090421
 30
0.0
 10
65.220520
 20
12.720512
 30
0.0
 10
65.590431
 20
12.171844
 30
0.0
 10
65.726073
 20
11.499986
 30
0.0
  0
LWPOLYLINE
  5
13c
100
AcDbEntity
  8
Layer_1
 62
7
100
AcDbPolyline
 90
17
 70
1
 10
65.726073
 20
30.499999
 30
0.0
 10
65.590431
 20
29.828132
 30
0.0
 10
65.220520
 20
29.279481
 30
0.0
 10
64.671866
 20
28.909569
 30
0.0
 10
64.000002
 20
28.773925
 30
0.0
 10
63.328135
 20
28.909566
 30
0.0
 10
62.779484
 20
29.279481
 30
0.0
 10
62.409572
 20
29.828132
 30
0.0
 10
62.273928
 20
30.499999
 30
0.0
 10
62.409572
 20
31.171865
 30
0.0
 10
62.779484
 20
31.720517
 30
0.0
 10
63.328135
 20
32.090428
 30
0.0
 10
64.000002
 20
32.226073
 30
0.0
 10
64.671866
 20
32.090428
 30
0.0
 10
65.220520
 20
31.720517
 30
0.0
 10
65.590428
 20
31.171865
 30
0.0
 10
65.726073
 20
30.499999
 30
0.0
  0
LWPOLYLINE
  5
13d
100
AcDbEntity
  8
Layer_1
 62
7
100
AcDbPolyline
 90
17
 70
1
 10
65.726073
 20
17.499999
 30
0.0
 10
65.590431
 20
16.828133
 30
0.0
 10
65.220520
 20
16.279481
 30
0.0
 10
64.671866
 20
15.909570
 30
0.0
 10
64.000002
 20
15.773925
 30
0.0
 10
63.328135
 20
15.909567
 30
0.0
 10
62.779484
 20
16.279481
 30
0.0
 10
62.409572
 20
16.828133
 30
0.0
 10
62.273928
 20
17.499999
 30
0.0
 10
62.409572
 20
18.171866
 30
0.0
 10
62.779484
 20
18.720517
 30
0.0
 10
63.328135
 20
19.090429
 30
0.0
 10
64.000002
 20
19.226073
 30
0.0
 10
64.671866
 20
19.090429
 30
0.0
 10
65.220520
 20
18.720517
 30
0.0
 10
65.590428
 20
18.171866
 30
0.0
 10
65.726073
 20
17.499999
 30
0.0
  0
LWPOLYLINE
  5
13e
100
AcDbEntity
  8
Layer_1
 62
7
100
AcDbPolyline
 90
17
 70
1
 10
65.726073
 20
24.500002
 30
0.0
 10
65.590428
 20
23.828138
 30
0.0
 10
65.220517
 20
23.279487
 30
0.0
 10
64.671866
 20
22.909576
 30
0.0
 10
64.000002
 20
22.773931
 30
0.0
 10
63.328135
 20
22.909573
 30
0.0
 10
62.779484
 20
23.279484
 30
0.0
 10
62.409572
 20
23.828138
 30
0.0
 10
62.273928
 20
24.500002
 30
0.0
 10
62.409569
 20
25.171869
 30
0.0
 10
62.779484
 20
25.720520
 30
0.0
 10
63.328135
 20
26.090432
 30
0.0
 10
64.000002
 20
26.226076
 30
0.0
 10
64.671866
 20
26.090432
 30
0.0
 10
65.220520
 20
25.720520
 30
0.0
 10
65.590431
 20
25.171869
 30
0.0
 10
65.726073
 20
24.500002
 30
0.0
  0
LWPOLYLINE
  5
13f
100
AcDbEntity
  8
Layer_1
 62
7
100
AcDbPolyline
 90
17
 70
1
 10
65.726073
 20
5.499998
 30
0.0
 10
65.590428
 20
4.828140
 30
0.0
 10
65.220517
 20
4.279472
 30
0.0
 10
64.671866
 20
3.909563
 30
0.0
 10
64.000002
 20
3.773927
 30
0.0
 10
63.328135
 20
3.909563
 30
0.0
 10
62.779484
 20
4.279472
 30
0.0
 10
62.409572
 20
4.828140
 30
0.0
 10
62.273928
 20
5.499998
 30
0.0
 10
62.409572
 20
6.171856
 30
0.0
 10
62.779484
 20
6.720524
 30
0.0
 10
63.328135
 20
7.090433
 30
0.0
 10
64.000002
 20
7.226069
 30
0.0
 10
64.671866
 20
7.090433
 30
0.0
 10
65.220520
 20
6.720524
 30
0.0
 10
65.590431
 20
6.171856
 30
0.0
 10
65.726073
 20
5.499998
 30
0.0
  0
LWPOLYLINE
  5
140
100
AcDbEntity
  8
Layer_1
 62
7
100
AcDbPolyline
 90
17
 70
1
 10
65.726073
 20
36.499995
 30
0.0
 10
65.590431
 20
35.828129
 30
0.0
 10
65.220520
 20
35.279477
 30
0.0
 10
64.671866
 20
34.909566
 30
0.0
 10
64.000002
 20
34.773921
 30
0.0
 10
63.328135
 20
34.909563
 30
0.0
 10
62.779484
 20
35.279477
 30
0.0
 10
62.409572
 20
35.828129
 30
0.0
 10
62.273928
 20
36.499995
 30
0.0
 10
62.409572
 20
37.171859
 30
0.0
 10
62.779484
 20
37.720513
 30
0.0
 10
63.328135
 20
38.090425
 30
0.0
 10
64.000002
 20
38.226066
 30
0.0
 10
64.671866
 20
38.090422
 30
0.0
 10
65.220517
 20
37.720510
 30
0.0
 10
65.590428
 20
37.171859
 30
0.0
 10
65.726073
 20
36.499995
 30
0.0
  0
LWPOLYLINE
  5
141
100
AcDbEntity
  8
Layer_1
 62
7
100
AcDbPolyline
 90
17
 70
1
 10
71.726075
 20
11.499986
 30
0.0
 10
71.590431
 20
10.828128
 30
0.0
 10
71.220519
 20
10.279460
 30
0.0
 10
70.671868
 20
9.909551
 30
0.0
 10
70.000001
 20
9.773915
 30
0.0
 10
69.328134
 20
9.909551
 30
0.0
 10
68.779483
 20
10.279460
 30
0.0
 10
68.409572
 20
10.828128
 30
0.0
 10
68.273927
 20
11.499986
 30
0.0
 10
68.409572
 20
12.171844
 30
0.0
 10
68.779483
 20
12.720512
 30
0.0
 10
69.328134
 20
13.090421
 30
0.0
 10
70.000001
 20
13.226057
 30
0.0
 10
70.671868
 20
13.090421
 30
0.0
 10
71.220519
 20
12.720512
 30
0.0
 10
71.590431
 20
12.171844
 30
0.0
 10
71.726075
 20
11.499986
 30
0.0
  0
LWPOLYLINE
  5
142
100
AcDbEntity
  8
Layer_1
 62
7
100
AcDbPolyline
 90
17
 70
1
 10
71.726075
 20
30.499999
 30
0.0
 10
71.590431
 20
29.828132
 30
0.0
 10
71.220519
 20
29.279481
 30
0.0
 10
70.671868
 20
28.909569
 30
0.0
 10
70.000001
 20
28.773925
 30
0.0
 10
69.328134
 20
28.909569
 30
0.0
 10
68.779483
 20
29.279481
 30
0.0
 10
68.409572
 20
29.828132
 30
0.0
 10
68.273927
 20
30.499999
 30
0.0
 10
68.409572
 20
31.171865
 30
0.0
 10
68.779483
 20
31.720517
 30
0.0
 10
69.328134
 20
32.090428
 30
0.0
 10
70.000001
 20
32.226073
 30
0.0
 10
70.671868
 20
32.090428
 30
0.0
 10
71.220519
 20
31.720517
 30
0.0
 10
71.590431
 20
31.171865
 30
0.0
 10
71.726075
 20
30.499999
 30
0.0
  0
LWPOLYLINE
  5
143
100
AcDbEntity
  8
Layer_1
 62
7
100
AcDbPolyline
 90
17
 70
1
 10
71.726075
 20
17.499999
 30
0.0
 10
71.590431
 20
16.828133
 30
0.0
 10
71.220519
 20
16.279481
 30
0.0
 10
70.671868
 20
15.909570
 30
0.0
 10
70.000001
 20
15.773925
 30
0.0
 10
69.328134
 20
15.909570
 30
0.0
 10
68.779483
 20
16.279481
 30
0.0
 10
68.409572
 20
16.828133
 30
0.0
 10
68.273927
 20
17.499999
 30
0.0
 10
68.409572
 20
18.171866
 30
0.0
 10
68.779483
 20
18.720517
 30
0.0
 10
69.328134
 20
19.090429
 30
0.0
 10
70.000001
 20
19.226073
 30
0.0
 10
70.671868
 20
19.090429
 30
0.0
 10
71.220519
 20
18.720517
 30
0.0
 10
71.590431
 20
18.171866
 30
0.0
 10
71.726075
 20
17.499999
 30
0.0
  0
LWPOLYLINE
  5
144
100
AcDbEntity
  8
Layer_1
 62
7
100
AcDbPolyline
 90
17
 70
1
 10
71.726075
 20
24.500002
 30
0.0
 10
71.590431
 20
23.828138
 30
0.0
 10
71.220519
 20
23.279484
 30
0.0
 10
70.671868
 20
22.909573
 30
0.0
 10
70.000001
 20
22.773931
 30
0.0
 10
69.328134
 20
22.909576
 30
0.0
 10
68.779483
 20
23.279484
 30
0.0
 10
68.409572
 20
23.828138
 30
0.0
 10
68.273927
 20
24.500002
 30
0.0
 10
68.409569
 20
25.171869
 30
0.0
 10
68.779483
 20
25.720520
 30
0.0
 10
69.328134
 20
26.090432
 30
0.0
 10
70.000001
 20
26.226076
 30
0.0
 10
70.671868
 20
26.090432
 30
0.0
 10
71.220519
 20
25.720520
 30
0.0
 10
71.590433
 20
25.171869
 30
0.0
 10
71.726075
 20
24.500002
 30
0.0
  0
LWPOLYLINE
  5
145
100
AcDbEntity
  8
Layer_1
 62
7
100
AcDbPolyline
 90
17
 70
1
 10
71.726075
 20
5.499998
 30
0.0
 10
71.590431
 20
4.828140
 30
0.0
 10
71.220519
 20
4.279472
 30
0.0
 10
70.671868
 20
3.909563
 30
0.0
 10
70.000001
 20
3.773927
 30
0.0
 10
69.328134
 20
3.909563
 30
0.0
 10
68.779483
 20
4.279472
 30
0.0
 10
68.409572
 20
4.828140
 30
0.0
 10
68.273927
 20
5.499998
 30
0.0
 10
68.409572
 20
6.171856
 30
0.0
 10
68.779483
 20
6.720524
 30
0.0
 10
69.328134
 20
7.090433
 30
0.0
 10
70.000001
 20
7.226069
 30
0.0
 10
70.671868
 20
7.090433
 30
0.0
 10
71.220519
 20
6.720524
 30
0.0
 10
71.590431
 20
6.171856
 30
0.0
 10
71.726075
 20
5.499998
 30
0.0
  0
LWPOLYLINE
  5
146
100
AcDbEntity
  8
Layer_1
 62
7
100
AcDbPolyline
 90
17
 70
1
 10
71.726075
 20
36.499995
 30
0.0
 10
71.590431
 20
35.828129
 30
0.0
 10
71.220519
 20
35.279477
 30
0.0
 10
70.671868
 20
34.909566
 30
0.0
 10
70.000001
 20
34.773921
 30
0.0
 10
69.328134
 20
34.909566
 30
0.0
 10
68.779483
 20
35.279477
 30
0.0
 10
68.409572
 20
35.828129
 30
0.0
 10
68.273927
 20
36.499995
 30
0.0
 10
68.409572
 20
37.171859
 30
0.0
 10
68.779483
 20
37.720513
 30
0.0
 10
69.328134
 20
38.090425
 30
0.0
 10
70.000001
 20
38.226066
 30
0.0
 10
70.671868
 20
38.090422
 30
0.0
 10
71.220519
 20
37.720513
 30
0.0
 10
71.590431
 20
37.171859
 30
0.0
 10
71.726075
 20
36.499995
 30
0.0
  0
LWPOLYLINE
  5
147
100
AcDbEntity
  8
Layer_1
 62
7
100
AcDbPolyline
 90
17
 70
1
 10
77.726074
 20
11.499986
 30
0.0
 10
77.590430
 20
10.828128
 30
0.0
 10
77.220518
 20
10.279460
 30
0.0
 10
76.671867
 20
9.909551
 30
0.0
 10
76.000000
 20
9.773915
 30
0.0
 10
75.328134
 20
9.909551
 30
0.0
 10
74.779482
 20
10.279460
 30
0.0
 10
74.409571
 20
10.828128
 30
0.0
 10
74.273926
 20
11.499986
 30
0.0
 10
74.409571
 20
12.171844
 30
0.0
 10
74.779482
 20
12.720512
 30
0.0
 10
75.328134
 20
13.090421
 30
0.0
 10
76.000000
 20
13.226057
 30
0.0
 10
76.671867
 20
13.090421
 30
0.0
 10
77.220518
 20
12.720512
 30
0.0
 10
77.590430
 20
12.171844
 30
0.0
 10
77.726074
 20
11.499986
 30
0.0
  0
LWPOLYLINE
  5
148
100
AcDbEntity
  8
Layer_1
 62
7
100
AcDbPolyline
 90
17
 70
1
 10
77.726074
 20
30.499999
 30
0.0
 10
77.590430
 20
29.828132
 30
0.0
 10
77.220518
 20
29.279481
 30
0.0
 10
76.671867
 20
28.909569
 30
0.0
 10
76.000000
 20
28.773925
 30
0.0
 10
75.328134
 20
28.909569
 30
0.0
 10
74.779482
 20
29.279481
 30
0.0
 10
74.409571
 20
29.828132
 30
0.0
 10
74.273926
 20
30.499999
 30
0.0
 10
74.409571
 20
31.171865
 30
0.0
 10
74.779482
 20
31.720517
 30
0.0
 10
75.328134
 20
32.090428
 30
0.0
 10
76.000000
 20
32.226073
 30
0.0
 10
76.671867
 20
32.090428
 30
0.0
 10
77.220518
 20
31.720517
 30
0.0
 10
77.590430
 20
31.171865
 30
0.0
 10
77.726074
 20
30.499999
 30
0.0
  0
LWPOLYLINE
  5
149
100
AcDbEntity
  8
Layer_1
 62
7
100
AcDbPolyline
 90
17
 70
1
 10
77.726074
 20
17.499999
 30
0.0
 10
77.590430
 20
16.828133
 30
0.0
 10
77.220518
 20
16.279481
 30
0.0
 10
76.671867
 20
15.909570
 30
0.0
 10
76.000000
 20
15.773925
 30
0.0
 10
75.328134
 20
15.909570
 30
0.0
 10
74.779482
 20
16.279481
 30
0.0
 10
74.409571
 20
16.828133
 30
0.0
 10
74.273926
 20
17.499999
 30
0.0
 10
74.409571
 20
18.171866
 30
0.0
 10
74.779482
 20
18.720517
 30
0.0
 10
75.328134
 20
19.090429
 30
0.0
 10
76.000000
 20
19.226073
 30
0.0
 10
76.671867
 20
19.090429
 30
0.0
 10
77.220518
 20
18.720517
 30
0.0
 10
77.590430
 20
18.171866
 30
0.0
 10
77.726074
 20
17.499999
 30
0.0
  0
LWPOLYLINE
  5
14a
100
AcDbEntity
  8
Layer_1
 62
7
100
AcDbPolyline
 90
17
 70
1
 10
77.726074
 20
24.500002
 30
0.0
 10
77.590430
 20
23.828138
 30
0.0
 10
77.220518
 20
23.279484
 30
0.0
 10
76.671867
 20
22.909573
 30
0.0
 10
76.000000
 20
22.773931
 30
0.0
 10
75.328134
 20
22.909576
 30
0.0
 10
74.779482
 20
23.279484
 30
0.0
 10
74.409571
 20
23.828138
 30
0.0
 10
74.273926
 20
24.500002
 30
0.0
 10
74.409568
 20
25.171869
 30
0.0
 10
74.779482
 20
25.720520
 30
0.0
 10
75.328134
 20
26.090432
 30
0.0
 10
76.000000
 20
26.226076
 30
0.0
 10
76.671867
 20
26.090432
 30
0.0
 10
77.220518
 20
25.720520
 30
0.0
 10
77.590433
 20
25.171869
 30
0.0
 10
77.726074
 20
24.500002
 30
0.0
  0
LWPOLYLINE
  5
14b
100
AcDbEntity
  8
Layer_1
 62
7
100
AcDbPolyline
 90
17
 70
1
 10
77.726074
 20
5.499998
 30
0.0
 10
77.590430
 20
4.828140
 30
0.0
 10
77.220518
 20
4.279472
 30
0.0
 10
76.671867
 20
3.909563
 30
0.0
 10
76.000000
 20
3.773927
 30
0.0
 10
75.328134
 20
3.909563
 30
0.0
 10
74.779482
 20
4.279472
 30
0.0
 10
74.409571
 20
4.828140
 30
0.0
 10
74.273926
 20
5.499998
 30
0.0
 10
74.409571
 20
6.171856
 30
0.0
 10
74.779482
 20
6.720524
 30
0.0
 10
75.328134
 20
7.090433
 30
0.0
 10
76.000000
 20
7.226069
 30
0.0
 10
76.671867
 20
7.090433
 30
0.0
 10
77.220518
 20
6.720524
 30
0.0
 10
77.590430
 20
6.171856
 30
0.0
 10
77.726074
 20
5.499998
 30
0.0
  0
LWPOLYLINE
  5
14c
100
AcDbEntity
  8
Layer_1
 62
7
100
AcDbPolyline
 90
17
 70
1
 10
77.726074
 20
36.499995
 30
0.0
 10
77.590430
 20
35.828129
 30
0.0
 10
77.220518
 20
35.279477
 30
0.0
 10
76.671867
 20
34.909566
 30
0.0
 10
76.000000
 20
34.773921
 30
0.0
 10
75.328134
 20
34.909566
 30
0.0
 10
74.779482
 20
35.279477
 30
0.0
 10
74.409571
 20
35.828129
 30
0.0
 10
74.273926
 20
36.499995
 30
0.0
 10
74.409571
 20
37.171859
 30
0.0
 10
74.779482
 20
37.720513
 30
0.0
 10
75.328134
 20
38.090425
 30
0.0
 10
76.000000
 20
38.226066
 30
0.0
 10
76.671867
 20
38.090422
 30
0.0
 10
77.220518
 20
37.720513
 30
0.0
 10
77.590430
 20
37.171859
 30
0.0
 10
77.726074
 20
36.499995
 30
0.0
  0
LWPOLYLINE
  5
14d
100
AcDbEntity
  8
Layer_1
 62
7
100
AcDbPolyline
 90
17
 70
1
 10
83.726068
 20
11.499986
 30
0.0
 10
83.590423
 20
10.828128
 30
0.0
 10
83.220512
 20
10.279460
 30
0.0
 10
82.671861
 20
9.909551
 30
0.0
 10
81.999997
 20
9.773915
 30
0.0
 10
81.328130
 20
9.909551
 30
0.0
 10
80.779479
 20
10.279460
 30
0.0
 10
80.409567
 20
10.828128
 30
0.0
 10
80.273923
 20
11.499986
 30
0.0
 10
80.409567
 20
12.171844
 30
0.0
 10
80.779479
 20
12.720512
 30
0.0
 10
81.328130
 20
13.090421
 30
0.0
 10
81.999997
 20
13.226057
 30
0.0
 10
82.671861
 20
13.090421
 30
0.0
 10
83.220515
 20
12.720512
 30
0.0
 10
83.590426
 20
12.171844
 30
0.0
 10
83.726068
 20
11.499986
 30
0.0
  0
LWPOLYLINE
  5
14e
100
AcDbEntity
  8
Layer_1
 62
7
100
AcDbPolyline
 90
17
 70
1
 10
83.726068
 20
30.499999
 30
0.0
 10
83.590426
 20
29.828132
 30
0.0
 10
83.220515
 20
29.279481
 30
0.0
 10
82.671861
 20
28.909569
 30
0.0
 10
81.999997
 20
28.773925
 30
0.0
 10
81.328130
 20
28.909566
 30
0.0
 10
80.779479
 20
29.279481
 30
0.0
 10
80.409567
 20
29.828132
 30
0.0
 10
80.273923
 20
30.499999
 30
0.0
 10
80.409567
 20
31.171865
 30
0.0
 10
80.779479
 20
31.720517
 30
0.0
 10
81.328130
 20
32.090428
 30
0.0
 10
81.999997
 20
32.226073
 30
0.0
 10
82.671861
 20
32.090428
 30
0.0
 10
83.220515
 20
31.720517
 30
0.0
 10
83.590423
 20
31.171865
 30
0.0
 10
83.726068
 20
30.499999
 30
0.0
  0
LWPOLYLINE
  5
14f
100
AcDbEntity
  8
Layer_1
 62
7
100
AcDbPolyline
 90
17
 70
1
 10
83.726068
 20
17.499999
 30
0.0
 10
83.590426
 20
16.828133
 30
0.0
 10
83.220515
 20
16.279481
 30
0.0
 10
82.671861
 20
15.909570
 30
0.0
 10
81.999997
 20
15.773925
 30
0.0
 10
81.328130
 20
15.909567
 30
0.0
 10
80.779479
 20
16.279481
 30
0.0
 10
80.409567
 20
16.828133
 30
0.0
 10
80.273923
 20
17.499999
 30
0.0
 10
80.409567
 20
18.171866
 30
0.0
 10
80.779479
 20
18.720517
 30
0.0
 10
81.328130
 20
19.090429
 30
0.0
 10
81.999997
 20
19.226073
 30
0.0
 10
82.671861
 20
19.090429
 30
0.0
 10
83.220515
 20
18.720517
 30
0.0
 10
83.590423
 20
18.171866
 30
0.0
 10
83.726068
 20
17.499999
 30
0.0
  0
LWPOLYLINE
  5
150
100
AcDbEntity
  8
Layer_1
 62
7
100
AcDbPolyline
 90
17
 70
1
 10
83.726068
 20
24.500002
 30
0.0
 10
83.590423
 20
23.828138
 30
0.0
 10
83.220512
 20
23.279487
 30
0.0
 10
82.671861
 20
22.909576
 30
0.0
 10
81.999997
 20
22.773931
 30
0.0
 10
81.328130
 20
22.909573
 30
0.0
 10
80.779479
 20
23.279484
 30
0.0
 10
80.409567
 20
23.828138
 30
0.0
 10
80.273923
 20
24.500002
 30
0.0
 10
80.409565
 20
25.171869
 30
0.0
 10
80.779479
 20
25.720520
 30
0.0
 10
81.328130
 20
26.090432
 30
0.0
 10
81.999997
 20
26.226076
 30
0.0
 10
82.671861
 20
26.090432
 30
0.0
 10
83.220515
 20
25.720520
 30
0.0
 10
83.590426
 20
25.171869
 30
0.0
 10
83.726068
 20
24.500002
 30
0.0
  0
LWPOLYLINE
  5
151
100
AcDbEntity
  8
Layer_1
 62
7
100
AcDbPolyline
 90
17
 70
1
 10
83.726068
 20
5.499998
 30
0.0
 10
83.590423
 20
4.828140
 30
0.0
 10
83.220512
 20
4.279472
 30
0.0
 10
82.671861
 20
3.909563
 30
0.0
 10
81.999997
 20
3.773927
 30
0.0
 10
81.328130
 20
3.909563
 30
0.0
 10
80.779479
 20
4.279472
 30
0.0
 10
80.409567
 20
4.828140
 30
0.0
 10
80.273923
 20
5.499998
 30
0.0
 10
80.409567
 20
6.171856
 30
0.0
 10
80.779479
 20
6.720524
 30
0.0
 10
81.328130
 20
7.090433
 30
0.0
 10
81.999997
 20
7.226069
 30
0.0
 10
82.671861
 20
7.090433
 30
0.0
 10
83.220515
 20
6.720524
 30
0.0
 10
83.590426
 20
6.171856
 30
0.0
 10
83.726068
 20
5.499998
 30
0.0
  0
LWPOLYLINE
  5
152
100
AcDbEntity
  8
Layer_1
 62
7
100
AcDbPolyline
 90
17
 70
1
 10
83.726068
 20
36.499995
 30
0.0
 10
83.590426
 20
35.828129
 30
0.0
 10
83.220515
 20
35.279477
 30
0.0
 10
82.671861
 20
34.909566
 30
0.0
 10
81.999997
 20
34.773921
 30
0.0
 10
81.328130
 20
34.909563
 30
0.0
 10
80.779479
 20
35.279477
 30
0.0
 10
80.409567
 20
35.828129
 30
0.0
 10
80.273923
 20
36.499995
 30
0.0
 10
80.409567
 20
37.171859
 30
0.0
 10
80.779479
 20
37.720513
 30
0.0
 10
81.328130
 20
38.090425
 30
0.0
 10
81.999997
 20
38.226066
 30
0.0
 10
82.671861
 20
38.090422
 30
0.0
 10
83.220512
 20
37.720510
 30
0.0
 10
83.590423
 20
37.171859
 30
0.0
 10
83.726068
 20
36.499995
 30
0.0
  0
LWPOLYLINE
  5
153
100
AcDbEntity
  8
Layer_1
 62
7
100
AcDbPolyline
 90
17
 70
1
 10
89.726064
 20
11.499986
 30
0.0
 10
89.590420
 20
10.828128
 30
0.0
 10
89.220508
 20
10.279460
 30
0.0
 10
88.671857
 20
9.909551
 30
0.0
 10
87.999990
 20
9.773915
 30
0.0
 10
87.328127
 20
9.909551
 30
0.0
 10
86.779475
 20
10.279460
 30
0.0
 10
86.409564
 20
10.828128
 30
0.0
 10
86.273919
 20
11.499986
 30
0.0
 10
86.409561
 20
12.171844
 30
0.0
 10
86.779472
 20
12.720512
 30
0.0
 10
87.328127
 20
13.090421
 30
0.0
 10
87.999990
 20
13.226057
 30
0.0
 10
88.671857
 20
13.090421
 30
0.0
 10
89.220508
 20
12.720512
 30
0.0
 10
89.590420
 20
12.171844
 30
0.0
 10
89.726064
 20
11.499986
 30
0.0
  0
LWPOLYLINE
  5
154
100
AcDbEntity
  8
Layer_1
 62
7
100
AcDbPolyline
 90
17
 70
1
 10
89.726064
 20
30.499999
 30
0.0
 10
89.590420
 20
29.828132
 30
0.0
 10
89.220508
 20
29.279481
 30
0.0
 10
88.671857
 20
28.909569
 30
0.0
 10
87.999990
 20
28.773925
 30
0.0
 10
87.328127
 20
28.909569
 30
0.0
 10
86.779472
 20
29.279481
 30
0.0
 10
86.409561
 20
29.828132
 30
0.0
 10
86.273919
 20
30.499999
 30
0.0
 10
86.409564
 20
31.171865
 30
0.0
 10
86.779472
 20
31.720517
 30
0.0
 10
87.328127
 20
32.090428
 30
0.0
 10
87.999990
 20
32.226073
 30
0.0
 10
88.671857
 20
32.090431
 30
0.0
 10
89.220508
 20
31.720517
 30
0.0
 10
89.590420
 20
31.171865
 30
0.0
 10
89.726064
 20
30.499999
 30
0.0
  0
LWPOLYLINE
  5
155
100
AcDbEntity
  8
Layer_1
 62
7
100
AcDbPolyline
 90
17
 70
1
 10
89.726064
 20
17.499999
 30
0.0
 10
89.590420
 20
16.828133
 30
0.0
 10
89.220508
 20
16.279481
 30
0.0
 10
88.671857
 20
15.909570
 30
0.0
 10
87.999990
 20
15.773925
 30
0.0
 10
87.328127
 20
15.909570
 30
0.0
 10
86.779472
 20
16.279481
 30
0.0
 10
86.409561
 20
16.828133
 30
0.0
 10
86.273919
 20
17.499999
 30
0.0
 10
86.409564
 20
18.171866
 30
0.0
 10
86.779472
 20
18.720517
 30
0.0
 10
87.328127
 20
19.090429
 30
0.0
 10
87.999990
 20
19.226073
 30
0.0
 10
88.671857
 20
19.090432
 30
0.0
 10
89.220508
 20
18.720517
 30
0.0
 10
89.590420
 20
18.171866
 30
0.0
 10
89.726064
 20
17.499999
 30
0.0
  0
LWPOLYLINE
  5
156
100
AcDbEntity
  8
Layer_1
 62
7
100
AcDbPolyline
 90
17
 70
1
 10
89.726064
 20
24.500002
 30
0.0
 10
89.590420
 20
23.828138
 30
0.0
 10
89.220508
 20
23.279484
 30
0.0
 10
88.671857
 20
22.909573
 30
0.0
 10
87.999990
 20
22.773931
 30
0.0
 10
87.328127
 20
22.909576
 30
0.0
 10
86.779475
 20
23.279487
 30
0.0
 10
86.409564
 20
23.828138
 30
0.0
 10
86.273919
 20
24.500002
 30
0.0
 10
86.409561
 20
25.171869
 30
0.0
 10
86.779472
 20
25.720520
 30
0.0
 10
87.328127
 20
26.090432
 30
0.0
 10
87.999990
 20
26.226076
 30
0.0
 10
88.671857
 20
26.090435
 30
0.0
 10
89.220508
 20
25.720520
 30
0.0
 10
89.590423
 20
25.171869
 30
0.0
 10
89.726064
 20
24.500002
 30
0.0
  0
LWPOLYLINE
  5
157
100
AcDbEntity
  8
Layer_1
 62
7
100
AcDbPolyline
 90
17
 70
1
 10
89.726064
 20
5.499970
 30
0.0
 10
89.590428
 20
4.828083
 30
0.0
 10
89.220517
 20
4.279443
 30
0.0
 10
88.671863
 20
3.909506
 30
0.0
 10
87.999990
 20
3.773870
 30
0.0
 10
87.328118
 20
3.909506
 30
0.0
 10
86.779464
 20
4.279443
 30
0.0
 10
86.409555
 20
4.828083
 30
0.0
 10
86.273919
 20
5.499970
 30
0.0
 10
86.409564
 20
6.171828
 30
0.0
 10
86.779475
 20
6.720496
 30
0.0
 10
87.328127
 20
7.090405
 30
0.0
 10
87.999990
 20
7.226041
 30
0.0
 10
88.671857
 20
7.090405
 30
0.0
 10
89.220508
 20
6.720496
 30
0.0
 10
89.590420
 20
6.171828
 30
0.0
 10
89.726064
 20
5.499970
 30
0.0
  0
LWPOLYLINE
  5
158
100
AcDbEntity
  8
Layer_1
 62
7
100
AcDbPolyline
 90
17
 70
1
 10
89.726064
 20
36.499995
 30
0.0
 10
89.590420
 20
35.828129
 30
0.0
 10
89.220508
 20
35.279477
 30
0.0
 10
88.671857
 20
34.909566
 30
0.0
 10
87.999990
 20
34.773921
 30
0.0
 10
87.328127
 20
34.909566
 30
0.0
 10
86.779472
 20
35.279477
 30
0.0
 10
86.409561
 20
35.828129
 30
0.0
 10
86.273919
 20
36.499995
 30
0.0
 10
86.409564
 20
37.171859
 30
0.0
 10
86.779475
 20
37.720510
 30
0.0
 10
87.328127
 20
38.090422
 30
0.0
 10
87.999990
 20
38.226066
 30
0.0
 10
88.671857
 20
38.090425
 30
0.0
 10
89.220508
 20
37.720513
 30
0.0
 10
89.590420
 20
37.171859
 30
0.0
 10
89.726064
 20
36.499995
 30
0.0
  0
LWPOLYLINE
  5
159
100
AcDbEntity
  8
Layer_1
 62
7
100
AcDbPolyline
 90
17
 70
1
 10
95.726069
 20
11.499986
 30
0.0
 10
95.590425
 20
10.828128
 30
0.0
 10
95.220513
 20
10.279460
 30
0.0
 10
94.671862
 20
9.909551
 30
0.0
 10
93.999995
 20
9.773915
 30
0.0
 10
93.328129
 20
9.909551
 30
0.0
 10
92.779477
 20
10.279460
 30
0.0
 10
92.409566
 20
10.828128
 30
0.0
 10
92.273921
 20
11.499986
 30
0.0
 10
92.409566
 20
12.171844
 30
0.0
 10
92.779477
 20
12.720512
 30
0.0
 10
93.328129
 20
13.090421
 30
0.0
 10
93.999995
 20
13.226057
 30
0.0
 10
94.671862
 20
13.090421
 30
0.0
 10
95.220513
 20
12.720512
 30
0.0
 10
95.590425
 20
12.171844
 30
0.0
 10
95.726069
 20
11.499986
 30
0.0
  0
LWPOLYLINE
  5
15a
100
AcDbEntity
  8
Layer_1
 62
7
100
AcDbPolyline
 90
17
 70
1
 10
95.726069
 20
30.499999
 30
0.0
 10
95.590425
 20
29.828132
 30
0.0
 10
95.220513
 20
29.279481
 30
0.0
 10
94.671862
 20
28.909569
 30
0.0
 10
93.999995
 20
28.773925
 30
0.0
 10
93.328129
 20
28.909569
 30
0.0
 10
92.779477
 20
29.279481
 30
0.0
 10
92.409566
 20
29.828132
 30
0.0
 10
92.273921
 20
30.499999
 30
0.0
 10
92.409566
 20
31.171865
 30
0.0
 10
92.779477
 20
31.720517
 30
0.0
 10
93.328129
 20
32.090428
 30
0.0
 10
93.999995
 20
32.226073
 30
0.0
 10
94.671862
 20
32.090428
 30
0.0
 10
95.220513
 20
31.720517
 30
0.0
 10
95.590425
 20
31.171865
 30
0.0
 10
95.726069
 20
30.499999
 30
0.0
  0
LWPOLYLINE
  5
15b
100
AcDbEntity
  8
Layer_1
 62
7
100
AcDbPolyline
 90
17
 70
1
 10
95.726069
 20
17.499999
 30
0.0
 10
95.590425
 20
16.828133
 30
0.0
 10
95.220513
 20
16.279481
 30
0.0
 10
94.671862
 20
15.909570
 30
0.0
 10
93.999995
 20
15.773925
 30
0.0
 10
93.328129
 20
15.909570
 30
0.0
 10
92.779477
 20
16.279481
 30
0.0
 10
92.409566
 20
16.828133
 30
0.0
 10
92.273921
 20
17.499999
 30
0.0
 10
92.409566
 20
18.171866
 30
0.0
 10
92.779477
 20
18.720517
 30
0.0
 10
93.328129
 20
19.090429
 30
0.0
 10
93.999995
 20
19.226073
 30
0.0
 10
94.671862
 20
19.090429
 30
0.0
 10
95.220513
 20
18.720517
 30
0.0
 10
95.590425
 20
18.171866
 30
0.0
 10
95.726069
 20
17.499999
 30
0.0
  0
LWPOLYLINE
  5
15c
100
AcDbEntity
  8
Layer_1
 62
7
100
AcDbPolyline
 90
17
 70
1
 10
95.726069
 20
24.500002
 30
0.0
 10
95.590425
 20
23.828138
 30
0.0
 10
95.220513
 20
23.279484
 30
0.0
 10
94.671862
 20
22.909573
 30
0.0
 10
93.999995
 20
22.773931
 30
0.0
 10
93.328129
 20
22.909576
 30
0.0
 10
92.779477
 20
23.279484
 30
0.0
 10
92.409566
 20
23.828138
 30
0.0
 10
92.273921
 20
24.500002
 30
0.0
 10
92.409563
 20
25.171869
 30
0.0
 10
92.779477
 20
25.720520
 30
0.0
 10
93.328129
 20
26.090432
 30
0.0
 10
93.999995
 20
26.226076
 30
0.0
 10
94.671862
 20
26.090432
 30
0.0
 10
95.220513
 20
25.720520
 30
0.0
 10
95.590428
 20
25.171869
 30
0.0
 10
95.726069
 20
24.500002
 30
0.0
  0
LWPOLYLINE
  5
15d
100
AcDbEntity
  8
Layer_1
 62
7
100
AcDbPolyline
 90
17
 70
1
 10
4.124997
 20
39.449994
 30
0.0
 10
4.812497
 20
39.449994
 30
0.0
 10
5.499997
 20
39.449994
 30
0.0
 10
6.187497
 20
39.449994
 30
0.0
 10
6.874997
 20
39.449994
 30
0.0
 10
6.874997
 20
37.974993
 30
0.0
 10
6.874997
 20
36.499992
 30
0.0
 10
6.874997
 20
35.024995
 30
0.0
 10
6.874997
 20
33.549994
 30
0.0
 10
6.187497
 20
33.549994
 30
0.0
 10
5.499997
 20
33.549994
 30
0.0
 10
4.812497
 20
33.549994
 30
0.0
 10
4.124997
 20
33.549994
 30
0.0
 10
4.124997
 20
35.024995
 30
0.0
 10
4.124997
 20
36.499992
 30
0.0
 10
4.124997
 20
37.974993
 30
0.0
 10
4.124997
 20
39.449994
 30
0.0
  0
LWPOLYLINE
  5
15e
100
AcDbEntity
  8
Layer_1
 62
7
100
AcDbPolyline
 90
17
 70
1
 10
92.624997
 20
39.449994
 30
0.0
 10
93.312496
 20
39.449994
 30
0.0
 10
93.999998
 20
39.449994
 30
0.0
 10
94.687500
 20
39.449994
 30
0.0
 10
95.374999
 20
39.449994
 30
0.0
 10
95.374999
 20
37.974993
 30
0.0
 10
95.374999
 20
36.499992
 30
0.0
 10
95.374999
 20
35.024995
 30
0.0
 10
95.374999
 20
33.549994
 30
0.0
 10
94.687500
 20
33.549994
 30
0.0
 10
93.999998
 20
33.549994
 30
0.0
 10
93.312496
 20
33.549994
 30
0.0
 10
92.624997
 20
33.549994
 30
0.0
 10
92.624997
 20
35.024995
 30
0.0
 10
92.624997
 20
36.499992
 30
0.0
 10
92.624997
 20
37.974993
 30
0.0
 10
92.624997
 20
39.449994
 30
0.0
  0
LWPOLYLINE
  5
15f
100
AcDbEntity
  8
Layer_1
 62
7
100
AcDbPolyline
 90
17
 70
1
 10
4.124997
 20
8.449982
 30
0.0
 10
4.812497
 20
8.449982
 30
0.0
 10
5.499997
 20
8.449982
 30
0.0
 10
6.187497
 20
8.449982
 30
0.0
 10
6.874997
 20
8.449982
 30
0.0
 10
6.874997
 20
6.974976
 30
0.0
 10
6.874997
 20
5.499998
 30
0.0
 10
6.874997
 20
4.024992
 30
0.0
 10
6.874997
 20
2.549986
 30
0.0
 10
6.187497
 20
2.549986
 30
0.0
 10
5.499997
 20
2.549986
 30
0.0
 10
4.812497
 20
2.549986
 30
0.0
 10
4.124997
 20
2.549986
 30
0.0
 10
4.124997
 20
4.024992
 30
0.0
 10
4.124997
 20
5.499998
 30
0.0
 10
4.124997
 20
6.974976
 30
0.0
 10
4.124997
 20
8.449982
 30
0.0
  0
LWPOLYLINE
  5
160
100
AcDbEntity
  8
Layer_1
 62
7
100
AcDbPolyline
 90
17
 70
1
 10
92.624997
 20
8.449982
 30
0.0
 10
93.312496
 20
8.449982
 30
0.0
 10
93.999998
 20
8.449982
 30
0.0
 10
94.687500
 20
8.449982
 30
0.0
 10
95.374999
 20
8.449982
 30
0.0
 10
95.374999
 20
6.974976
 30
0.0
 10
95.374999
 20
5.499998
 30
0.0
 10
95.374999
 20
4.024992
 30
0.0
 10
95.374999
 20
2.549986
 30
0.0
 10
94.687500
 20
2.549986
 30
0.0
 10
93.999998
 20
2.549986
 30
0.0
 10
93.312496
 20
2.549986
 30
0.0
 10
92.624997
 20
2.549986
 30
0.0
 10
92.624997
 20
4.024992
 30
0.0
 10
92.624997
 20
5.499998
 30
0.0
 10
92.624997
 20
6.974976
 30
0.0
 10
92.624997
 20
8.449982
 30
0.0
  0
ENDSEC
  0
SECTION
  2
OBJECTS
  0
DICTIONARY
  5
C
330
0
100
AcDbDictionary
  3
ACAD_GROUP
350
D
  3
ACAD_MLINESTYLE
350
17
  0
DICTIONARY
  5
D
330
C
100
AcDbDictionary
  0
DICTIONARY
  5
1A
330
C
100
AcDbDictionary
  0
DICTIONARY
  5
17
330
C
100
AcDbDictionary
  3
STANDARD
350
18
  0
DICTIONARY
  5
19
330
C
100
AcDbDictionary
  0
ENDSEC
  0
EOF
