  0
SECTION
  2
HEADER
  9
$ACADVER
  1
AC1014
  9
$HANDSEED
  5
FFFF
  9
$MEASUREMENT
 70
     1
  0
ENDSEC
  0
SECTION
  2
TABLES
  0
TABLE
  2
VPORT
  5
8
330
0
100
AcDbSymbolTable
 70
     4
  0
VPORT
  5
2E
330
8
100
AcDbSymbolTableRecord
100
AcDbViewportTableRecord
  2
*ACTIVE
 70
     0
 10
0.0
 20
0.0
 11
1.0
 21
1.0
 12
210.0
 22
148.5
 13
0.0
 23
0.0
 14
10.0
 24
10.0
 15
10.0
 25
10.0
 16
0.0
 26
0.0
 36
1.0
 17
0.0
 27
0.0
 37
0.0
 40
341.0
 41
1.24
 42
50.0
 43
0.0
 44
0.0
 50
0.0
 51
0.0
 71
     0
 72
   100
 73
     1
 74
     3
 75
     0
 76
     0
 77
     0
 78
     0
  0
ENDTAB
  0
TABLE
  2
LTYPE
  5
5
330
0
100
AcDbSymbolTable
 70
     1
  0
LTYPE
  5
14
330
5
100
AcDbSymbolTableRecord
100
AcDbLinetypeTableRecord
  2
BYBLOCK
 70
     0
  3

 72
    65
 73
     0
 40
0.0
  0
LTYPE
  5
15
330
5
100
AcDbSymbolTableRecord
100
AcDbLinetypeTableRecord
  2
BYLAYER
 70
     0
  3

 72
    65
 73
     0
 40
0.0
  0
LTYPE
  5
16
330
5
100
AcDbSymbolTableRecord
100
AcDbLinetypeTableRecord
  2
CONTINUOUS
 70
     0
  3
Solid line
 72
    65
 73
     0
 40
0.0
  0
ENDTAB
  0
TABLE
  2
LAYER
  5
2
100
AcDbSymbolTable
 70
2
  0
LAYER
  5
50
100
AcDbSymbolTableRecord
100
AcDbLayerTableRecord
  2
0
 70
0
  6
CONTINUOUS
  0
LAYER
  5
51
100
AcDbSymbolTableRecord
100
AcDbLayerTableRecord
  2
Layer_1
 70
0
  6
CONTINUOUS
  0
ENDTAB
  0
TABLE
  2
STYLE
  5
3
330
0
100
AcDbSymbolTable
 70
     1
  0
STYLE
  5
11
330
3
100
AcDbSymbolTableRecord
100
AcDbTextStyleTableRecord
  2
STANDARD
 70
     0
 40
0.0
 41
1.0
 50
0.0
 71
     0
 42
2.5
  3
txt
  4

  0
ENDTAB
  0
TABLE
  2
VIEW
  5
6
330
0
100
AcDbSymbolTable
 70
     0
  0
ENDTAB
  0
TABLE
  2
UCS
  5
7
330
0
100
AcDbSymbolTable
 70
     0
  0
ENDTAB
  0
TABLE
  2
APPID
  5
9
330
0
100
AcDbSymbolTable
 70
     2
  0
APPID
  5
12
330
9
100
AcDbSymbolTableRecord
100
AcDbRegAppTableRecord
  2
ACAD
 70
     0
  0
ENDTAB
  0
TABLE
  2
DIMSTYLE
  5
A
330
0
100
AcDbSymbolTable
 70
     1
  0
DIMSTYLE
105
27
330
A
100
AcDbSymbolTableRecord
100
AcDbDimStyleTableRecord
  2
ISO-25
 70
     0
  3

  4

  5

  6

  7

 40
1.0
 41
2.5
 42
0.625
 43
3.75
 44
1.25
 45
0.0
 46
0.0
 47
0.0
 48
0.0
140
2.5
141
2.5
142
0.0
143
0.03937007874016
144
1.0
145
0.0
146
1.0
147
0.625
 71
     0
 72
     0
 73
     0
 74
     0
 75
     0
 76
     0
 77
     1
 78
     8
170
     0
171
     3
172
     1
173
     0
174
     0
175
     0
176
     0
177
     0
178
     0
270
     2
271
     2
272
     2
273
     2
274
     3
340
11
275
     0
280
     0
281
     0
282
     0
283
     0
284
     8
285
     0
286
     0
287
     3
288
     0
  0
ENDTAB
  0
TABLE
  2
BLOCK_RECORD
  5
1
330
0
100
AcDbSymbolTable
 70
     1
  0
BLOCK_RECORD
  5
1F
330
1
100
AcDbSymbolTableRecord
100
AcDbBlockTableRecord
  2
*MODEL_SPACE
  0
BLOCK_RECORD
  5
1B
330
1
100
AcDbSymbolTableRecord
100
AcDbBlockTableRecord
  2
*PAPER_SPACE
  0
ENDTAB
  0
ENDSEC
  0
SECTION
  2
BLOCKS
  0
BLOCK
  5
20
330
1F
100
AcDbEntity
  8
0
100
AcDbBlockBegin
  2
*MODEL_SPACE
 70
     0
 10
0.0
 20
0.0
 30
0.0
  3
*MODEL_SPACE
  1

  0
ENDBLK
  5
21
330
1F
100
AcDbEntity
  8
0
100
AcDbBlockEnd
  0
BLOCK
  5
1C
330
1B
100
AcDbEntity
 67
     1
  8
0
100
AcDbBlockBegin
  2
*PAPER_SPACE
  1

  0
ENDBLK
  5
1D
330
1B
100
AcDbEntity
 67
     1
  8
0
100
AcDbBlockEnd
  0
ENDSEC
  0
SECTION
  2
ENTITIES
  0
LWPOLYLINE
  5
100
100
AcDbEntity
  8
Layer_1
 62
7
100
AcDbPolyline
 90
129
 70
1
 10
5.284757
 20
41.821277
 30
0.0
 10
17.124163
 20
41.821277
 30
0.0
 10
28.963569
 20
41.821277
 30
0.0
 10
40.802975
 20
41.821277
 30
0.0
 10
52.642381
 20
41.821277
 30
0.0
 10
64.481786
 20
41.821277
 30
0.0
 10
76.321192
 20
41.821277
 30
0.0
 10
88.160598
 20
41.821277
 30
0.0
 10
100.000003
 20
41.821277
 30
0.0
 10
111.839409
 20
41.821277
 30
0.0
 10
123.678817
 20
41.821277
 30
0.0
 10
135.518223
 20
41.821277
 30
0.0
 10
147.357629
 20
41.821277
 30
0.0
 10
159.197034
 20
41.821277
 30
0.0
 10
171.036440
 20
41.821277
 30
0.0
 10
182.875846
 20
41.821277
 30
0.0
 10
194.715251
 20
41.821277
 30
0.0
 10
195.238757
 20
41.795002
 30
0.0
 10
195.746810
 20
41.717891
 30
0.0
 10
196.236881
 20
41.592463
 30
0.0
 10
196.706445
 20
41.421241
 30
0.0
 10
197.152971
 20
41.206761
 30
0.0
 10
197.573931
 20
40.951547
 30
0.0
 10
197.966798
 20
40.658126
 30
0.0
 10
198.329045
 20
40.329030
 30
0.0
 10
198.658141
 20
39.966781
 30
0.0
 10
198.951562
 20
39.573913
 30
0.0
 10
199.206776
 20
39.152954
 30
0.0
 10
199.421259
 20
38.706427
 30
0.0
 10
199.592478
 20
38.236863
 30
0.0
 10
199.717908
 20
37.746793
 30
0.0
 10
199.795017
 20
37.238739
 30
0.0
 10
199.821292
 20
36.715234
 30
0.0
 10
199.821292
 20
34.750829
 30
0.0
 10
199.821292
 20
32.786424
 30
0.0
 10
199.821292
 20
30.822016
 30
0.0
 10
199.821292
 20
28.857611
 30
0.0
 10
199.821292
 20
26.893206
 30
0.0
 10
199.821292
 20
24.928801
 30
0.0
 10
199.821292
 20
22.964393
 30
0.0
 10
199.821292
 20
20.999988
 30
0.0
 10
199.821292
 20
19.035586
 30
0.0
 10
199.821292
 20
17.071181
 30
0.0
 10
199.821292
 20
15.106779
 30
0.0
 10
199.821292
 20
13.142374
 30
0.0
 10
199.821292
 20
11.177966
 30
0.0
 10
199.821292
 20
9.213559
 30
0.0
 10
199.821292
 20
7.249151
 30
0.0
 10
199.821292
 20
5.284743
 30
0.0
 10
199.795017
 20
4.761249
 30
0.0
 10
199.717906
 20
4.253193
 30
0.0
 10
199.592478
 20
3.763114
 30
0.0
 10
199.421259
 20
3.293552
 30
0.0
 10
199.206779
 20
2.847020
 30
0.0
 10
198.951562
 20
2.426058
 30
0.0
 10
198.658144
 20
2.033204
 30
0.0
 10
198.329045
 20
1.670944
 30
0.0
 10
197.966804
 20
1.341845
 30
0.0
 10
197.573937
 20
1.048446
 30
0.0
 10
197.152974
 20
0.793233
 30
0.0
 10
196.706445
 20
0.578744
 30
0.0
 10
196.236881
 20
0.407520
 30
0.0
 10
195.746810
 20
0.282100
 30
0.0
 10
195.238757
 20
0.204997
 30
0.0
 10
194.715251
 20
0.178750
 30
0.0
 10
182.875846
 20
0.178750
 30
0.0
 10
171.036440
 20
0.178750
 30
0.0
 10
159.197034
 20
0.178750
 30
0.0
 10
147.357629
 20
0.178750
 30
0.0
 10
135.518223
 20
0.178750
 30
0.0
 10
123.678817
 20
0.178750
 30
0.0
 10
111.839409
 20
0.178750
 30
0.0
 10
100.000003
 20
0.178750
 30
0.0
 10
88.160598
 20
0.178750
 30
0.0
 10
76.321192
 20
0.178750
 30
0.0
 10
64.481786
 20
0.178750
 30
0.0
 10
52.642381
 20
0.178750
 30
0.0
 10
40.802975
 20
0.178750
 30
0.0
 10
28.963569
 20
0.178750
 30
0.0
 10
17.124163
 20
0.178750
 30
0.0
 10
5.284757
 20
0.178750
 30
0.0
 10
4.761251
 20
0.204997
 30
0.0
 10
4.253199
 20
0.282100
 30
0.0
 10
3.763127
 20
0.407520
 30
0.0
 10
3.293564
 20
0.578744
 30
0.0
 10
2.847038
 20
0.793233
 30
0.0
 10
2.426077
 20
1.048446
 30
0.0
 10
2.033209
 20
1.341873
 30
0.0
 10
1.670962
 20
1.670944
 30
0.0
 10
1.341859
 20
2.033176
 30
0.0
 10
1.048440
 20
2.426058
 30
0.0
 10
0.793229
 20
2.847020
 30
0.0
 10
0.578750
 20
3.293552
 30
0.0
 10
0.407531
 20
3.763114
 30
0.0
 10
0.282101
 20
4.253193
 30
0.0
 10
0.204990
 20
4.761249
 30
0.0
 10
0.178724
 20
5.284743
 30
0.0
 10
0.178724
 20
7.249151
 30
0.0
 10
0.178724
 20
9.213559
 30
0.0
 10
0.178724
 20
11.177966
 30
0.0
 10
0.178724
 20
13.142374
 30
0.0
 10
0.178724
 20
15.106776
 30
0.0
 10
0.178724
 20
17.071181
 30
0.0
 10
0.178724
 20
19.035586
 30
0.0
 10
0.178724
 20
20.999988
 30
0.0
 10
0.178724
 20
22.964393
 30
0.0
 10
0.178724
 20
24.928798
 30
0.0
 10
0.178724
 20
26.893206
 30
0.0
 10
0.178724
 20
28.857611
 30
0.0
 10
0.178724
 20
30.822016
 30
0.0
 10
0.178724
 20
32.786421
 30
0.0
 10
0.178724
 20
34.750829
 30
0.0
 10
0.178724
 20
36.715234
 30
0.0
 10
0.204990
 20
37.238739
 30
0.0
 10
0.282101
 20
37.746793
 30
0.0
 10
0.407531
 20
38.236863
 30
0.0
 10
0.578750
 20
38.706427
 30
0.0
 10
0.793231
 20
39.152954
 30
0.0
 10
1.048445
 20
39.573913
 30
0.0
 10
1.341865
 20
39.966784
 30
0.0
 10
1.670962
 20
40.329030
 30
0.0
 10
2.033209
 20
40.658126
 30
0.0
 10
2.426077
 20
40.951547
 30
0.0
 10
2.847038
 20
41.206761
 30
0.0
 10
3.293564
 20
41.421241
 30
0.0
 10
3.763127
 20
41.592460
 30
0.0
 10
4.253199
 20
41.717891
 30
0.0
 10
4.761252
 20
41.795002
 30
0.0
 10
5.284757
 20
41.821277
 30
0.0
  0
LWPOLYLINE
  5
101
100
AcDbEntity
  8
Layer_1
 62
7
100
AcDbPolyline
 90
65
 70
1
 10
7.226073
 20
5.500002
 30
0.0
 10
7.217161
 20
5.323529
 30
0.0
 10
7.191004
 20
5.152135
 30
0.0
 10
7.148471
 20
4.986725
 30
0.0
 10
7.090429
 20
4.828144
 30
0.0
 10
7.017744
 20
4.677268
 30
0.0
 10
6.931286
 20
4.534944
 30
0.0
 10
6.831921
 20
4.402045
 30
0.0
 10
6.720517
 20
4.279476
 30
0.0
 10
6.597942
 20
4.168083
 30
0.0
 10
6.465063
 20
4.068712
 30
0.0
 10
6.322748
 20
3.982240
 30
0.0
 10
6.171864
 20
3.909567
 30
0.0
 10
6.013280
 20
3.851514
 30
0.0
 10
5.847863
 20
3.808983
 30
0.0
 10
5.676480
 20
3.782737
 30
0.0
 10
5.499999
 20
3.773706
 30
0.0
 10
5.323519
 20
3.782737
 30
0.0
 10
5.152136
 20
3.808983
 30
0.0
 10
4.986718
 20
3.851514
 30
0.0
 10
4.828134
 20
3.909567
 30
0.0
 10
4.677251
 20
3.982240
 30
0.0
 10
4.534936
 20
4.068712
 30
0.0
 10
4.402057
 20
4.168083
 30
0.0
 10
4.279482
 20
4.279476
 30
0.0
 10
4.168078
 20
4.402045
 30
0.0
 10
4.068713
 20
4.534944
 30
0.0
 10
3.982255
 20
4.677268
 30
0.0
 10
3.909570
 20
4.828144
 30
0.0
 10
3.851528
 20
4.986725
 30
0.0
 10
3.808994
 20
5.152135
 30
0.0
 10
3.782838
 20
5.323529
 30
0.0
 10
3.773926
 20
5.500002
 30
0.0
 10
3.782838
 20
5.676476
 30
0.0
 10
3.808994
 20
5.847870
 30
0.0
 10
3.851528
 20
6.013280
 30
0.0
 10
3.909570
 20
6.171861
 30
0.0
 10
3.982255
 20
6.322737
 30
0.0
 10
4.068713
 20
6.465061
 30
0.0
 10
4.168078
 20
6.597960
 30
0.0
 10
4.279482
 20
6.720529
 30
0.0
 10
4.402058
 20
6.831922
 30
0.0
 10
4.534937
 20
6.931292
 30
0.0
 10
4.677252
 20
7.017765
 30
0.0
 10
4.828135
 20
7.090438
 30
0.0
 10
4.986719
 20
7.148491
 30
0.0
 10
5.152137
 20
7.191022
 30
0.0
 10
5.323519
 20
7.217268
 30
0.0
 10
5.500000
 20
7.226299
 30
0.0
 10
5.676481
 20
7.217268
 30
0.0
 10
5.847864
 20
7.191022
 30
0.0
 10
6.013282
 20
7.148491
 30
0.0
 10
6.171866
 20
7.090438
 30
0.0
 10
6.322749
 20
7.017765
 30
0.0
 10
6.465064
 20
6.931292
 30
0.0
 10
6.597943
 20
6.831922
 30
0.0
 10
6.720518
 20
6.720529
 30
0.0
 10
6.831922
 20
6.597960
 30
0.0
 10
6.931287
 20
6.465061
 30
0.0
 10
7.017746
 20
6.322737
 30
0.0
 10
7.090430
 20
6.171861
 30
0.0
 10
7.148473
 20
6.013280
 30
0.0
 10
7.191006
 20
5.847870
 30
0.0
 10
7.217162
 20
5.676476
 30
0.0
 10
7.226073
 20
5.500002
 30
0.0
  0
LWPOLYLINE
  5
102
100
AcDbEntity
  8
Layer_1
 62
7
100
AcDbPolyline
 90
65
 70
1
 10
38.226071
 20
5.500002
 30
0.0
 10
38.217153
 20
5.323529
 30
0.0
 10
38.190991
 20
5.152135
 30
0.0
 10
38.148458
 20
4.986725
 30
0.0
 10
38.090416
 20
4.828144
 30
0.0
 10
38.017732
 20
4.677268
 30
0.0
 10
37.931273
 20
4.534944
 30
0.0
 10
37.831909
 20
4.402045
 30
0.0
 10
37.720504
 20
4.279476
 30
0.0
 10
37.597929
 20
4.168083
 30
0.0
 10
37.465051
 20
4.068712
 30
0.0
 10
37.322735
 20
3.982240
 30
0.0
 10
37.171853
 20
3.909567
 30
0.0
 10
37.013269
 20
3.851514
 30
0.0
 10
36.847851
 20
3.808983
 30
0.0
 10
36.676468
 20
3.782737
 30
0.0
 10
36.499986
 20
3.773706
 30
0.0
 10
36.323507
 20
3.782737
 30
0.0
 10
36.152125
 20
3.808983
 30
0.0
 10
35.986706
 20
3.851514
 30
0.0
 10
35.828122
 20
3.909567
 30
0.0
 10
35.677238
 20
3.982240
 30
0.0
 10
35.534925
 20
4.068712
 30
0.0
 10
35.402046
 20
4.168083
 30
0.0
 10
35.279471
 20
4.279476
 30
0.0
 10
35.168067
 20
4.402045
 30
0.0
 10
35.068702
 20
4.534944
 30
0.0
 10
34.982243
 20
4.677268
 30
0.0
 10
34.909560
 20
4.828144
 30
0.0
 10
34.851518
 20
4.986725
 30
0.0
 10
34.808984
 20
5.152135
 30
0.0
 10
34.782822
 20
5.323529
 30
0.0
 10
34.773904
 20
5.500002
 30
0.0
 10
34.782822
 20
5.676476
 30
0.0
 10
34.808984
 20
5.847870
 30
0.0
 10
34.851515
 20
6.013280
 30
0.0
 10
34.909557
 20
6.171861
 30
0.0
 10
34.982240
 20
6.322737
 30
0.0
 10
35.068699
 20
6.465061
 30
0.0
 10
35.168064
 20
6.597960
 30
0.0
 10
35.279468
 20
6.720529
 30
0.0
 10
35.402043
 20
6.831922
 30
0.0
 10
35.534925
 20
6.931292
 30
0.0
 10
35.677238
 20
7.017765
 30
0.0
 10
35.828122
 20
7.090438
 30
0.0
 10
35.986706
 20
7.148491
 30
0.0
 10
36.152125
 20
7.191022
 30
0.0
 10
36.323507
 20
7.217268
 30
0.0
 10
36.499986
 20
7.226299
 30
0.0
 10
36.676465
 20
7.217268
 30
0.0
 10
36.847851
 20
7.191022
 30
0.0
 10
37.013269
 20
7.148491
 30
0.0
 10
37.171853
 20
7.090438
 30
0.0
 10
37.322737
 20
7.017765
 30
0.0
 10
37.465051
 20
6.931292
 30
0.0
 10
37.597929
 20
6.831922
 30
0.0
 10
37.720504
 20
6.720529
 30
0.0
 10
37.831909
 20
6.597960
 30
0.0
 10
37.931273
 20
6.465061
 30
0.0
 10
38.017732
 20
6.322737
 30
0.0
 10
38.090416
 20
6.171861
 30
0.0
 10
38.148458
 20
6.013280
 30
0.0
 10
38.190991
 20
5.847870
 30
0.0
 10
38.217153
 20
5.676476
 30
0.0
 10
38.226071
 20
5.500002
 30
0.0
  0
LWPOLYLINE
  5
103
100
AcDbEntity
  8
Layer_1
 62
7
100
AcDbPolyline
 90
65
 70
1
 10
38.226071
 20
36.500000
 30
0.0
 10
38.217153
 20
36.323521
 30
0.0
 10
38.190991
 20
36.152135
 30
0.0
 10
38.148458
 20
35.986717
 30
0.0
 10
38.090416
 20
35.828133
 30
0.0
 10
38.017732
 20
35.677251
 30
0.0
 10
37.931273
 20
35.534935
 30
0.0
 10
37.831909
 20
35.402056
 30
0.0
 10
37.720504
 20
35.279482
 30
0.0
 10
37.597929
 20
35.168077
 30
0.0
 10
37.465051
 20
35.068713
 30
0.0
 10
37.322737
 20
34.982254
 30
0.0
 10
37.171853
 20
34.909570
 30
0.0
 10
37.013267
 20
34.851528
 30
0.0
 10
36.847851
 20
34.808995
 30
0.0
 10
36.676465
 20
34.782833
 30
0.0
 10
36.499986
 20
34.773914
 30
0.0
 10
36.323507
 20
34.782833
 30
0.0
 10
36.152122
 20
34.808995
 30
0.0
 10
35.986706
 20
34.851528
 30
0.0
 10
35.828122
 20
34.909570
 30
0.0
 10
35.677238
 20
34.982254
 30
0.0
 10
35.534925
 20
35.068713
 30
0.0
 10
35.402043
 20
35.168077
 30
0.0
 10
35.279468
 20
35.279482
 30
0.0
 10
35.168064
 20
35.402056
 30
0.0
 10
35.068699
 20
35.534935
 30
0.0
 10
34.982240
 20
35.677251
 30
0.0
 10
34.909557
 20
35.828133
 30
0.0
 10
34.851515
 20
35.986717
 30
0.0
 10
34.808981
 20
36.152135
 30
0.0
 10
34.782819
 20
36.323518
 30
0.0
 10
34.773901
 20
36.500000
 30
0.0
 10
34.782819
 20
36.676479
 30
0.0
 10
34.808981
 20
36.847861
 30
0.0
 10
34.851515
 20
37.013280
 30
0.0
 10
34.909557
 20
37.171864
 30
0.0
 10
34.982240
 20
37.322745
 30
0.0
 10
35.068699
 20
37.465061
 30
0.0
 10
35.168064
 20
37.597940
 30
0.0
 10
35.279468
 20
37.720515
 30
0.0
 10
35.402043
 20
37.831919
 30
0.0
 10
35.534922
 20
37.931284
 30
0.0
 10
35.677235
 20
38.017743
 30
0.0
 10
35.828120
 20
38.090426
 30
0.0
 10
35.986703
 20
38.148468
 30
0.0
 10
36.152122
 20
38.191002
 30
0.0
 10
36.323504
 20
38.217164
 30
0.0
 10
36.499983
 20
38.226082
 30
0.0
 10
36.676463
 20
38.217164
 30
0.0
 10
36.847848
 20
38.191002
 30
0.0
 10
37.013267
 20
38.148471
 30
0.0
 10
37.171850
 20
38.090429
 30
0.0
 10
37.322732
 20
38.017746
 30
0.0
 10
37.465048
 20
37.931287
 30
0.0
 10
37.597927
 20
37.831922
 30
0.0
 10
37.720501
 20
37.720518
 30
0.0
 10
37.831906
 20
37.597943
 30
0.0
 10
37.931271
 20
37.465061
 30
0.0
 10
38.017729
 20
37.322748
 30
0.0
 10
38.090413
 20
37.171864
 30
0.0
 10
38.148455
 20
37.013280
 30
0.0
 10
38.190988
 20
36.847864
 30
0.0
 10
38.217150
 20
36.676479
 30
0.0
 10
38.226071
 20
36.500000
 30
0.0
  0
LWPOLYLINE
  5
104
100
AcDbEntity
  8
Layer_1
 62
7
100
AcDbPolyline
 90
65
 70
1
 10
7.226073
 20
36.500000
 30
0.0
 10
7.217161
 20
36.323521
 30
0.0
 10
7.191004
 20
36.152135
 30
0.0
 10
7.148471
 20
35.986717
 30
0.0
 10
7.090429
 20
35.828133
 30
0.0
 10
7.017745
 20
35.677249
 30
0.0
 10
6.931286
 20
35.534935
 30
0.0
 10
6.831921
 20
35.402056
 30
0.0
 10
6.720517
 20
35.279482
 30
0.0
 10
6.597942
 20
35.168077
 30
0.0
 10
6.465063
 20
35.068713
 30
0.0
 10
6.322748
 20
34.982254
 30
0.0
 10
6.171865
 20
34.909570
 30
0.0
 10
6.013280
 20
34.851528
 30
0.0
 10
5.847863
 20
34.808995
 30
0.0
 10
5.676480
 20
34.782833
 30
0.0
 10
5.499999
 20
34.773914
 30
0.0
 10
5.323518
 20
34.782833
 30
0.0
 10
5.152135
 20
34.808995
 30
0.0
 10
4.986717
 20
34.851528
 30
0.0
 10
4.828133
 20
34.909570
 30
0.0
 10
4.677250
 20
34.982254
 30
0.0
 10
4.534935
 20
35.068713
 30
0.0
 10
4.402056
 20
35.168077
 30
0.0
 10
4.279481
 20
35.279482
 30
0.0
 10
4.168077
 20
35.402056
 30
0.0
 10
4.068712
 20
35.534935
 30
0.0
 10
3.982253
 20
35.677249
 30
0.0
 10
3.909569
 20
35.828133
 30
0.0
 10
3.851526
 20
35.986717
 30
0.0
 10
3.808993
 20
36.152135
 30
0.0
 10
3.782837
 20
36.323521
 30
0.0
 10
3.773924
 20
36.500000
 30
0.0
 10
3.782837
 20
36.676479
 30
0.0
 10
3.808993
 20
36.847864
 30
0.0
 10
3.851526
 20
37.013280
 30
0.0
 10
3.909569
 20
37.171864
 30
0.0
 10
3.982254
 20
37.322748
 30
0.0
 10
4.068713
 20
37.465061
 30
0.0
 10
4.168077
 20
37.597943
 30
0.0
 10
4.279481
 20
37.720518
 30
0.0
 10
4.402056
 20
37.831922
 30
0.0
 10
4.534935
 20
37.931284
 30
0.0
 10
4.677250
 20
38.017743
 30
0.0
 10
4.828133
 20
38.090426
 30
0.0
 10
4.986718
 20
38.148468
 30
0.0
 10
5.152135
 20
38.191002
 30
0.0
 10
5.323518
 20
38.217164
 30
0.0
 10
5.499999
 20
38.226082
 30
0.0
 10
5.676479
 20
38.217164
 30
0.0
 10
5.847862
 20
38.191002
 30
0.0
 10
6.013280
 20
38.148468
 30
0.0
 10
6.171864
 20
38.090426
 30
0.0
 10
6.322747
 20
38.017743
 30
0.0
 10
6.465062
 20
37.931284
 30
0.0
 10
6.597941
 20
37.831919
 30
0.0
 10
6.720516
 20
37.720518
 30
0.0
 10
6.831920
 20
37.597943
 30
0.0
 10
6.931285
 20
37.465064
 30
0.0
 10
7.017744
 20
37.322748
 30
0.0
 10
7.090428
 20
37.171864
 30
0.0
 10
7.148470
 20
37.013280
 30
0.0
 10
7.191004
 20
36.847864
 30
0.0
 10
7.217160
 20
36.676479
 30
0.0
 10
7.226073
 20
36.500000
 30
0.0
  0
LWPOLYLINE
  5
105
100
AcDbEntity
  8
Layer_1
 62
7
100
AcDbPolyline
 90
65
 70
1
 10
51.726076
 20
5.500002
 30
0.0
 10
51.717157
 20
5.323529
 30
0.0
 10
51.690995
 20
5.152135
 30
0.0
 10
51.648462
 20
4.986725
 30
0.0
 10
51.590420
 20
4.828144
 30
0.0
 10
51.517736
 20
4.677268
 30
0.0
 10
51.431277
 20
4.534944
 30
0.0
 10
51.331913
 20
4.402045
 30
0.0
 10
51.220508
 20
4.279476
 30
0.0
 10
51.097934
 20
4.168083
 30
0.0
 10
50.965055
 20
4.068712
 30
0.0
 10
50.822739
 20
3.982240
 30
0.0
 10
50.671857
 20
3.909567
 30
0.0
 10
50.513274
 20
3.851514
 30
0.0
 10
50.347855
 20
3.808983
 30
0.0
 10
50.176472
 20
3.782737
 30
0.0
 10
49.999990
 20
3.773706
 30
0.0
 10
49.823511
 20
3.782737
 30
0.0
 10
49.652126
 20
3.808983
 30
0.0
 10
49.486707
 20
3.851514
 30
0.0
 10
49.328124
 20
3.909567
 30
0.0
 10
49.177242
 20
3.982240
 30
0.0
 10
49.034926
 20
4.068712
 30
0.0
 10
48.902047
 20
4.168083
 30
0.0
 10
48.779472
 20
4.279476
 30
0.0
 10
48.668068
 20
4.402045
 30
0.0
 10
48.568703
 20
4.534944
 30
0.0
 10
48.482244
 20
4.677268
 30
0.0
 10
48.409561
 20
4.828144
 30
0.0
 10
48.351519
 20
4.986725
 30
0.0
 10
48.308985
 20
5.152135
 30
0.0
 10
48.282823
 20
5.323529
 30
0.0
 10
48.273905
 20
5.500002
 30
0.0
 10
48.282823
 20
5.676476
 30
0.0
 10
48.308985
 20
5.847870
 30
0.0
 10
48.351519
 20
6.013280
 30
0.0
 10
48.409561
 20
6.171861
 30
0.0
 10
48.482244
 20
6.322737
 30
0.0
 10
48.568703
 20
6.465061
 30
0.0
 10
48.668068
 20
6.597960
 30
0.0
 10
48.779472
 20
6.720529
 30
0.0
 10
48.902047
 20
6.831922
 30
0.0
 10
49.034926
 20
6.931292
 30
0.0
 10
49.177239
 20
7.017765
 30
0.0
 10
49.328124
 20
7.090438
 30
0.0
 10
49.486707
 20
7.148491
 30
0.0
 10
49.652126
 20
7.191022
 30
0.0
 10
49.823511
 20
7.217268
 30
0.0
 10
49.999990
 20
7.226299
 30
0.0
 10
50.176470
 20
7.217268
 30
0.0
 10
50.347855
 20
7.191022
 30
0.0
 10
50.513274
 20
7.148491
 30
0.0
 10
50.671857
 20
7.090438
 30
0.0
 10
50.822741
 20
7.017765
 30
0.0
 10
50.965055
 20
6.931292
 30
0.0
 10
51.097934
 20
6.831922
 30
0.0
 10
51.220508
 20
6.720529
 30
0.0
 10
51.331913
 20
6.597960
 30
0.0
 10
51.431277
 20
6.465061
 30
0.0
 10
51.517736
 20
6.322737
 30
0.0
 10
51.590420
 20
6.171861
 30
0.0
 10
51.648462
 20
6.013280
 30
0.0
 10
51.690995
 20
5.847870
 30
0.0
 10
51.717157
 20
5.676476
 30
0.0
 10
51.726076
 20
5.500002
 30
0.0
  0
LWPOLYLINE
  5
106
100
AcDbEntity
  8
Layer_1
 62
7
100
AcDbPolyline
 90
65
 70
1
 10
101.726077
 20
5.500002
 30
0.0
 10
101.717159
 20
5.323529
 30
0.0
 10
101.690997
 20
5.152135
 30
0.0
 10
101.648463
 20
4.986725
 30
0.0
 10
101.590421
 20
4.828144
 30
0.0
 10
101.517738
 20
4.677268
 30
0.0
 10
101.431279
 20
4.534944
 30
0.0
 10
101.331914
 20
4.402045
 30
0.0
 10
101.220510
 20
4.279476
 30
0.0
 10
101.097935
 20
4.168083
 30
0.0
 10
100.965056
 20
4.068712
 30
0.0
 10
100.822740
 20
3.982240
 30
0.0
 10
100.671859
 20
3.909567
 30
0.0
 10
100.513275
 20
3.851514
 30
0.0
 10
100.347856
 20
3.808983
 30
0.0
 10
100.176474
 20
3.782737
 30
0.0
 10
99.999992
 20
3.773706
 30
0.0
 10
99.823513
 20
3.782737
 30
0.0
 10
99.652128
 20
3.808983
 30
0.0
 10
99.486709
 20
3.851514
 30
0.0
 10
99.328125
 20
3.909567
 30
0.0
 10
99.177244
 20
3.982240
 30
0.0
 10
99.034927
 20
4.068712
 30
0.0
 10
98.902049
 20
4.168083
 30
0.0
 10
98.779474
 20
4.279476
 30
0.0
 10
98.668070
 20
4.402045
 30
0.0
 10
98.568705
 20
4.534944
 30
0.0
 10
98.482246
 20
4.677268
 30
0.0
 10
98.409562
 20
4.828144
 30
0.0
 10
98.351521
 20
4.986725
 30
0.0
 10
98.308987
 20
5.152135
 30
0.0
 10
98.282825
 20
5.323529
 30
0.0
 10
98.273907
 20
5.500002
 30
0.0
 10
98.282825
 20
5.676476
 30
0.0
 10
98.308987
 20
5.847870
 30
0.0
 10
98.351521
 20
6.013280
 30
0.0
 10
98.409562
 20
6.171861
 30
0.0
 10
98.482246
 20
6.322737
 30
0.0
 10
98.568705
 20
6.465061
 30
0.0
 10
98.668070
 20
6.597960
 30
0.0
 10
98.779474
 20
6.720529
 30
0.0
 10
98.902049
 20
6.831922
 30
0.0
 10
99.034927
 20
6.931292
 30
0.0
 10
99.177241
 20
7.017765
 30
0.0
 10
99.328125
 20
7.090438
 30
0.0
 10
99.486709
 20
7.148491
 30
0.0
 10
99.652128
 20
7.191022
 30
0.0
 10
99.823513
 20
7.217268
 30
0.0
 10
99.999992
 20
7.226299
 30
0.0
 10
100.176471
 20
7.217268
 30
0.0
 10
100.347856
 20
7.191022
 30
0.0
 10
100.513275
 20
7.148491
 30
0.0
 10
100.671859
 20
7.090438
 30
0.0
 10
100.822743
 20
7.017765
 30
0.0
 10
100.965056
 20
6.931292
 30
0.0
 10
101.097935
 20
6.831922
 30
0.0
 10
101.220510
 20
6.720529
 30
0.0
 10
101.331914
 20
6.597960
 30
0.0
 10
101.431279
 20
6.465061
 30
0.0
 10
101.517738
 20
6.322737
 30
0.0
 10
101.590421
 20
6.171861
 30
0.0
 10
101.648463
 20
6.013280
 30
0.0
 10
101.690997
 20
5.847870
 30
0.0
 10
101.717159
 20
5.676476
 30
0.0
 10
101.726077
 20
5.500002
 30
0.0
  0
LWPOLYLINE
  5
107
100
AcDbEntity
  8
Layer_1
 62
7
100
AcDbPolyline
 90
65
 70
1
 10
151.726082
 20
5.500002
 30
0.0
 10
151.717163
 20
5.323529
 30
0.0
 10
151.691001
 20
5.152135
 30
0.0
 10
151.648468
 20
4.986725
 30
0.0
 10
151.590426
 20
4.828144
 30
0.0
 10
151.517742
 20
4.677268
 30
0.0
 10
151.431284
 20
4.534944
 30
0.0
 10
151.331919
 20
4.402045
 30
0.0
 10
151.220514
 20
4.279476
 30
0.0
 10
151.097940
 20
4.168083
 30
0.0
 10
150.965061
 20
4.068712
 30
0.0
 10
150.822745
 20
3.982240
 30
0.0
 10
150.671863
 20
3.909567
 30
0.0
 10
150.513280
 20
3.851514
 30
0.0
 10
150.347861
 20
3.808983
 30
0.0
 10
150.176478
 20
3.782737
 30
0.0
 10
149.999996
 20
3.773706
 30
0.0
 10
149.823517
 20
3.782737
 30
0.0
 10
149.652135
 20
3.808983
 30
0.0
 10
149.486716
 20
3.851514
 30
0.0
 10
149.328132
 20
3.909567
 30
0.0
 10
149.177248
 20
3.982240
 30
0.0
 10
149.034935
 20
4.068712
 30
0.0
 10
148.902056
 20
4.168083
 30
0.0
 10
148.779481
 20
4.279476
 30
0.0
 10
148.668077
 20
4.402045
 30
0.0
 10
148.568712
 20
4.534944
 30
0.0
 10
148.482253
 20
4.677268
 30
0.0
 10
148.409570
 20
4.828144
 30
0.0
 10
148.351528
 20
4.986725
 30
0.0
 10
148.308994
 20
5.152135
 30
0.0
 10
148.282832
 20
5.323529
 30
0.0
 10
148.273914
 20
5.500002
 30
0.0
 10
148.282832
 20
5.676476
 30
0.0
 10
148.308994
 20
5.847870
 30
0.0
 10
148.351525
 20
6.013280
 30
0.0
 10
148.409567
 20
6.171861
 30
0.0
 10
148.482250
 20
6.322737
 30
0.0
 10
148.568709
 20
6.465061
 30
0.0
 10
148.668074
 20
6.597960
 30
0.0
 10
148.779478
 20
6.720529
 30
0.0
 10
148.902053
 20
6.831922
 30
0.0
 10
149.034935
 20
6.931292
 30
0.0
 10
149.177248
 20
7.017765
 30
0.0
 10
149.328132
 20
7.090438
 30
0.0
 10
149.486716
 20
7.148491
 30
0.0
 10
149.652135
 20
7.191022
 30
0.0
 10
149.823517
 20
7.217268
 30
0.0
 10
149.999996
 20
7.226299
 30
0.0
 10
150.176476
 20
7.217268
 30
0.0
 10
150.347861
 20
7.191022
 30
0.0
 10
150.513280
 20
7.148491
 30
0.0
 10
150.671863
 20
7.090438
 30
0.0
 10
150.822747
 20
7.017765
 30
0.0
 10
150.965061
 20
6.931292
 30
0.0
 10
151.097940
 20
6.831922
 30
0.0
 10
151.220514
 20
6.720529
 30
0.0
 10
151.331919
 20
6.597960
 30
0.0
 10
151.431284
 20
6.465061
 30
0.0
 10
151.517742
 20
6.322737
 30
0.0
 10
151.590426
 20
6.171861
 30
0.0
 10
151.648468
 20
6.013280
 30
0.0
 10
151.691001
 20
5.847870
 30
0.0
 10
151.717163
 20
5.676476
 30
0.0
 10
151.726082
 20
5.500002
 30
0.0
  0
LWPOLYLINE
  5
108
100
AcDbEntity
  8
Layer_1
 62
7
100
AcDbPolyline
 90
65
 70
1
 10
51.726076
 20
36.500000
 30
0.0
 10
51.717157
 20
36.323521
 30
0.0
 10
51.690995
 20
36.152135
 30
0.0
 10
51.648462
 20
35.986717
 30
0.0
 10
51.590420
 20
35.828133
 30
0.0
 10
51.517736
 20
35.677251
 30
0.0
 10
51.431277
 20
35.534935
 30
0.0
 10
51.331913
 20
35.402056
 30
0.0
 10
51.220508
 20
35.279482
 30
0.0
 10
51.097934
 20
35.168077
 30
0.0
 10
50.965055
 20
35.068713
 30
0.0
 10
50.822741
 20
34.982254
 30
0.0
 10
50.671857
 20
34.909570
 30
0.0
 10
50.513271
 20
34.851528
 30
0.0
 10
50.347855
 20
34.808995
 30
0.0
 10
50.176470
 20
34.782833
 30
0.0
 10
49.999990
 20
34.773914
 30
0.0
 10
49.823511
 20
34.782833
 30
0.0
 10
49.652126
 20
34.808995
 30
0.0
 10
49.486707
 20
34.851528
 30
0.0
 10
49.328124
 20
34.909570
 30
0.0
 10
49.177242
 20
34.982254
 30
0.0
 10
49.034926
 20
35.068713
 30
0.0
 10
48.902047
 20
35.168077
 30
0.0
 10
48.779472
 20
35.279482
 30
0.0
 10
48.668068
 20
35.402056
 30
0.0
 10
48.568703
 20
35.534935
 30
0.0
 10
48.482244
 20
35.677249
 30
0.0
 10
48.409561
 20
35.828133
 30
0.0
 10
48.351519
 20
35.986719
 30
0.0
 10
48.308985
 20
36.152135
 30
0.0
 10
48.282823
 20
36.323521
 30
0.0
 10
48.273905
 20
36.500000
 30
0.0
 10
48.282823
 20
36.676479
 30
0.0
 10
48.308985
 20
36.847864
 30
0.0
 10
48.351519
 20
37.013280
 30
0.0
 10
48.409561
 20
37.171864
 30
0.0
 10
48.482244
 20
37.322748
 30
0.0
 10
48.568703
 20
37.465061
 30
0.0
 10
48.668068
 20
37.597943
 30
0.0
 10
48.779472
 20
37.720518
 30
0.0
 10
48.902047
 20
37.831922
 30
0.0
 10
49.034926
 20
37.931287
 30
0.0
 10
49.177242
 20
38.017746
 30
0.0
 10
49.328124
 20
38.090429
 30
0.0
 10
49.486707
 20
38.148471
 30
0.0
 10
49.652126
 20
38.191005
 30
0.0
 10
49.823508
 20
38.217167
 30
0.0
 10
49.999990
 20
38.226085
 30
0.0
 10
50.176470
 20
38.217167
 30
0.0
 10
50.347855
 20
38.191005
 30
0.0
 10
50.513274
 20
38.148471
 30
0.0
 10
50.671857
 20
38.090429
 30
0.0
 10
50.822739
 20
38.017746
 30
0.0
 10
50.965055
 20
37.931287
 30
0.0
 10
51.097934
 20
37.831922
 30
0.0
 10
51.220508
 20
37.720521
 30
0.0
 10
51.331913
 20
37.597946
 30
0.0
 10
51.431277
 20
37.465067
 30
0.0
 10
51.517736
 20
37.322751
 30
0.0
 10
51.590420
 20
37.171866
 30
0.0
 10
51.648462
 20
37.013283
 30
0.0
 10
51.690995
 20
36.847867
 30
0.0
 10
51.717157
 20
36.676482
 30
0.0
 10
51.726076
 20
36.500000
 30
0.0
  0
LWPOLYLINE
  5
109
100
AcDbEntity
  8
Layer_1
 62
7
100
AcDbPolyline
 90
65
 70
1
 10
101.726069
 20
36.500000
 30
0.0
 10
101.717150
 20
36.323521
 30
0.0
 10
101.690988
 20
36.152135
 30
0.0
 10
101.648455
 20
35.986717
 30
0.0
 10
101.590413
 20
35.828133
 30
0.0
 10
101.517729
 20
35.677251
 30
0.0
 10
101.431271
 20
35.534935
 30
0.0
 10
101.331906
 20
35.402056
 30
0.0
 10
101.220501
 20
35.279482
 30
0.0
 10
101.097927
 20
35.168077
 30
0.0
 10
100.965048
 20
35.068713
 30
0.0
 10
100.822735
 20
34.982254
 30
0.0
 10
100.671850
 20
34.909570
 30
0.0
 10
100.513264
 20
34.851528
 30
0.0
 10
100.347848
 20
34.808995
 30
0.0
 10
100.176463
 20
34.782833
 30
0.0
 10
99.999983
 20
34.773914
 30
0.0
 10
99.823504
 20
34.782833
 30
0.0
 10
99.652119
 20
34.808995
 30
0.0
 10
99.486700
 20
34.851528
 30
0.0
 10
99.328117
 20
34.909570
 30
0.0
 10
99.177235
 20
34.982254
 30
0.0
 10
99.034919
 20
35.068713
 30
0.0
 10
98.902040
 20
35.168077
 30
0.0
 10
98.779465
 20
35.279482
 30
0.0
 10
98.668061
 20
35.402056
 30
0.0
 10
98.568696
 20
35.534935
 30
0.0
 10
98.482237
 20
35.677249
 30
0.0
 10
98.409554
 20
35.828133
 30
0.0
 10
98.351512
 20
35.986719
 30
0.0
 10
98.308978
 20
36.152135
 30
0.0
 10
98.282816
 20
36.323521
 30
0.0
 10
98.273898
 20
36.500000
 30
0.0
 10
98.282816
 20
36.676479
 30
0.0
 10
98.308978
 20
36.847864
 30
0.0
 10
98.351512
 20
37.013280
 30
0.0
 10
98.409554
 20
37.171864
 30
0.0
 10
98.482237
 20
37.322748
 30
0.0
 10
98.568696
 20
37.465061
 30
0.0
 10
98.668061
 20
37.597943
 30
0.0
 10
98.779465
 20
37.720518
 30
0.0
 10
98.902040
 20
37.831922
 30
0.0
 10
99.034919
 20
37.931287
 30
0.0
 10
99.177235
 20
38.017746
 30
0.0
 10
99.328117
 20
38.090429
 30
0.0
 10
99.486700
 20
38.148471
 30
0.0
 10
99.652119
 20
38.191005
 30
0.0
 10
99.823501
 20
38.217167
 30
0.0
 10
99.999983
 20
38.226085
 30
0.0
 10
100.176463
 20
38.217167
 30
0.0
 10
100.347848
 20
38.191005
 30
0.0
 10
100.513267
 20
38.148471
 30
0.0
 10
100.671850
 20
38.090429
 30
0.0
 10
100.822732
 20
38.017746
 30
0.0
 10
100.965048
 20
37.931287
 30
0.0
 10
101.097927
 20
37.831922
 30
0.0
 10
101.220501
 20
37.720521
 30
0.0
 10
101.331906
 20
37.597946
 30
0.0
 10
101.431271
 20
37.465067
 30
0.0
 10
101.517729
 20
37.322751
 30
0.0
 10
101.590413
 20
37.171866
 30
0.0
 10
101.648455
 20
37.013283
 30
0.0
 10
101.690988
 20
36.847867
 30
0.0
 10
101.717150
 20
36.676482
 30
0.0
 10
101.726069
 20
36.500000
 30
0.0
  0
LWPOLYLINE
  5
10a
100
AcDbEntity
  8
Layer_1
 62
7
100
AcDbPolyline
 90
65
 70
1
 10
151.726065
 20
36.500000
 30
0.0
 10
151.717146
 20
36.323521
 30
0.0
 10
151.690984
 20
36.152135
 30
0.0
 10
151.648451
 20
35.986717
 30
0.0
 10
151.590409
 20
35.828133
 30
0.0
 10
151.517725
 20
35.677251
 30
0.0
 10
151.431267
 20
35.534935
 30
0.0
 10
151.331902
 20
35.402056
 30
0.0
 10
151.220497
 20
35.279482
 30
0.0
 10
151.097923
 20
35.168077
 30
0.0
 10
150.965044
 20
35.068713
 30
0.0
 10
150.822731
 20
34.982254
 30
0.0
 10
150.671846
 20
34.909570
 30
0.0
 10
150.513260
 20
34.851528
 30
0.0
 10
150.347844
 20
34.808995
 30
0.0
 10
150.176459
 20
34.782833
 30
0.0
 10
149.999979
 20
34.773914
 30
0.0
 10
149.823500
 20
34.782833
 30
0.0
 10
149.652115
 20
34.808995
 30
0.0
 10
149.486699
 20
34.851528
 30
0.0
 10
149.328116
 20
34.909570
 30
0.0
 10
149.177231
 20
34.982254
 30
0.0
 10
149.034918
 20
35.068713
 30
0.0
 10
148.902036
 20
35.168077
 30
0.0
 10
148.779461
 20
35.279482
 30
0.0
 10
148.668057
 20
35.402056
 30
0.0
 10
148.568692
 20
35.534935
 30
0.0
 10
148.482233
 20
35.677251
 30
0.0
 10
148.409550
 20
35.828133
 30
0.0
 10
148.351508
 20
35.986717
 30
0.0
 10
148.308974
 20
36.152135
 30
0.0
 10
148.282812
 20
36.323518
 30
0.0
 10
148.273894
 20
36.500000
 30
0.0
 10
148.282812
 20
36.676479
 30
0.0
 10
148.308974
 20
36.847861
 30
0.0
 10
148.351508
 20
37.013280
 30
0.0
 10
148.409550
 20
37.171864
 30
0.0
 10
148.482233
 20
37.322745
 30
0.0
 10
148.568692
 20
37.465061
 30
0.0
 10
148.668057
 20
37.597940
 30
0.0
 10
148.779461
 20
37.720515
 30
0.0
 10
148.902036
 20
37.831919
 30
0.0
 10
149.034915
 20
37.931284
 30
0.0
 10
149.177228
 20
38.017743
 30
0.0
 10
149.328113
 20
38.090426
 30
0.0
 10
149.486696
 20
38.148468
 30
0.0
 10
149.652115
 20
38.191002
 30
0.0
 10
149.823497
 20
38.217164
 30
0.0
 10
149.999977
 20
38.226082
 30
0.0
 10
150.176456
 20
38.217164
 30
0.0
 10
150.347841
 20
38.191002
 30
0.0
 10
150.513260
 20
38.148471
 30
0.0
 10
150.671843
 20
38.090429
 30
0.0
 10
150.822725
 20
38.017746
 30
0.0
 10
150.965041
 20
37.931287
 30
0.0
 10
151.097920
 20
37.831922
 30
0.0
 10
151.220495
 20
37.720518
 30
0.0
 10
151.331899
 20
37.597943
 30
0.0
 10
151.431264
 20
37.465061
 30
0.0
 10
151.517723
 20
37.322748
 30
0.0
 10
151.590406
 20
37.171864
 30
0.0
 10
151.648448
 20
37.013280
 30
0.0
 10
151.690982
 20
36.847864
 30
0.0
 10
151.717144
 20
36.676479
 30
0.0
 10
151.726065
 20
36.500000
 30
0.0
  0
LWPOLYLINE
  5
10b
100
AcDbEntity
  8
Layer_1
 62
7
100
AcDbPolyline
 90
65
 70
1
 10
32.500000
 20
20.999997
 30
0.0
 10
32.440626
 20
19.824189
 30
0.0
 10
32.266362
 20
18.682346
 30
0.0
 10
31.982983
 20
17.580248
 30
0.0
 10
31.596274
 20
16.523676
 30
0.0
 10
31.112014
 20
15.518412
 30
0.0
 10
30.535982
 20
14.570230
 30
0.0
 10
29.873959
 20
13.684927
 30
0.0
 10
29.131728
 20
12.868260
 30
0.0
 10
28.315073
 20
12.126044
 30
0.0
 10
27.429765
 20
11.464007
 30
0.0
 10
26.481585
 20
10.887992
 30
0.0
 10
25.476319
 20
10.403726
 30
0.0
 10
24.419744
 20
10.017026
 30
0.0
 10
23.317647
 20
9.733646
 30
0.0
 10
22.175806
 20
9.559374
 30
0.0
 10
20.999999
 20
9.499994
 30
0.0
 10
19.824191
 20
9.559374
 30
0.0
 10
18.682348
 20
9.733618
 30
0.0
 10
17.580251
 20
10.016997
 30
0.0
 10
16.523680
 20
10.403726
 30
0.0
 10
15.518420
 20
10.887992
 30
0.0
 10
14.570243
 20
11.464035
 30
0.0
 10
13.684932
 20
12.126044
 30
0.0
 10
12.868270
 20
12.868260
 30
0.0
 10
12.126033
 20
13.684927
 30
0.0
 10
11.464013
 20
14.570230
 30
0.0
 10
10.887985
 20
15.518412
 30
0.0
 10
10.403726
 20
16.523676
 30
0.0
 10
10.017016
 20
17.580248
 30
0.0
 10
9.733638
 20
18.682346
 30
0.0
 10
9.559372
 20
19.824189
 30
0.0
 10
9.499999
 20
20.999997
 30
0.0
 10
9.559373
 20
22.175805
 30
0.0
 10
9.733639
 20
23.317648
 30
0.0
 10
10.017017
 20
24.419746
 30
0.0
 10
10.403727
 20
25.476315
 30
0.0
 10
10.887988
 20
26.481579
 30
0.0
 10
11.464020
 20
27.429756
 30
0.0
 10
12.126041
 20
28.315064
 30
0.0
 10
12.868272
 20
29.131725
 30
0.0
 10
13.684932
 20
29.873955
 30
0.0
 10
14.570240
 20
30.535978
 30
0.0
 10
15.518417
 20
31.112011
 30
0.0
 10
16.523681
 20
31.596270
 30
0.0
 10
17.580252
 20
31.982979
 30
0.0
 10
18.682349
 20
32.266356
 30
0.0
 10
19.824191
 20
32.440623
 30
0.0
 10
20.999999
 20
32.499996
 30
0.0
 10
22.175808
 20
32.440623
 30
0.0
 10
23.317650
 20
32.266356
 30
0.0
 10
24.419748
 20
31.982979
 30
0.0
 10
25.476318
 20
31.596270
 30
0.0
 10
26.481582
 20
31.112011
 30
0.0
 10
27.429759
 20
30.535978
 30
0.0
 10
28.315068
 20
29.873955
 30
0.0
 10
29.131728
 20
29.131725
 30
0.0
 10
29.873959
 20
28.315064
 30
0.0
 10
30.535982
 20
27.429756
 30
0.0
 10
31.112011
 20
26.481579
 30
0.0
 10
31.596274
 20
25.476315
 30
0.0
 10
31.982983
 20
24.419746
 30
0.0
 10
32.266362
 20
23.317648
 30
0.0
 10
32.440626
 20
22.175805
 30
0.0
 10
32.500000
 20
20.999997
 30
0.0
  0
LWPOLYLINE
  5
10c
100
AcDbEntity
  8
Layer_1
 62
7
100
AcDbPolyline
 90
65
 70
1
 10
72.500002
 20
20.999997
 30
0.0
 10
72.448372
 20
19.466334
 30
0.0
 10
72.296838
 20
17.976974
 30
0.0
 10
72.050422
 20
16.539452
 30
0.0
 10
71.714154
 20
15.161316
 30
0.0
 10
71.293059
 20
13.850111
 30
0.0
 10
70.792162
 20
12.613357
 30
0.0
 10
70.216491
 20
11.458617
 30
0.0
 10
69.571071
 20
10.393397
 30
0.0
 10
68.860932
 20
9.425262
 30
0.0
 10
68.091098
 20
8.561775
 30
0.0
 10
67.266597
 20
7.810415
 30
0.0
 10
66.392456
 20
7.178773
 30
0.0
 10
65.473693
 20
6.674357
 30
0.0
 10
64.515348
 20
6.304731
 30
0.0
 10
63.522442
 20
6.077429
 30
0.0
 10
62.500002
 20
5.999987
 30
0.0
 10
61.477559
 20
6.077429
 30
0.0
 10
60.484653
 20
6.304731
 30
0.0
 10
59.526305
 20
6.674357
 30
0.0
 10
58.607548
 20
7.178773
 30
0.0
 10
57.733410
 20
7.810415
 30
0.0
 10
56.908906
 20
8.561775
 30
0.0
 10
56.139072
 20
9.425262
 30
0.0
 10
55.428930
 20
10.393397
 30
0.0
 10
54.783513
 20
11.458617
 30
0.0
 10
54.207842
 20
12.613357
 30
0.0
 10
53.706943
 20
13.850111
 30
0.0
 10
53.285847
 20
15.161316
 30
0.0
 10
52.949577
 20
16.539452
 30
0.0
 10
52.703163
 20
17.976974
 30
0.0
 10
52.551626
 20
19.466334
 30
0.0
 10
52.499999
 20
20.999997
 30
0.0
 10
52.551629
 20
22.533660
 30
0.0
 10
52.703166
 20
24.023020
 30
0.0
 10
52.949579
 20
25.460539
 30
0.0
 10
53.285850
 20
26.838675
 30
0.0
 10
53.706945
 20
28.149888
 30
0.0
 10
54.207845
 20
29.386639
 30
0.0
 10
54.783516
 20
30.541391
 30
0.0
 10
55.428933
 20
31.606599
 30
0.0
 10
56.139072
 20
32.574729
 30
0.0
 10
56.908906
 20
33.438236
 30
0.0
 10
57.733407
 20
34.189579
 30
0.0
 10
58.607551
 20
34.821223
 30
0.0
 10
59.526308
 20
35.325628
 30
0.0
 10
60.484653
 20
35.695252
 30
0.0
 10
61.477559
 20
35.922553
 30
0.0
 10
62.500002
 20
35.999998
 30
0.0
 10
63.522445
 20
35.922553
 30
0.0
 10
64.515351
 20
35.695252
 30
0.0
 10
65.473696
 20
35.325628
 30
0.0
 10
66.392453
 20
34.821223
 30
0.0
 10
67.266597
 20
34.189579
 30
0.0
 10
68.091098
 20
33.438233
 30
0.0
 10
68.860930
 20
32.574726
 30
0.0
 10
69.571068
 20
31.606599
 30
0.0
 10
70.216488
 20
30.541391
 30
0.0
 10
70.792159
 20
29.386639
 30
0.0
 10
71.293056
 20
28.149888
 30
0.0
 10
71.714151
 20
26.838675
 30
0.0
 10
72.050422
 20
25.460539
 30
0.0
 10
72.296836
 20
24.023020
 30
0.0
 10
72.448372
 20
22.533660
 30
0.0
 10
72.500002
 20
20.999997
 30
0.0
  0
LWPOLYLINE
  5
10d
100
AcDbEntity
  8
Layer_1
 62
7
100
AcDbPolyline
 90
65
 70
1
 10
97.500000
 20
20.999997
 30
0.0
 10
97.448370
 20
19.466334
 30
0.0
 10
97.296836
 20
17.976974
 30
0.0
 10
97.050420
 20
16.539452
 30
0.0
 10
96.714152
 20
15.161316
 30
0.0
 10
96.293057
 20
13.850111
 30
0.0
 10
95.792160
 20
12.613357
 30
0.0
 10
95.216489
 20
11.458617
 30
0.0
 10
94.571069
 20
10.393397
 30
0.0
 10
93.860930
 20
9.425262
 30
0.0
 10
93.091096
 20
8.561775
 30
0.0
 10
92.266595
 20
7.810415
 30
0.0
 10
91.392454
 20
7.178773
 30
0.0
 10
90.473691
 20
6.674357
 30
0.0
 10
89.515346
 20
6.304731
 30
0.0
 10
88.522440
 20
6.077429
 30
0.0
 10
87.500000
 20
5.999987
 30
0.0
 10
86.477557
 20
6.077429
 30
0.0
 10
85.484651
 20
6.304731
 30
0.0
 10
84.526303
 20
6.674357
 30
0.0
 10
83.607546
 20
7.178773
 30
0.0
 10
82.733408
 20
7.810415
 30
0.0
 10
81.908907
 20
8.561775
 30
0.0
 10
81.139072
 20
9.425262
 30
0.0
 10
80.428931
 20
10.393397
 30
0.0
 10
79.783514
 20
11.458617
 30
0.0
 10
79.207843
 20
12.613357
 30
0.0
 10
78.706943
 20
13.850111
 30
0.0
 10
78.285848
 20
15.161316
 30
0.0
 10
77.949577
 20
16.539452
 30
0.0
 10
77.703164
 20
17.976974
 30
0.0
 10
77.551627
 20
19.466334
 30
0.0
 10
77.500000
 20
20.999997
 30
0.0
 10
77.551630
 20
22.533660
 30
0.0
 10
77.703166
 20
24.023020
 30
0.0
 10
77.949580
 20
25.460539
 30
0.0
 10
78.285851
 20
26.838675
 30
0.0
 10
78.706946
 20
28.149888
 30
0.0
 10
79.207845
 20
29.386639
 30
0.0
 10
79.783517
 20
30.541391
 30
0.0
 10
80.428933
 20
31.606599
 30
0.0
 10
81.139072
 20
32.574726
 30
0.0
 10
81.908904
 20
33.438233
 30
0.0
 10
82.733408
 20
34.189579
 30
0.0
 10
83.607549
 20
34.821223
 30
0.0
 10
84.526306
 20
35.325628
 30
0.0
 10
85.484651
 20
35.695252
 30
0.0
 10
86.477557
 20
35.922553
 30
0.0
 10
87.500000
 20
35.999998
 30
0.0
 10
88.522443
 20
35.922553
 30
0.0
 10
89.515349
 20
35.695252
 30
0.0
 10
90.473694
 20
35.325628
 30
0.0
 10
91.392451
 20
34.821223
 30
0.0
 10
92.266592
 20
34.189579
 30
0.0
 10
93.091093
 20
33.438233
 30
0.0
 10
93.860928
 20
32.574726
 30
0.0
 10
94.571066
 20
31.606599
 30
0.0
 10
95.216483
 20
30.541391
 30
0.0
 10
95.792155
 20
29.386639
 30
0.0
 10
96.293054
 20
28.149888
 30
0.0
 10
96.714149
 20
26.838675
 30
0.0
 10
97.050420
 20
25.460539
 30
0.0
 10
97.296834
 20
24.023020
 30
0.0
 10
97.448370
 20
22.533660
 30
0.0
 10
97.500000
 20
20.999997
 30
0.0
  0
LWPOLYLINE
  5
10e
100
AcDbEntity
  8
Layer_1
 62
7
100
AcDbPolyline
 90
65
 70
1
 10
172.499968
 20
20.999997
 30
0.0
 10
172.448339
 20
19.466334
 30
0.0
 10
172.296805
 20
17.976974
 30
0.0
 10
172.050388
 20
16.539452
 30
0.0
 10
171.714120
 20
15.161316
 30
0.0
 10
171.293025
 20
13.850111
 30
0.0
 10
170.792129
 20
12.613357
 30
0.0
 10
170.216457
 20
11.458617
 30
0.0
 10
169.571038
 20
10.393397
 30
0.0
 10
168.860899
 20
9.425262
 30
0.0
 10
168.091064
 20
8.561775
 30
0.0
 10
167.266564
 20
7.810415
 30
0.0
 10
166.392423
 20
7.178773
 30
0.0
 10
165.473659
 20
6.674357
 30
0.0
 10
164.515315
 20
6.304731
 30
0.0
 10
163.522409
 20
6.077429
 30
0.0
 10
162.499969
 20
5.999987
 30
0.0
 10
161.477525
 20
6.077429
 30
0.0
 10
160.484620
 20
6.304731
 30
0.0
 10
159.526272
 20
6.674357
 30
0.0
 10
158.607514
 20
7.178773
 30
0.0
 10
157.733376
 20
7.810415
 30
0.0
 10
156.908875
 20
8.561775
 30
0.0
 10
156.139041
 20
9.425262
 30
0.0
 10
155.428899
 20
10.393397
 30
0.0
 10
154.783482
 20
11.458617
 30
0.0
 10
154.207811
 20
12.613357
 30
0.0
 10
153.706912
 20
13.850111
 30
0.0
 10
153.285817
 20
15.161316
 30
0.0
 10
152.949546
 20
16.539452
 30
0.0
 10
152.703132
 20
17.976974
 30
0.0
 10
152.551596
 20
19.466334
 30
0.0
 10
152.499969
 20
20.999997
 30
0.0
 10
152.551598
 20
22.533660
 30
0.0
 10
152.703135
 20
24.023020
 30
0.0
 10
152.949549
 20
25.460539
 30
0.0
 10
153.285819
 20
26.838675
 30
0.0
 10
153.706915
 20
28.149888
 30
0.0
 10
154.207814
 20
29.386639
 30
0.0
 10
154.783485
 20
30.541391
 30
0.0
 10
155.428902
 20
31.606599
 30
0.0
 10
156.139041
 20
32.574726
 30
0.0
 10
156.908873
 20
33.438233
 30
0.0
 10
157.733376
 20
34.189579
 30
0.0
 10
158.607517
 20
34.821223
 30
0.0
 10
159.526275
 20
35.325628
 30
0.0
 10
160.484620
 20
35.695252
 30
0.0
 10
161.477525
 20
35.922553
 30
0.0
 10
162.499969
 20
35.999998
 30
0.0
 10
163.522412
 20
35.922553
 30
0.0
 10
164.515317
 20
35.695252
 30
0.0
 10
165.473662
 20
35.325628
 30
0.0
 10
166.392420
 20
34.821223
 30
0.0
 10
167.266561
 20
34.189579
 30
0.0
 10
168.091062
 20
33.438233
 30
0.0
 10
168.860896
 20
32.574726
 30
0.0
 10
169.571035
 20
31.606599
 30
0.0
 10
170.216452
 20
30.541391
 30
0.0
 10
170.792123
 20
29.386639
 30
0.0
 10
171.293022
 20
28.149888
 30
0.0
 10
171.714118
 20
26.838675
 30
0.0
 10
172.050388
 20
25.460539
 30
0.0
 10
172.296802
 20
24.023020
 30
0.0
 10
172.448339
 20
22.533660
 30
0.0
 10
172.499968
 20
20.999997
 30
0.0
  0
LWPOLYLINE
  5
10f
100
AcDbEntity
  8
Layer_1
 62
7
100
AcDbPolyline
 90
65
 70
1
 10
197.710713
 20
20.999997
 30
0.0
 10
197.659083
 20
19.466334
 30
0.0
 10
197.507550
 20
17.976974
 30
0.0
 10
197.261133
 20
16.539452
 30
0.0
 10
196.924865
 20
15.161316
 30
0.0
 10
196.503770
 20
13.850111
 30
0.0
 10
196.002873
 20
12.613357
 30
0.0
 10
195.427202
 20
11.458617
 30
0.0
 10
194.781782
 20
10.393397
 30
0.0
 10
194.071644
 20
9.425262
 30
0.0
 10
193.301809
 20
8.561775
 30
0.0
 10
192.477308
 20
7.810415
 30
0.0
 10
191.603167
 20
7.178773
 30
0.0
 10
190.684404
 20
6.674357
 30
0.0
 10
189.726059
 20
6.304731
 30
0.0
 10
188.733153
 20
6.077429
 30
0.0
 10
187.710713
 20
5.999987
 30
0.0
 10
186.688270
 20
6.077429
 30
0.0
 10
185.695364
 20
6.304731
 30
0.0
 10
184.737017
 20
6.674357
 30
0.0
 10
183.818259
 20
7.178773
 30
0.0
 10
182.944121
 20
7.810415
 30
0.0
 10
182.119620
 20
8.561775
 30
0.0
 10
181.349785
 20
9.425262
 30
0.0
 10
180.639644
 20
10.393397
 30
0.0
 10
179.994227
 20
11.458617
 30
0.0
 10
179.418556
 20
12.613357
 30
0.0
 10
178.917656
 20
13.850111
 30
0.0
 10
178.496561
 20
15.161316
 30
0.0
 10
178.160291
 20
16.539452
 30
0.0
 10
177.913877
 20
17.976974
 30
0.0
 10
177.762340
 20
19.466334
 30
0.0
 10
177.710713
 20
20.999997
 30
0.0
 10
177.762343
 20
22.533660
 30
0.0
 10
177.913879
 20
24.023020
 30
0.0
 10
178.160293
 20
25.460539
 30
0.0
 10
178.496564
 20
26.838675
 30
0.0
 10
178.917659
 20
28.149888
 30
0.0
 10
179.418559
 20
29.386639
 30
0.0
 10
179.994230
 20
30.541391
 30
0.0
 10
180.639647
 20
31.606599
 30
0.0
 10
181.349785
 20
32.574726
 30
0.0
 10
182.119617
 20
33.438233
 30
0.0
 10
182.944121
 20
34.189579
 30
0.0
 10
183.818262
 20
34.821223
 30
0.0
 10
184.737019
 20
35.325628
 30
0.0
 10
185.695364
 20
35.695252
 30
0.0
 10
186.688270
 20
35.922553
 30
0.0
 10
187.710713
 20
35.999998
 30
0.0
 10
188.733156
 20
35.922553
 30
0.0
 10
189.726062
 20
35.695252
 30
0.0
 10
190.684407
 20
35.325628
 30
0.0
 10
191.603164
 20
34.821223
 30
0.0
 10
192.477305
 20
34.189579
 30
0.0
 10
193.301806
 20
33.438233
 30
0.0
 10
194.071641
 20
32.574726
 30
0.0
 10
194.781780
 20
31.606599
 30
0.0
 10
195.427196
 20
30.541391
 30
0.0
 10
196.002868
 20
29.386639
 30
0.0
 10
196.503767
 20
28.149888
 30
0.0
 10
196.924862
 20
26.838675
 30
0.0
 10
197.261133
 20
25.460539
 30
0.0
 10
197.507547
 20
24.023020
 30
0.0
 10
197.659083
 20
22.533660
 30
0.0
 10
197.710713
 20
20.999997
 30
0.0
  0
LWPOLYLINE
  5
110
100
AcDbEntity
  8
Layer_1
 62
7
100
AcDbPolyline
 90
65
 70
1
 10
122.499998
 20
20.999997
 30
0.0
 10
122.448368
 20
19.466334
 30
0.0
 10
122.296834
 20
17.976974
 30
0.0
 10
122.050418
 20
16.539452
 30
0.0
 10
121.714150
 20
15.161316
 30
0.0
 10
121.293055
 20
13.850111
 30
0.0
 10
120.792158
 20
12.613357
 30
0.0
 10
120.216487
 20
11.458617
 30
0.0
 10
119.571067
 20
10.393397
 30
0.0
 10
118.860928
 20
9.425262
 30
0.0
 10
118.091094
 20
8.561775
 30
0.0
 10
117.266593
 20
7.810415
 30
0.0
 10
116.392452
 20
7.178773
 30
0.0
 10
115.473689
 20
6.674357
 30
0.0
 10
114.515344
 20
6.304731
 30
0.0
 10
113.522438
 20
6.077429
 30
0.0
 10
112.499998
 20
5.999987
 30
0.0
 10
111.477555
 20
6.077429
 30
0.0
 10
110.484649
 20
6.304731
 30
0.0
 10
109.526301
 20
6.674357
 30
0.0
 10
108.607544
 20
7.178773
 30
0.0
 10
107.733406
 20
7.810415
 30
0.0
 10
106.908905
 20
8.561775
 30
0.0
 10
106.139070
 20
9.425262
 30
0.0
 10
105.428929
 20
10.393397
 30
0.0
 10
104.783512
 20
11.458617
 30
0.0
 10
104.207841
 20
12.613357
 30
0.0
 10
103.706941
 20
13.850111
 30
0.0
 10
103.285846
 20
15.161316
 30
0.0
 10
102.949575
 20
16.539452
 30
0.0
 10
102.703162
 20
17.976974
 30
0.0
 10
102.551625
 20
19.466334
 30
0.0
 10
102.499998
 20
20.999997
 30
0.0
 10
102.551628
 20
22.533660
 30
0.0
 10
102.703164
 20
24.023020
 30
0.0
 10
102.949578
 20
25.460539
 30
0.0
 10
103.285849
 20
26.838675
 30
0.0
 10
103.706944
 20
28.149888
 30
0.0
 10
104.207843
 20
29.386639
 30
0.0
 10
104.783515
 20
30.541391
 30
0.0
 10
105.428931
 20
31.606599
 30
0.0
 10
106.139070
 20
32.574726
 30
0.0
 10
106.908902
 20
33.438233
 30
0.0
 10
107.733406
 20
34.189579
 30
0.0
 10
108.607547
 20
34.821223
 30
0.0
 10
109.526304
 20
35.325628
 30
0.0
 10
110.484649
 20
35.695252
 30
0.0
 10
111.477555
 20
35.922553
 30
0.0
 10
112.499998
 20
35.999998
 30
0.0
 10
113.522441
 20
35.922553
 30
0.0
 10
114.515347
 20
35.695252
 30
0.0
 10
115.473692
 20
35.325628
 30
0.0
 10
116.392449
 20
34.821223
 30
0.0
 10
117.266590
 20
34.189579
 30
0.0
 10
118.091091
 20
33.438233
 30
0.0
 10
118.860926
 20
32.574726
 30
0.0
 10
119.571064
 20
31.606599
 30
0.0
 10
120.216481
 20
30.541391
 30
0.0
 10
120.792153
 20
29.386639
 30
0.0
 10
121.293052
 20
28.149888
 30
0.0
 10
121.714147
 20
26.838675
 30
0.0
 10
122.050418
 20
25.460539
 30
0.0
 10
122.296832
 20
24.023020
 30
0.0
 10
122.448368
 20
22.533660
 30
0.0
 10
122.499998
 20
20.999997
 30
0.0
  0
LWPOLYLINE
  5
111
100
AcDbEntity
  8
Layer_1
 62
7
100
AcDbPolyline
 90
65
 70
1
 10
147.499996
 20
20.999997
 30
0.0
 10
147.448366
 20
19.466334
 30
0.0
 10
147.296832
 20
17.976974
 30
0.0
 10
147.050416
 20
16.539452
 30
0.0
 10
146.714148
 20
15.161316
 30
0.0
 10
146.293053
 20
13.850111
 30
0.0
 10
145.792156
 20
12.613357
 30
0.0
 10
145.216485
 20
11.458617
 30
0.0
 10
144.571065
 20
10.393397
 30
0.0
 10
143.860926
 20
9.425262
 30
0.0
 10
143.091092
 20
8.561775
 30
0.0
 10
142.266591
 20
7.810415
 30
0.0
 10
141.392450
 20
7.178773
 30
0.0
 10
140.473687
 20
6.674357
 30
0.0
 10
139.515342
 20
6.304731
 30
0.0
 10
138.522436
 20
6.077429
 30
0.0
 10
137.499996
 20
5.999987
 30
0.0
 10
136.477553
 20
6.077429
 30
0.0
 10
135.484647
 20
6.304731
 30
0.0
 10
134.526299
 20
6.674357
 30
0.0
 10
133.607542
 20
7.178773
 30
0.0
 10
132.733404
 20
7.810415
 30
0.0
 10
131.908903
 20
8.561775
 30
0.0
 10
131.139068
 20
9.425262
 30
0.0
 10
130.428927
 20
10.393397
 30
0.0
 10
129.783510
 20
11.458617
 30
0.0
 10
129.207839
 20
12.613357
 30
0.0
 10
128.706939
 20
13.850111
 30
0.0
 10
128.285844
 20
15.161316
 30
0.0
 10
127.949573
 20
16.539452
 30
0.0
 10
127.703159
 20
17.976974
 30
0.0
 10
127.551623
 20
19.466334
 30
0.0
 10
127.499996
 20
20.999997
 30
0.0
 10
127.551626
 20
22.533660
 30
0.0
 10
127.703162
 20
24.023020
 30
0.0
 10
127.949576
 20
25.460539
 30
0.0
 10
128.285847
 20
26.838675
 30
0.0
 10
128.706942
 20
28.149888
 30
0.0
 10
129.207841
 20
29.386639
 30
0.0
 10
129.783513
 20
30.541391
 30
0.0
 10
130.428929
 20
31.606599
 30
0.0
 10
131.139068
 20
32.574726
 30
0.0
 10
131.908900
 20
33.438233
 30
0.0
 10
132.733404
 20
34.189579
 30
0.0
 10
133.607545
 20
34.821223
 30
0.0
 10
134.526302
 20
35.325628
 30
0.0
 10
135.484647
 20
35.695252
 30
0.0
 10
136.477553
 20
35.922553
 30
0.0
 10
137.499996
 20
35.999998
 30
0.0
 10
138.522439
 20
35.922553
 30
0.0
 10
139.515345
 20
35.695252
 30
0.0
 10
140.473690
 20
35.325628
 30
0.0
 10
141.392447
 20
34.821223
 30
0.0
 10
142.266588
 20
34.189579
 30
0.0
 10
143.091089
 20
33.438233
 30
0.0
 10
143.860924
 20
32.574726
 30
0.0
 10
144.571062
 20
31.606599
 30
0.0
 10
145.216479
 20
30.541391
 30
0.0
 10
145.792150
 20
29.386639
 30
0.0
 10
146.293050
 20
28.149888
 30
0.0
 10
146.714145
 20
26.838675
 30
0.0
 10
147.050416
 20
25.460539
 30
0.0
 10
147.296830
 20
24.023020
 30
0.0
 10
147.448366
 20
22.533660
 30
0.0
 10
147.499996
 20
20.999997
 30
0.0
  0
LWPOLYLINE
  5
112
100
AcDbEntity
  8
Layer_1
 62
7
100
AcDbPolyline
 90
65
 70
1
 10
76.726068
 20
36.500000
 30
0.0
 10
76.717150
 20
36.323521
 30
0.0
 10
76.690988
 20
36.152135
 30
0.0
 10
76.648454
 20
35.986717
 30
0.0
 10
76.590412
 20
35.828133
 30
0.0
 10
76.517729
 20
35.677251
 30
0.0
 10
76.431270
 20
35.534935
 30
0.0
 10
76.331905
 20
35.402056
 30
0.0
 10
76.220501
 20
35.279482
 30
0.0
 10
76.097926
 20
35.168077
 30
0.0
 10
75.965047
 20
35.068713
 30
0.0
 10
75.822731
 20
34.982254
 30
0.0
 10
75.671847
 20
34.909570
 30
0.0
 10
75.513263
 20
34.851528
 30
0.0
 10
75.347847
 20
34.808995
 30
0.0
 10
75.176462
 20
34.782833
 30
0.0
 10
74.999983
 20
34.773914
 30
0.0
 10
74.823503
 20
34.782833
 30
0.0
 10
74.652118
 20
34.808995
 30
0.0
 10
74.486699
 20
34.851526
 30
0.0
 10
74.328116
 20
34.909567
 30
0.0
 10
74.177231
 20
34.982251
 30
0.0
 10
74.034918
 20
35.068710
 30
0.0
 10
73.902039
 20
35.168077
 30
0.0
 10
73.779465
 20
35.279482
 30
0.0
 10
73.668060
 20
35.402056
 30
0.0
 10
73.568695
 20
35.534935
 30
0.0
 10
73.482237
 20
35.677249
 30
0.0
 10
73.409553
 20
35.828133
 30
0.0
 10
73.351511
 20
35.986719
 30
0.0
 10
73.308978
 20
36.152135
 30
0.0
 10
73.282816
 20
36.323521
 30
0.0
 10
73.273897
 20
36.500000
 30
0.0
 10
73.282816
 20
36.676479
 30
0.0
 10
73.308978
 20
36.847864
 30
0.0
 10
73.351511
 20
37.013280
 30
0.0
 10
73.409553
 20
37.171864
 30
0.0
 10
73.482237
 20
37.322748
 30
0.0
 10
73.568695
 20
37.465061
 30
0.0
 10
73.668060
 20
37.597943
 30
0.0
 10
73.779465
 20
37.720518
 30
0.0
 10
73.902039
 20
37.831922
 30
0.0
 10
74.034918
 20
37.931287
 30
0.0
 10
74.177234
 20
38.017746
 30
0.0
 10
74.328116
 20
38.090429
 30
0.0
 10
74.486699
 20
38.148471
 30
0.0
 10
74.652118
 20
38.191005
 30
0.0
 10
74.823501
 20
38.217167
 30
0.0
 10
74.999983
 20
38.226085
 30
0.0
 10
75.176462
 20
38.217167
 30
0.0
 10
75.347844
 20
38.191005
 30
0.0
 10
75.513263
 20
38.148471
 30
0.0
 10
75.671847
 20
38.090429
 30
0.0
 10
75.822728
 20
38.017746
 30
0.0
 10
75.965044
 20
37.931287
 30
0.0
 10
76.097923
 20
37.831922
 30
0.0
 10
76.220498
 20
37.720518
 30
0.0
 10
76.331902
 20
37.597943
 30
0.0
 10
76.431267
 20
37.465064
 30
0.0
 10
76.517726
 20
37.322751
 30
0.0
 10
76.590409
 20
37.171866
 30
0.0
 10
76.648451
 20
37.013283
 30
0.0
 10
76.690985
 20
36.847864
 30
0.0
 10
76.717147
 20
36.676482
 30
0.0
 10
76.726068
 20
36.500000
 30
0.0
  0
LWPOLYLINE
  5
113
100
AcDbEntity
  8
Layer_1
 62
7
100
AcDbPolyline
 90
65
 70
1
 10
126.726067
 20
36.500000
 30
0.0
 10
126.717148
 20
36.323521
 30
0.0
 10
126.690986
 20
36.152135
 30
0.0
 10
126.648453
 20
35.986717
 30
0.0
 10
126.590411
 20
35.828133
 30
0.0
 10
126.517727
 20
35.677251
 30
0.0
 10
126.431269
 20
35.534935
 30
0.0
 10
126.331904
 20
35.402056
 30
0.0
 10
126.220499
 20
35.279482
 30
0.0
 10
126.097925
 20
35.168077
 30
0.0
 10
125.965046
 20
35.068713
 30
0.0
 10
125.822733
 20
34.982254
 30
0.0
 10
125.671848
 20
34.909570
 30
0.0
 10
125.513262
 20
34.851528
 30
0.0
 10
125.347846
 20
34.808995
 30
0.0
 10
125.176461
 20
34.782833
 30
0.0
 10
124.999981
 20
34.773914
 30
0.0
 10
124.823502
 20
34.782833
 30
0.0
 10
124.652117
 20
34.808995
 30
0.0
 10
124.486698
 20
34.851528
 30
0.0
 10
124.328115
 20
34.909570
 30
0.0
 10
124.177233
 20
34.982254
 30
0.0
 10
124.034917
 20
35.068713
 30
0.0
 10
123.902038
 20
35.168077
 30
0.0
 10
123.779463
 20
35.279482
 30
0.0
 10
123.668059
 20
35.402056
 30
0.0
 10
123.568694
 20
35.534935
 30
0.0
 10
123.482235
 20
35.677249
 30
0.0
 10
123.409552
 20
35.828133
 30
0.0
 10
123.351510
 20
35.986719
 30
0.0
 10
123.308976
 20
36.152135
 30
0.0
 10
123.282814
 20
36.323521
 30
0.0
 10
123.273896
 20
36.500000
 30
0.0
 10
123.282814
 20
36.676479
 30
0.0
 10
123.308976
 20
36.847864
 30
0.0
 10
123.351510
 20
37.013280
 30
0.0
 10
123.409552
 20
37.171864
 30
0.0
 10
123.482235
 20
37.322748
 30
0.0
 10
123.568694
 20
37.465061
 30
0.0
 10
123.668059
 20
37.597943
 30
0.0
 10
123.779463
 20
37.720518
 30
0.0
 10
123.902038
 20
37.831922
 30
0.0
 10
124.034917
 20
37.931287
 30
0.0
 10
124.177233
 20
38.017746
 30
0.0
 10
124.328115
 20
38.090429
 30
0.0
 10
124.486698
 20
38.148471
 30
0.0
 10
124.652117
 20
38.191005
 30
0.0
 10
124.823499
 20
38.217167
 30
0.0
 10
124.999981
 20
38.226085
 30
0.0
 10
125.176461
 20
38.217167
 30
0.0
 10
125.347846
 20
38.191005
 30
0.0
 10
125.513265
 20
38.148471
 30
0.0
 10
125.671848
 20
38.090429
 30
0.0
 10
125.822730
 20
38.017746
 30
0.0
 10
125.965046
 20
37.931287
 30
0.0
 10
126.097925
 20
37.831922
 30
0.0
 10
126.220499
 20
37.720521
 30
0.0
 10
126.331904
 20
37.597946
 30
0.0
 10
126.431269
 20
37.465067
 30
0.0
 10
126.517727
 20
37.322751
 30
0.0
 10
126.590411
 20
37.171866
 30
0.0
 10
126.648453
 20
37.013283
 30
0.0
 10
126.690986
 20
36.847867
 30
0.0
 10
126.717148
 20
36.676482
 30
0.0
 10
126.726067
 20
36.500000
 30
0.0
  0
LWPOLYLINE
  5
114
100
AcDbEntity
  8
Layer_1
 62
7
100
AcDbPolyline
 90
65
 70
1
 10
176.726054
 20
36.500000
 30
0.0
 10
176.717136
 20
36.323521
 30
0.0
 10
176.690974
 20
36.152135
 30
0.0
 10
176.648440
 20
35.986717
 30
0.0
 10
176.590398
 20
35.828133
 30
0.0
 10
176.517715
 20
35.677251
 30
0.0
 10
176.431256
 20
35.534935
 30
0.0
 10
176.331891
 20
35.402056
 30
0.0
 10
176.220487
 20
35.279482
 30
0.0
 10
176.097912
 20
35.168077
 30
0.0
 10
175.965033
 20
35.068713
 30
0.0
 10
175.822720
 20
34.982254
 30
0.0
 10
175.671836
 20
34.909570
 30
0.0
 10
175.513249
 20
34.851528
 30
0.0
 10
175.347833
 20
34.808995
 30
0.0
 10
175.176448
 20
34.782833
 30
0.0
 10
174.999969
 20
34.773914
 30
0.0
 10
174.823490
 20
34.782833
 30
0.0
 10
174.652105
 20
34.808995
 30
0.0
 10
174.486689
 20
34.851528
 30
0.0
 10
174.328105
 20
34.909570
 30
0.0
 10
174.177221
 20
34.982254
 30
0.0
 10
174.034907
 20
35.068713
 30
0.0
 10
173.902026
 20
35.168077
 30
0.0
 10
173.779451
 20
35.279482
 30
0.0
 10
173.668047
 20
35.402056
 30
0.0
 10
173.568682
 20
35.534935
 30
0.0
 10
173.482223
 20
35.677251
 30
0.0
 10
173.409539
 20
35.828133
 30
0.0
 10
173.351498
 20
35.986717
 30
0.0
 10
173.308964
 20
36.152135
 30
0.0
 10
173.282802
 20
36.323518
 30
0.0
 10
173.273884
 20
36.500000
 30
0.0
 10
173.282802
 20
36.676479
 30
0.0
 10
173.308964
 20
36.847861
 30
0.0
 10
173.351498
 20
37.013280
 30
0.0
 10
173.409539
 20
37.171864
 30
0.0
 10
173.482223
 20
37.322745
 30
0.0
 10
173.568682
 20
37.465061
 30
0.0
 10
173.668047
 20
37.597940
 30
0.0
 10
173.779451
 20
37.720515
 30
0.0
 10
173.902026
 20
37.831919
 30
0.0
 10
174.034904
 20
37.931284
 30
0.0
 10
174.177218
 20
38.017743
 30
0.0
 10
174.328102
 20
38.090426
 30
0.0
 10
174.486686
 20
38.148468
 30
0.0
 10
174.652105
 20
38.191002
 30
0.0
 10
174.823487
 20
38.217164
 30
0.0
 10
174.999966
 20
38.226082
 30
0.0
 10
175.176445
 20
38.217164
 30
0.0
 10
175.347830
 20
38.191002
 30
0.0
 10
175.513249
 20
38.148471
 30
0.0
 10
175.671833
 20
38.090429
 30
0.0
 10
175.822714
 20
38.017746
 30
0.0
 10
175.965031
 20
37.931287
 30
0.0
 10
176.097909
 20
37.831922
 30
0.0
 10
176.220484
 20
37.720518
 30
0.0
 10
176.331888
 20
37.597943
 30
0.0
 10
176.431253
 20
37.465061
 30
0.0
 10
176.517712
 20
37.322748
 30
0.0
 10
176.590396
 20
37.171864
 30
0.0
 10
176.648437
 20
37.013280
 30
0.0
 10
176.690971
 20
36.847864
 30
0.0
 10
176.717133
 20
36.676479
 30
0.0
 10
176.726054
 20
36.500000
 30
0.0
  0
LWPOLYLINE
  5
115
100
AcDbEntity
  8
Layer_1
 62
7
100
AcDbPolyline
 90
65
 70
1
 10
76.726068
 20
5.500002
 30
0.0
 10
76.717150
 20
5.323529
 30
0.0
 10
76.690988
 20
5.152135
 30
0.0
 10
76.648454
 20
4.986725
 30
0.0
 10
76.590412
 20
4.828144
 30
0.0
 10
76.517729
 20
4.677268
 30
0.0
 10
76.431270
 20
4.534944
 30
0.0
 10
76.331905
 20
4.402045
 30
0.0
 10
76.220501
 20
4.279476
 30
0.0
 10
76.097926
 20
4.168083
 30
0.0
 10
75.965047
 20
4.068712
 30
0.0
 10
75.822734
 20
3.982240
 30
0.0
 10
75.671849
 20
3.909567
 30
0.0
 10
75.513266
 20
3.851514
 30
0.0
 10
75.347847
 20
3.808983
 30
0.0
 10
75.176465
 20
3.782737
 30
0.0
 10
74.999985
 20
3.773706
 30
0.0
 10
74.823506
 20
3.782737
 30
0.0
 10
74.652121
 20
3.808983
 30
0.0
 10
74.486702
 20
3.851514
 30
0.0
 10
74.328119
 20
3.909567
 30
0.0
 10
74.177237
 20
3.982240
 30
0.0
 10
74.034921
 20
4.068712
 30
0.0
 10
73.902042
 20
4.168083
 30
0.0
 10
73.779467
 20
4.279476
 30
0.0
 10
73.668063
 20
4.402045
 30
0.0
 10
73.568698
 20
4.534944
 30
0.0
 10
73.482240
 20
4.677268
 30
0.0
 10
73.409556
 20
4.828144
 30
0.0
 10
73.351514
 20
4.986725
 30
0.0
 10
73.308980
 20
5.152135
 30
0.0
 10
73.282818
 20
5.323529
 30
0.0
 10
73.273900
 20
5.500002
 30
0.0
 10
73.282818
 20
5.676476
 30
0.0
 10
73.308980
 20
5.847870
 30
0.0
 10
73.351514
 20
6.013280
 30
0.0
 10
73.409556
 20
6.171861
 30
0.0
 10
73.482240
 20
6.322737
 30
0.0
 10
73.568698
 20
6.465061
 30
0.0
 10
73.668063
 20
6.597960
 30
0.0
 10
73.779467
 20
6.720529
 30
0.0
 10
73.902042
 20
6.831922
 30
0.0
 10
74.034921
 20
6.931292
 30
0.0
 10
74.177234
 20
7.017765
 30
0.0
 10
74.328119
 20
7.090438
 30
0.0
 10
74.486702
 20
7.148491
 30
0.0
 10
74.652121
 20
7.191022
 30
0.0
 10
74.823506
 20
7.217268
 30
0.0
 10
74.999985
 20
7.226299
 30
0.0
 10
75.176465
 20
7.217268
 30
0.0
 10
75.347847
 20
7.191022
 30
0.0
 10
75.513266
 20
7.148491
 30
0.0
 10
75.671849
 20
7.090438
 30
0.0
 10
75.822734
 20
7.017765
 30
0.0
 10
75.965050
 20
6.931292
 30
0.0
 10
76.097929
 20
6.831922
 30
0.0
 10
76.220503
 20
6.720529
 30
0.0
 10
76.331908
 20
6.597960
 30
0.0
 10
76.431273
 20
6.465061
 30
0.0
 10
76.517731
 20
6.322737
 30
0.0
 10
76.590415
 20
6.171861
 30
0.0
 10
76.648457
 20
6.013280
 30
0.0
 10
76.690990
 20
5.847870
 30
0.0
 10
76.717152
 20
5.676476
 30
0.0
 10
76.726068
 20
5.500002
 30
0.0
  0
LWPOLYLINE
  5
116
100
AcDbEntity
  8
Layer_1
 62
7
100
AcDbPolyline
 90
65
 70
1
 10
126.726075
 20
5.500002
 30
0.0
 10
126.717157
 20
5.323529
 30
0.0
 10
126.690995
 20
5.152135
 30
0.0
 10
126.648461
 20
4.986725
 30
0.0
 10
126.590419
 20
4.828144
 30
0.0
 10
126.517736
 20
4.677268
 30
0.0
 10
126.431277
 20
4.534944
 30
0.0
 10
126.331912
 20
4.402045
 30
0.0
 10
126.220508
 20
4.279476
 30
0.0
 10
126.097933
 20
4.168083
 30
0.0
 10
125.965054
 20
4.068712
 30
0.0
 10
125.822738
 20
3.982240
 30
0.0
 10
125.671857
 20
3.909567
 30
0.0
 10
125.513273
 20
3.851514
 30
0.0
 10
125.347854
 20
3.808983
 30
0.0
 10
125.176472
 20
3.782737
 30
0.0
 10
124.999990
 20
3.773706
 30
0.0
 10
124.823511
 20
3.782737
 30
0.0
 10
124.652126
 20
3.808983
 30
0.0
 10
124.486707
 20
3.851514
 30
0.0
 10
124.328123
 20
3.909567
 30
0.0
 10
124.177242
 20
3.982240
 30
0.0
 10
124.034925
 20
4.068712
 30
0.0
 10
123.902047
 20
4.168083
 30
0.0
 10
123.779472
 20
4.279476
 30
0.0
 10
123.668068
 20
4.402045
 30
0.0
 10
123.568703
 20
4.534944
 30
0.0
 10
123.482244
 20
4.677268
 30
0.0
 10
123.409560
 20
4.828144
 30
0.0
 10
123.351519
 20
4.986725
 30
0.0
 10
123.308985
 20
5.152135
 30
0.0
 10
123.282823
 20
5.323529
 30
0.0
 10
123.273905
 20
5.500002
 30
0.0
 10
123.282823
 20
5.676476
 30
0.0
 10
123.308985
 20
5.847870
 30
0.0
 10
123.351519
 20
6.013280
 30
0.0
 10
123.409560
 20
6.171861
 30
0.0
 10
123.482244
 20
6.322737
 30
0.0
 10
123.568703
 20
6.465061
 30
0.0
 10
123.668068
 20
6.597960
 30
0.0
 10
123.779472
 20
6.720529
 30
0.0
 10
123.902047
 20
6.831922
 30
0.0
 10
124.034925
 20
6.931292
 30
0.0
 10
124.177239
 20
7.017765
 30
0.0
 10
124.328123
 20
7.090438
 30
0.0
 10
124.486707
 20
7.148491
 30
0.0
 10
124.652126
 20
7.191022
 30
0.0
 10
124.823511
 20
7.217268
 30
0.0
 10
124.999990
 20
7.226299
 30
0.0
 10
125.176469
 20
7.217268
 30
0.0
 10
125.347854
 20
7.191022
 30
0.0
 10
125.513273
 20
7.148491
 30
0.0
 10
125.671857
 20
7.090438
 30
0.0
 10
125.822741
 20
7.017765
 30
0.0
 10
125.965054
 20
6.931292
 30
0.0
 10
126.097933
 20
6.831922
 30
0.0
 10
126.220508
 20
6.720529
 30
0.0
 10
126.331912
 20
6.597960
 30
0.0
 10
126.431277
 20
6.465061
 30
0.0
 10
126.517736
 20
6.322737
 30
0.0
 10
126.590419
 20
6.171861
 30
0.0
 10
126.648461
 20
6.013280
 30
0.0
 10
126.690995
 20
5.847870
 30
0.0
 10
126.717157
 20
5.676476
 30
0.0
 10
126.726075
 20
5.500002
 30
0.0
  0
LWPOLYLINE
  5
117
100
AcDbEntity
  8
Layer_1
 62
7
100
AcDbPolyline
 90
65
 70
1
 10
176.726071
 20
5.500002
 30
0.0
 10
176.717153
 20
5.323529
 30
0.0
 10
176.690991
 20
5.152135
 30
0.0
 10
176.648457
 20
4.986725
 30
0.0
 10
176.590415
 20
4.828144
 30
0.0
 10
176.517732
 20
4.677268
 30
0.0
 10
176.431273
 20
4.534944
 30
0.0
 10
176.331908
 20
4.402045
 30
0.0
 10
176.220504
 20
4.279476
 30
0.0
 10
176.097929
 20
4.168083
 30
0.0
 10
175.965050
 20
4.068712
 30
0.0
 10
175.822737
 20
3.982240
 30
0.0
 10
175.671853
 20
3.909567
 30
0.0
 10
175.513269
 20
3.851514
 30
0.0
 10
175.347850
 20
3.808983
 30
0.0
 10
175.176468
 20
3.782737
 30
0.0
 10
174.999989
 20
3.773706
 30
0.0
 10
174.823509
 20
3.782737
 30
0.0
 10
174.652124
 20
3.808983
 30
0.0
 10
174.486705
 20
3.851514
 30
0.0
 10
174.328122
 20
3.909567
 30
0.0
 10
174.177240
 20
3.982240
 30
0.0
 10
174.034924
 20
4.068712
 30
0.0
 10
173.902045
 20
4.168083
 30
0.0
 10
173.779471
 20
4.279476
 30
0.0
 10
173.668066
 20
4.402045
 30
0.0
 10
173.568701
 20
4.534944
 30
0.0
 10
173.482243
 20
4.677268
 30
0.0
 10
173.409559
 20
4.828144
 30
0.0
 10
173.351517
 20
4.986725
 30
0.0
 10
173.308984
 20
5.152135
 30
0.0
 10
173.282822
 20
5.323529
 30
0.0
 10
173.273903
 20
5.500002
 30
0.0
 10
173.282822
 20
5.676476
 30
0.0
 10
173.308984
 20
5.847870
 30
0.0
 10
173.351517
 20
6.013280
 30
0.0
 10
173.409559
 20
6.171861
 30
0.0
 10
173.482243
 20
6.322737
 30
0.0
 10
173.568701
 20
6.465061
 30
0.0
 10
173.668066
 20
6.597960
 30
0.0
 10
173.779471
 20
6.720529
 30
0.0
 10
173.902045
 20
6.831922
 30
0.0
 10
174.034924
 20
6.931292
 30
0.0
 10
174.177238
 20
7.017765
 30
0.0
 10
174.328122
 20
7.090438
 30
0.0
 10
174.486705
 20
7.148491
 30
0.0
 10
174.652124
 20
7.191022
 30
0.0
 10
174.823509
 20
7.217268
 30
0.0
 10
174.999989
 20
7.226299
 30
0.0
 10
175.176468
 20
7.217268
 30
0.0
 10
175.347850
 20
7.191022
 30
0.0
 10
175.513269
 20
7.148491
 30
0.0
 10
175.671853
 20
7.090438
 30
0.0
 10
175.822737
 20
7.017765
 30
0.0
 10
175.965053
 20
6.931292
 30
0.0
 10
176.097932
 20
6.831922
 30
0.0
 10
176.220507
 20
6.720529
 30
0.0
 10
176.331911
 20
6.597960
 30
0.0
 10
176.431276
 20
6.465061
 30
0.0
 10
176.517735
 20
6.322737
 30
0.0
 10
176.590418
 20
6.171861
 30
0.0
 10
176.648460
 20
6.013280
 30
0.0
 10
176.690994
 20
5.847870
 30
0.0
 10
176.717156
 20
5.676476
 30
0.0
 10
176.726071
 20
5.500002
 30
0.0
  0
ENDSEC
  0
SECTION
  2
OBJECTS
  0
DICTIONARY
  5
C
330
0
100
AcDbDictionary
  3
ACAD_GROUP
350
D
  3
ACAD_MLINESTYLE
350
17
  0
DICTIONARY
  5
D
330
C
100
AcDbDictionary
  0
DICTIONARY
  5
1A
330
C
100
AcDbDictionary
  0
DICTIONARY
  5
17
330
C
100
AcDbDictionary
  3
STANDARD
350
18
  0
DICTIONARY
  5
19
330
C
100
AcDbDictionary
  0
ENDSEC
  0
EOF
